<svg xmlns="http://www.w3.org/2000/svg" width="384pt" height="384pt" viewBox="0 0 384 384" version="1.1" class="iconadda">
<g id="surface266929">
<g id="Webinar_free_icon_YAzhqYj-0"><path style=" stroke:none;fill-rule:nonzero;fill:rgb(0%,0%,0%);fill-opacity:1;" d="M 231.578125 348.867188 L 210.582031 342.871094 L 210.582031 341.214844 C 218.300781 335.398438 222.96875 326.25 222.96875 316.570312 L 222.96875 305.464844 C 222.96875 288.824219 210.574219 274.710938 194.75 273.332031 C 186.074219 272.578125 177.453125 275.507812 171.082031 281.347656 C 164.695312 287.207031 161.035156 295.53125 161.035156 304.183594 L 161.035156 316.570312 C 161.035156 326.25 165.703125 335.398438 173.421875 341.214844 L 173.421875 342.871094 L 152.425781 348.867188 C 139.253906 352.632812 130.066406 364.820312 130.066406 378.507812 L 130.066406 384.703125 L 253.9375 384.703125 L 253.9375 378.507812 C 253.9375 364.820312 244.746094 352.632812 231.578125 348.867188 Z M 143.535156 372.3125 C 145.507812 366.832031 150.023438 362.433594 155.832031 360.78125 L 185.804688 352.214844 L 185.804688 334.351562 L 182.726562 332.5625 C 176.898438 329.164062 173.417969 323.1875 173.417969 316.574219 L 173.417969 304.1875 C 173.417969 298.992188 175.617188 294 179.453125 290.488281 C 183.332031 286.929688 188.359375 285.222656 193.683594 285.683594 C 203.152344 286.503906 210.578125 295.199219 210.578125 305.46875 L 210.578125 316.574219 C 210.578125 323.191406 207.097656 329.167969 201.269531 332.558594 L 198.195312 334.347656 L 198.195312 352.210938 L 228.171875 360.78125 C 233.980469 362.441406 238.496094 366.839844 240.46875 372.3125 Z M 361.640625 348.867188 L 340.644531 342.871094 L 340.644531 341.214844 C 348.363281 335.398438 353.03125 326.25 353.03125 316.570312 L 353.03125 305.472656 C 353.03125 288.824219 340.636719 274.710938 324.8125 273.339844 C 316.15625 272.585938 307.515625 275.515625 301.144531 281.355469 L 301.144531 281.359375 C 294.75 287.226562 291.105469 295.507812 291.097656 304.183594 L 291.097656 316.570312 C 291.097656 326.25 295.765625 335.398438 303.484375 341.214844 L 303.484375 342.871094 L 282.488281 348.867188 C 269.320312 352.632812 260.128906 364.820312 260.128906 378.507812 L 260.128906 384.703125 L 384 384.703125 L 384 378.507812 C 384 364.820312 374.808594 352.632812 361.640625 348.867188 Z M 273.597656 372.3125 C 275.570312 366.832031 280.085938 362.433594 285.894531 360.78125 L 315.871094 352.214844 L 315.871094 334.351562 L 312.792969 332.5625 C 306.964844 329.164062 303.484375 323.1875 303.484375 316.574219 L 303.484375 304.1875 C 303.484375 298.992188 305.683594 294 309.519531 290.488281 C 313.398438 286.929688 318.417969 285.222656 323.75 285.683594 C 333.21875 286.503906 340.644531 295.199219 340.644531 305.472656 L 340.644531 316.570312 C 340.644531 323.1875 337.164062 329.164062 331.335938 332.554688 L 328.257812 334.347656 L 328.257812 352.210938 L 358.234375 360.78125 C 364.042969 362.441406 368.558594 366.839844 370.53125 372.3125 Z M 101.511719 348.867188 L 80.515625 342.871094 L 80.515625 341.214844 C 88.234375 335.398438 92.902344 326.25 92.902344 316.570312 L 92.902344 305.472656 C 92.902344 288.824219 80.507812 274.710938 64.683594 273.339844 C 56.019531 272.585938 47.386719 275.515625 41.015625 281.355469 L 41.015625 281.359375 C 34.621094 287.226562 30.976562 295.507812 30.96875 304.183594 L 30.96875 316.570312 C 30.96875 326.25 35.636719 335.398438 43.355469 341.214844 L 43.355469 342.871094 L 22.359375 348.867188 C 9.191406 352.632812 0 364.820312 0 378.507812 L 0 384.703125 L 123.871094 384.703125 L 123.871094 378.507812 C 123.871094 364.820312 114.679688 352.632812 101.511719 348.867188 Z M 13.46875 372.3125 C 15.441406 366.832031 19.957031 362.433594 25.765625 360.78125 L 55.742188 352.214844 L 55.742188 334.351562 L 52.664062 332.5625 C 46.835938 329.164062 43.355469 323.1875 43.355469 316.574219 L 43.355469 304.1875 C 43.355469 298.992188 45.554688 294 49.390625 290.488281 C 53.269531 286.929688 58.296875 285.222656 63.621094 285.683594 C 73.089844 286.503906 80.515625 295.199219 80.515625 305.472656 L 80.515625 316.570312 C 80.515625 323.1875 77.035156 329.164062 71.207031 332.554688 L 68.128906 334.347656 L 68.128906 352.210938 L 98.105469 360.78125 C 103.914062 362.441406 108.429688 366.839844 110.402344 372.3125 Z M 173.417969 227.5 L 230.621094 198.898438 L 173.417969 170.296875 Z M 185.804688 190.339844 L 202.925781 198.898438 L 185.804688 207.457031 Z M 185.804688 190.339844 " />
</g><g id="Webinar_free_icon_YAzhqYj-1"><path style=" stroke:none;fill-rule:nonzero;fill:rgb(0%,0%,0%);fill-opacity:1;" d="M 371.613281 25.476562 L 243.191406 25.476562 L 206.640625 4.59375 C 197.738281 -0.5 186.25 -0.5 177.351562 4.59375 L 140.808594 25.476562 L 12.386719 25.476562 C 5.554688 25.476562 0 31.035156 0 37.863281 L 0 56.445312 C 0 63.277344 5.554688 68.832031 12.386719 68.832031 L 12.386719 260.832031 L 24.773438 260.832031 L 24.773438 68.832031 L 80.433594 68.832031 L 80.433594 56.445312 L 12.386719 56.441406 L 12.386719 37.859375 L 119.132812 37.859375 L 101.402344 47.992188 L 101.402344 47.996094 C 98.824219 49.472656 96.679688 51.605469 95.1875 54.175781 C 93.695312 56.746094 92.90625 59.664062 92.902344 62.636719 C 92.902344 68.675781 96.160156 74.289062 101.402344 77.28125 L 117.675781 86.582031 L 117.675781 140.054688 L 120.152344 141.914062 C 120.808594 142.402344 130.644531 149.59375 148.269531 155.175781 C 136.753906 166.675781 130.058594 182.261719 130.058594 198.894531 C 130.058594 233.046875 157.84375 260.828125 191.992188 260.828125 C 226.144531 260.828125 253.925781 233.046875 253.925781 198.894531 C 253.925781 182.253906 247.230469 166.671875 235.714844 155.175781 C 253.339844 149.59375 263.179688 142.410156 263.832031 141.914062 L 266.308594 140.054688 L 266.308594 86.582031 L 282.585938 77.28125 C 285.941406 75.367188 288.355469 72.320312 289.746094 68.832031 L 297.289062 68.832031 C 300.699219 68.832031 303.484375 71.609375 303.484375 75.027344 L 303.484375 112.1875 L 298.816406 112.1875 L 285.148438 160.039062 L 284.90625 161.734375 C 284.90625 175.398438 296.015625 186.507812 309.679688 186.507812 C 323.34375 186.507812 334.453125 175.398438 334.453125 161.734375 L 320.542969 112.1875 L 315.871094 112.183594 L 315.871094 75.023438 C 315.871094 64.78125 307.53125 56.441406 297.289062 56.441406 L 289.757812 56.441406 C 288.363281 52.953125 285.949219 49.910156 282.597656 47.996094 L 264.867188 37.863281 L 371.613281 37.863281 L 371.613281 56.445312 L 328.257812 56.445312 L 328.257812 68.832031 L 359.226562 68.832031 L 359.226562 260.832031 L 371.613281 260.832031 L 371.613281 68.832031 C 378.445312 68.832031 384 63.277344 384 56.445312 L 384 37.863281 C 384 31.035156 378.445312 25.476562 371.613281 25.476562 Z M 322.039062 162.515625 C 321.636719 168.988281 316.25 174.121094 309.675781 174.121094 C 303.105469 174.121094 297.714844 168.988281 297.3125 162.515625 L 308.152344 124.574219 L 311.195312 124.574219 Z M 241.546875 198.894531 C 241.546875 226.214844 219.320312 248.441406 192 248.441406 C 164.679688 248.441406 142.453125 226.214844 142.453125 198.894531 C 142.453125 182.972656 150.082031 168.246094 162.882812 158.910156 C 171.433594 160.605469 181.144531 161.730469 192 161.730469 C 202.851562 161.730469 212.566406 160.605469 221.117188 158.914062 C 233.914062 168.238281 241.546875 182.96875 241.546875 198.890625 Z M 253.933594 133.625 C 246.859375 137.933594 225.027344 149.347656 192 149.347656 C 158.957031 149.347656 137.121094 137.929688 130.066406 133.625 L 130.066406 93.660156 L 177.363281 120.683594 L 177.359375 120.683594 C 186.429688 125.867188 197.570312 125.867188 206.640625 120.683594 L 253.933594 93.660156 Z M 272.421875 68.832031 L 200.496094 109.933594 C 195.332031 112.886719 188.664062 112.886719 183.5 109.933594 L 107.542969 66.53125 C 106.152344 65.726562 105.292969 64.242188 105.289062 62.636719 C 105.292969 61.03125 106.152344 59.550781 107.542969 58.75 L 183.5 15.347656 C 186.082031 13.871094 189.027344 13.089844 192 13.089844 C 194.972656 13.089844 197.914062 13.871094 200.5 15.347656 L 272.425781 56.445312 L 192 56.441406 L 192 68.828125 Z M 272.421875 68.832031 " />
</g><g id="Webinar_free_icon_YAzhqYj-2"><path style=" stroke:none;fill-rule:nonzero;fill:rgb(0%,0%,0%);fill-opacity:1;" d="M 37.160156 81.21875 L 80.515625 81.21875 L 80.515625 93.605469 L 37.160156 93.605469 Z M 37.160156 105.992188 L 105.289062 105.992188 L 105.289062 118.378906 L 37.160156 118.378906 Z M 37.160156 130.765625 L 105.289062 130.765625 L 105.289062 143.152344 L 37.160156 143.152344 Z M 37.160156 155.539062 L 105.289062 155.539062 L 105.289062 167.925781 L 37.160156 167.925781 Z M 266.324219 248.441406 L 346.839844 248.441406 L 346.839844 260.828125 L 266.324219 260.832031 Z M 266.324219 223.667969 L 346.839844 223.667969 L 346.839844 236.054688 L 266.324219 236.054688 Z M 266.324219 198.894531 L 346.839844 198.894531 L 346.839844 211.28125 L 266.324219 211.28125 Z M 266.324219 198.894531 " />
</g></g>
</svg>