<svg xmlns="http://www.w3.org/2000/svg" viewBox="0 0 750 500"><g id="freepik--Device--inject-354"><rect x="235.15" y="60.77" width="274.71" height="394.24" rx="12.26" style="fill:#263238"></rect><path d="M497.6,455l.86-.06a6.87,6.87,0,0,0,1.05-.12,11.69,11.69,0,0,0,1.44-.32,12.18,12.18,0,0,0,3.73-1.82,12.4,12.4,0,0,0,3.75-4.31,12.93,12.93,0,0,0,1.14-3.26,19.19,19.19,0,0,0,.22-3.85c0-2.7,0-5.66,0-8.87,0-6.41,0-13.81,0-22.14,0-33.32-.05-81.53-.08-141.11,0-29.78,0-62.41,0-97.44q0-26.27,0-54.28,0-14,0-28.39V74.55a19.42,19.42,0,0,0-.19-3.59,11.4,11.4,0,0,0-1.14-3.39,12.14,12.14,0,0,0-4.95-5.09,13.22,13.22,0,0,0-3.39-1.22,19.15,19.15,0,0,0-3.65-.23H247.44a12,12,0,0,0-11.8,9.76,21.32,21.32,0,0,0-.21,4.17V87.64q0,16.83,0,33.44v65.38c0,42.87,0,84.22,0,123.61s0,76.82,0,111.85v13q0,3.22,0,6.42a20.47,20.47,0,0,0,.15,3.15,11.93,11.93,0,0,0,.83,3,12.06,12.06,0,0,0,9.38,7.15,20.79,20.79,0,0,0,3.07.13H258l46.76,0,141.09.08,38.37.05,10,0,3.4,0-3.4,0-10,0-38.37.05-141.09.09h-56a20.62,20.62,0,0,1-3.13-.14,12.49,12.49,0,0,1-9.72-7.41,11.92,11.92,0,0,1-.87-3.1,19.35,19.35,0,0,1-.15-3.22q0-3.19,0-6.42v-13c0-35,0-72.46,0-111.85s0-80.74,0-123.61q0-32.15,0-65.38V75a22,22,0,0,1,.23-4.27A12.51,12.51,0,0,1,247.44,60.5H496.29a18.23,18.23,0,0,1,3.75.24A13.79,13.79,0,0,1,503.57,62a12.78,12.78,0,0,1,5.17,5.31,12.24,12.24,0,0,1,1.18,3.53,19.88,19.88,0,0,1,.19,3.68v42.88q0,28,0,54.28c0,35,0,67.66,0,97.44,0,59.58-.07,107.79-.09,141.11,0,8.33,0,15.73,0,22.14q0,4.82,0,8.87a19.45,19.45,0,0,1-.24,3.87,13,13,0,0,1-1.17,3.29,12.37,12.37,0,0,1-3.79,4.33,12.23,12.23,0,0,1-3.77,1.8,9.94,9.94,0,0,1-1.44.31,8.29,8.29,0,0,1-1.06.11C497.89,455,497.6,455,497.6,455Z" style="fill:#263238"></path><path d="M400.65,81.61h-56.1a3.91,3.91,0,0,1-3.91-3.92h0a3.91,3.91,0,0,1,3.91-3.91h56.1a3.92,3.92,0,0,1,3.92,3.91h0A3.92,3.92,0,0,1,400.65,81.61Z" style="fill:#455a64"></path><rect x="243.57" y="88.9" width="257.39" height="329.23" style="fill:#fff"></rect><rect x="247.87" y="97.89" width="247.91" height="312.65" style="fill:#fafafa"></rect><rect x="247.87" y="97.89" width="247.91" height="19.13" style="fill:#e0e0e0"></rect><circle cx="258.42" cy="106.49" r="3.38" style="fill:#fafafa"></circle><path d="M271.34,106.49a3.38,3.38,0,1,1-3.38-3.38A3.38,3.38,0,0,1,271.34,106.49Z" style="fill:#fafafa"></path><circle cx="277.49" cy="106.49" r="3.38" style="fill:#fafafa"></circle><rect x="314.48" y="126.49" width="116.24" height="40.12" rx="19.03" style="fill:#e0e0e0"></rect><rect x="271.34" y="178.23" width="54.73" height="9.54" rx="4.53" style="fill:#e0e0e0"></rect><rect x="393.06" y="278.97" width="54.73" height="9.54" rx="4.53" style="fill:#e0e0e0"></rect><rect x="343.99" y="178.23" width="54.73" height="9.54" rx="4.53" style="fill:#e0e0e0"></rect><rect x="413.12" y="178.23" width="54.73" height="9.54" rx="4.53" style="fill:#e0e0e0"></rect><rect x="247.87" y="196.86" width="247.91" height="60.05" style="fill:#e0e0e0"></rect><rect x="261.01" y="218.49" width="46.99" height="9.54" rx="4.53" style="fill:#fff"></rect><rect x="261.01" y="233.52" width="75.09" height="4.98" rx="2.36" style="fill:#fff"></rect><rect x="393.29" y="297.1" width="75.09" height="4.98" rx="2.36" style="fill:#e0e0e0"></rect><rect x="393.06" y="309.49" width="40.12" height="4.98" rx="2.36" style="fill:#e0e0e0"></rect><rect x="280.52" y="348.42" width="54.73" height="9.54" rx="4.53" style="fill:#e0e0e0"></rect><rect x="280.75" y="366.54" width="75.09" height="4.98" rx="2.36" style="fill:#e0e0e0"></rect><rect x="280.52" y="378.93" width="40.12" height="4.98" rx="2.36" style="fill:#e0e0e0"></rect><rect x="358.76" y="196.56" width="137.02" height="60.05" style="fill:#ebebeb"></rect><rect x="270.45" y="271.12" width="100.9" height="51.2" style="fill:#ebebeb"></rect><rect x="384.43" y="342.56" width="92.82" height="51.2" style="fill:#ebebeb"></rect><rect x="288.33" y="222.33" width="179.52" height="50.44" rx="23.93" style="fill:#353935"></rect><path d="M339.93,252.49l1.05-2.35a7,7,0,0,0,3.7,1.11c1.32,0,1.83-.37,1.83-.91,0-1.79-6.38-.49-6.38-4.66,0-2,1.63-3.64,5-3.64a8.35,8.35,0,0,1,4.08,1l-1,2.36a6.65,6.65,0,0,0-3.11-.87c-1.34,0-1.82.45-1.82,1,0,1.72,6.37.43,6.37,4.57,0,2-1.63,3.63-5,3.63A8.93,8.93,0,0,1,339.93,252.49Z" style="fill:#fff"></path><path d="M353.34,244.78h-3.45v-2.52H360v2.52h-3.44v8.72h-3.17Z" style="fill:#fff"></path><path d="M387.77,244.78h-3.45v-2.52h10.06v2.52H391v8.72h-3.18Z" style="fill:#fff"></path><path d="M368.1,251.31h-4.75l-.88,2.19h-3.24l5-11.24h3.13l5,11.24H369Zm-.93-2.34-1.44-3.59L364.28,249Z" style="fill:#fff"></path><path d="M378.1,250.51h-1.73v3h-3.18V242.26h5.14c3.06,0,5,1.59,5,4.16a3.74,3.74,0,0,1-2.2,3.55l2.43,3.53h-3.41Zm0-5.74h-1.77v3.29h1.77c1.31,0,2-.61,2-1.64S379.45,244.77,378.14,244.77Z" style="fill:#fff"></path><path d="M401,242.26h5.31c3.73,0,6.28,2.17,6.28,5.62s-2.55,5.62-6.28,5.62H401Zm5.19,8.7a3.08,3.08,0,1,0,0-6.16h-2V251Z" style="fill:#fff"></path><path d="M423.24,251v2.46h-9V242.26H423v2.46h-5.66v1.89h5V249h-5v2Z" style="fill:#fff"></path><path d="M435.15,253.5l0-6-2.89,4.85h-1.41l-2.88-4.69v5.8H425V242.26h2.61l3.95,6.49,3.85-6.49H438l0,11.24Z" style="fill:#fff"></path><path d="M439.74,247.88c0-3.37,2.65-5.84,6.25-5.84s6.24,2.47,6.24,5.84-2.65,5.84-6.24,5.84S439.74,251.25,439.74,247.88Zm9.28,0a3,3,0,1,0-3,3.21A3,3,0,0,0,449,247.88Z" style="fill:#fff"></path><path d="M308.05,247.55V237.36a3.13,3.13,0,0,1,4.7-2.71l8.82,5.09,8.83,5.1a3.14,3.14,0,0,1,0,5.43l-8.83,5.09-8.82,5.1a3.14,3.14,0,0,1-4.7-2.72Z" style="fill:#fff"></path><path d="M495.78,410.54c0-2.05-.09-126.93-.23-312.65l.23.24-247.88,0h0l.26-.26c0,115.79,0,223.37,0,312.65l-.22-.22,247.91.22-247.91.21h-.21v-.21c0-89.28,0-196.86,0-312.65v-.26h.29l247.88,0H496v.23C495.88,283.61,495.78,408.49,495.78,410.54Z" style="fill:#263238"></path></g><g id="freepik--speech-bubble-2--inject-354"><path d="M579.14,115.69l-2.76-8.16A27.38,27.38,0,1,0,570,115h0Z" style="fill:#fff"></path><path d="M579.14,115.69l-.57,0-1.74-.11-6.88-.46a.11.11,0,0,1-.11-.13.14.14,0,0,1,0-.06h0l.17.16a27.29,27.29,0,0,1-12.29,5.7,26.62,26.62,0,0,1-8.81.17,27.25,27.25,0,0,1-9.44-3.12,27.53,27.53,0,0,1-7.79-41.93,27.36,27.36,0,0,1,10.74-7.79A28.15,28.15,0,0,1,555,66.14a27.44,27.44,0,0,1,11.4,3.52,27.85,27.85,0,0,1,8.31,7.27,27.57,27.57,0,0,1,5.63,17.71,27.25,27.25,0,0,1-3.84,13v-.09l2,6.12.49,1.56c.11.34.16.51.16.51s-.08-.19-.21-.55l-.55-1.57c-.49-1.38-1.19-3.39-2.11-6a.17.17,0,0,1,0-.1A27.2,27.2,0,0,0,566.13,70.1a26.8,26.8,0,0,0-11.19-3.43,27.44,27.44,0,0,0-12.28,1.92,26.75,26.75,0,0,0-10.53,7.64A27.08,27.08,0,0,0,549,120.51a26.71,26.71,0,0,0,8.68-.12,27.37,27.37,0,0,0,12.21-5.52.12.12,0,0,1,.17,0,.14.14,0,0,1,0,.15h0l-.09-.19,6.79.6,1.77.17Z" style="fill:#263238"></path><path d="M546.77,87.14h4.16a3.54,3.54,0,0,1,3.63-3.56,3.36,3.36,0,0,1,3.26,2.15,3.73,3.73,0,0,1-.3,3.37c-.7,1.16-2.25,2.22-5,1.73v9.37h4.11V94.71a8,8,0,0,0,5.77-7.85c0-6.08-5.45-7.49-7.79-7.49C552.78,79.37,546.69,79.8,546.77,87.14Z" style="fill:#263238"></path><rect x="552.46" y="102.14" width="4.17" height="3.9" style="fill:#263238"></rect></g><g id="freepik--character-2--inject-354"><path d="M638.39,115.22a80.18,80.18,0,0,0,3.67-13.41,28,28,0,0,0-.94-13.74c-.23-.66-2.27-5.11-3-5-.5,0,.74,4.18.48,4.62-2.47,4.11-3.18,9.09-2.86,13.88a62.81,62.81,0,0,0,2.62,13.7" style="fill:#263238"></path><path d="M638.22,139l.84-41.48c.52-11.63-5.81-21.62-17.44-21.82l-1.08,0a20.81,20.81,0,0,0-19.93,20c-.4,10.08-.71,21.22-.42,26.61.6,11.15,11.83,12.42,11.83,12.42s0,1,0,4.27l16.82,9.43,4-.37Z" style="fill:#ae7461"></path><path d="M612,134.75a26.91,26.91,0,0,0,14.35-4.89s-3.15,8.53-14.32,8Z" style="fill:#6f4439"></path><path d="M604,105.35a1.59,1.59,0,0,0,1.6,1.54,1.52,1.52,0,0,0,1.58-1.5,1.59,1.59,0,0,0-1.6-1.55A1.52,1.52,0,0,0,604,105.35Z" style="fill:#263238"></path><path d="M603.18,100.55c.21.2,1.38-.74,3.09-.81s3,.74,3.19.52-.13-.46-.7-.84a4.39,4.39,0,0,0-2.56-.67,4.22,4.22,0,0,0-2.44.9C603.24,100.08,603.08,100.46,603.18,100.55Z" style="fill:#263238"></path><path d="M618.45,105.35a1.59,1.59,0,0,0,1.6,1.54,1.53,1.53,0,0,0,1.59-1.5,1.6,1.6,0,0,0-1.6-1.55A1.53,1.53,0,0,0,618.45,105.35Z" style="fill:#263238"></path><path d="M620,100.25c.2.2,1.37-.74,3.09-.81s3,.74,3.18.53-.13-.47-.69-.84a4.33,4.33,0,0,0-2.56-.68,4.16,4.16,0,0,0-2.45.91C620.07,99.78,619.91,100.16,620,100.25Z" style="fill:#263238"></path><path d="M614.4,113.68a11.24,11.24,0,0,0-2.81-.39c-.44,0-.85-.09-.94-.39a2.22,2.22,0,0,1,.24-1.31c.37-1.07.75-2.2,1.16-3.39,1.6-4.82,2.74-8.77,2.54-8.84s-1.65,3.8-3.25,8.62c-.38,1.19-.75,2.32-1.1,3.4a2.52,2.52,0,0,0-.16,1.73,1.11,1.11,0,0,0,.75.61,2.56,2.56,0,0,0,.75.07A10.63,10.63,0,0,0,614.4,113.68Z" style="fill:#263238"></path><path d="M619.23,94.91c.25.43,1.9-.1,3.92-.22s3.72.11,3.91-.35c.08-.22-.28-.6-1-.92a6.49,6.49,0,0,0-3-.47,6.63,6.63,0,0,0-2.93.9C619.42,94.28,619.12,94.71,619.23,94.91Z" style="fill:#263238"></path><path d="M602.9,95.51c.36.38,1.75-.06,3.43-.12s3.11.18,3.42-.24c.14-.2-.09-.58-.72-.94a5.46,5.46,0,0,0-2.81-.56,5.36,5.36,0,0,0-2.72.85C602.92,94.92,602.73,95.33,602.9,95.51Z" style="fill:#263238"></path><path d="M638.49,105.83c.19-.09,7.58-2.59,7.65,5s-7.61,6.13-7.63,5.91S638.49,105.83,638.49,105.83Z" style="fill:#ae7461"></path><path d="M640.82,113.88s.13.09.36.19a1.28,1.28,0,0,0,1,0c.81-.3,1.47-1.59,1.5-3a4.48,4.48,0,0,0-.39-1.9,1.57,1.57,0,0,0-1-1,.7.7,0,0,0-.79.37c-.1.22-.05.37-.09.38s-.16-.12-.1-.44a.89.89,0,0,1,.29-.48,1,1,0,0,1,.74-.2,1.86,1.86,0,0,1,1.4,1.17,4.54,4.54,0,0,1,.48,2.12c0,1.54-.81,3-1.91,3.32a1.4,1.4,0,0,1-1.22-.19C640.83,114.06,640.79,113.89,640.82,113.88Z" style="fill:#6f4439"></path><path d="M605.54,83.07c-1.23-.69,2.47-4.69,5.51-6.07,4.59-2.09,11.6-3.37,15.83-2.17,5.1,1.44,9.34,4,11.9,8.61a30.12,30.12,0,0,1,3.38,15.34,9.08,9.08,0,0,1-1.08,4.66c-1.06,1.69-3.11,2.76-3,5.09a3.18,3.18,0,0,1-.79,2.33c-1.4,1.49-3.11.09-3.89-1.31-1.68-3-1.87-6.56-2-10a22.07,22.07,0,0,1,.48-7.26c.37-1.28,1-2.48,1.27-3.77a4.63,4.63,0,0,0-.54-3.82,5.1,5.1,0,0,0-.62-.62,8,8,0,0,0-7.9-1.5c-4.31,1.52-11.65,3.8-13.57,2.34-2.76-2.1-3.42-3.47-3.42-3.47Z" style="fill:#263238"></path><path d="M619.79,114.74c-.27,0-.28,1.74-1.79,3s-3.37,1-3.38,1.28.41.34,1.2.37a4.36,4.36,0,0,0,2.83-1,3.79,3.79,0,0,0,1.38-2.5C620.1,115.17,619.91,114.73,619.79,114.74Z" style="fill:#263238"></path><path d="M613.89,424.13l.36,20.23s-20.44,7.15-20.74,10.9l39.24.71.74-31.54Z" style="fill:#263238"></path><path d="M626.41,442.88a1.6,1.6,0,0,1,1.08,1.85,1.54,1.54,0,0,1-1.82,1.08,1.69,1.69,0,0,1-1.13-2,1.6,1.6,0,0,1,2-.91" style="fill:#e0e0e0"></path><path d="M632.75,456l0-3.18-37.61.51s-1.76.72-1.58,2Z" style="fill:#455a64"></path><path d="M613.61,444.15c0,.19,1,.29,1.9.93s1.42,1.44,1.59,1.37-.08-1.18-1.23-1.93S613.58,444,613.61,444.15Z" style="fill:#fff"></path><path d="M609.47,445.77c-.05.19.77.53,1.41,1.35s.81,1.68,1,1.68.33-1.09-.48-2.09S609.47,445.59,609.47,445.77Z" style="fill:#fff"></path><path d="M607,450.66c.17,0,.46-.91,0-2s-1.36-1.49-1.44-1.33.46.73.83,1.6S606.85,450.64,607,450.66Z" style="fill:#fff"></path><path d="M614,439.53c.08.17,1-.08,2.05,0s1.92.45,2,.29-.7-.87-2-1S614,439.37,614,439.53Z" style="fill:#fff"></path><path d="M661.77,422.89l2.13,24.39L660,467.05a2.51,2.51,0,0,0,2.15,3h0a2.49,2.49,0,0,0,2.15-.79c3.5-3.81,16.3-17.91,16-19.68-.3-2.06-.54-25.87-.54-25.87Z" style="fill:#263238"></path><path d="M662.17,470l18.09-22.12.07,1a3.79,3.79,0,0,1-.74,2.5c-1.44,1.92-5.51,7.15-15.19,17.8a2.51,2.51,0,0,1-2.23.79Z" style="fill:#455a64"></path><g style="opacity:0.6000000000000001"><path d="M674.74,440.34a1.53,1.53,0,0,0-.29,2,1.46,1.46,0,0,0,2,.31,1.61,1.61,0,0,0,.29-2.13,1.51,1.51,0,0,0-2.1-.08" style="fill:#fff"></path></g><path d="M667.06,459a7.42,7.42,0,0,0-2.26-1.77,7.58,7.58,0,0,0-2.85-.35c0-.06.28-.27.84-.39a4,4,0,0,1,4,1.64C667.06,458.6,667.12,459,667.06,459Z" style="fill:#fff"></path><path d="M665.53,462.37a19.44,19.44,0,0,0-2.23-.91,21.11,21.11,0,0,0-2.4-.16,2.78,2.78,0,0,1,2.52-.37C664.89,461.26,665.66,462.3,665.53,462.37Z" style="fill:#fff"></path><path d="M670,454.59a12.8,12.8,0,0,0-7-2.25,6.85,6.85,0,0,1,7,2.25Z" style="fill:#fff"></path><path d="M670,447.12c-.06.15-1.44-.33-3.2-.28s-3.13.56-3.19.41a6.21,6.21,0,0,1,6.39-.13Z" style="fill:#fff"></path><path d="M669.56,440a11.55,11.55,0,0,0-3.32-.38,12.38,12.38,0,0,0-3.19,1s.21-.37.75-.73a5.28,5.28,0,0,1,2.39-.83,5.47,5.47,0,0,1,2.5.34C669.29,439.62,669.6,439.89,669.56,440Z" style="fill:#fff"></path><path d="M666.2,438.2a2,2,0,0,1-.1-.92,6.45,6.45,0,0,1,.58-2.47,2.88,2.88,0,0,1,1.14-1.44,1,1,0,0,1,1.14.16,1.6,1.6,0,0,1,.46,1.07,3.55,3.55,0,0,1-2.89,3.48,4.13,4.13,0,0,1-4.17-1.89,1.46,1.46,0,0,1-.14-1.18,1,1,0,0,1,1-.59,3.53,3.53,0,0,1,1.66.73,7.27,7.27,0,0,1,1.79,1.79,2.2,2.2,0,0,1,.43.82,11.49,11.49,0,0,0-2.43-2.29,3.21,3.21,0,0,0-1.47-.6.52.52,0,0,0-.54.31,1,1,0,0,0,.14.77,3.66,3.66,0,0,0,3.63,1.6,3.09,3.09,0,0,0,2.5-2.91,1.24,1.24,0,0,0-.29-.77.53.53,0,0,0-.63-.09,2.55,2.55,0,0,0-1,1.2A9.45,9.45,0,0,0,666.2,438.2Z" style="fill:#fff"></path><path d="M594.81,255.21a87,87,0,0,0-1.89,25.56c.42,5.43,18.75,155.72,18.75,155.72h24.75l-7-141.25,2,.44s13.51,60.24,14.61,70c1,8.76,12.39,72.45,12.39,72.45l22.63.26-7.23-84.24-8.41-80.84-3.17-23.53Z" style="fill:#263238"></path><path d="M633.36,280.83a4.39,4.39,0,0,1-1,.58,11.77,11.77,0,0,1-3.07,1.08,6.44,6.44,0,0,1-2.28,0,4.66,4.66,0,0,1-2.38-1.14,5.76,5.76,0,0,1-1.45-2.53c-.29-1-.45-2-.66-3-.79-4.07-1.32-7.79-1.63-10.5-.16-1.35-.26-2.44-.32-3.2a4.43,4.43,0,0,1,0-1.18,6,6,0,0,1,.23,1.16l.48,3.17c.41,2.69,1,6.39,1.79,10.45.39,2,.67,4.06,1.92,5.26a5.13,5.13,0,0,0,4.28,1.11,14.57,14.57,0,0,0,3-.89A6.21,6.21,0,0,1,633.36,280.83Z" style="fill:#455a64"></path><path d="M625.91,261.68s.16-.13.51-.15a2.17,2.17,0,0,1,1.39.44,2.48,2.48,0,0,1,1,1.91,2.45,2.45,0,0,1-4.18,1.57,2.5,2.5,0,0,1-.47-2.13,2.18,2.18,0,0,1,.75-1.24c.28-.22.47-.25.48-.22a2.78,2.78,0,0,0-.87,1.53,2.19,2.19,0,0,0,.47,1.74,2,2,0,0,0,3.34-1.25,2.2,2.2,0,0,0-.79-1.62A2.73,2.73,0,0,0,625.91,261.68Z" style="fill:#455a64"></path><path d="M606.19,143.79c-4.73.29-13.28,3.13-16.9,9.9-3,5.65-3.85,29.8-4,30.38l9.1,2.36L606,203.62,653.62,193l3,7.51,1.83-53.76S610.91,143.5,606.19,143.79Z" style="fill:#353935"></path><path d="M661.49,225.07l3.64-51.37-.84-24.37L642,139.52,639.81,131l-23,10.9-4.83-5.34-2,6-5,1.66-11.77,20.09.17,33.63S592,239,593,253.31a4.41,4.41,0,0,0,3,3.88,42.43,42.43,0,0,0,12.61,1.86c23.22.56,54.85-.9,54.85-.9l.32-1a20.24,20.24,0,0,0,.79-8.78Z" style="fill:#353935"></path><path d="M613.71,153.28c.33-1.29.59-2.31.77-3.06l.22-.8a1.1,1.1,0,0,1,.09-.26,1,1,0,0,1,0,.28c0,.22-.09.48-.16.81-.16.76-.38,1.79-.65,3.09-.58,2.68-1.45,6.56-2.41,11.37s-2,10.57-2.73,17-.92,13.59-1,21.08c-.15,15,.25,28.55.5,38.37.13,4.86.24,8.82.32,11.62,0,1.33,0,2.39.06,3.17,0,.33,0,.6,0,.82s0,.28,0,.28a1.18,1.18,0,0,1,0-.28c0-.22,0-.49-.06-.82,0-.77-.1-1.83-.18-3.15-.12-2.81-.3-6.76-.51-11.63-.37-9.81-.83-23.38-.68-38.38.09-7.51.35-14.66,1.06-21.14s1.86-12.23,2.87-17" style="fill:#263238"></path><path d="M639.81,131s-2.58.74-9.2,4.28-13.85,6.62-13.85,6.62l.56,10.4L641.85,140" style="fill:#353935"></path><polyline points="611.93 136.56 616.76 141.9 614.18 153.05 609.88 142.97" style="fill:#353935"></polyline><g style="opacity:0.30000000000000004"><path d="M616.67,143.05c-.21.16-1.55,12.87-1.55,12.87l24.59-14.85L617.32,152.3Z"></path></g><path d="M617,141.81s-.47.81-1.25,2.12a58,58,0,0,0-2.79,5.23l-.24.5-.15.33-.15-.33a41.07,41.07,0,0,1-2.06-5.2c-.21-.67-.36-1.23-.46-1.61a2.41,2.41,0,0,1-.11-.6,21.21,21.21,0,0,1,.79,2.14c.48,1.32,1.2,3.15,2.14,5.12h-.31l.24-.51a44.63,44.63,0,0,1,2.89-5.21c.42-.64.78-1.14,1-1.49S617,141.79,617,141.81Z" style="fill:#263238"></path><path d="M642,139.52a1.5,1.5,0,0,1-.33.2l-1,.52-3.66,1.9c-3.09,1.6-7.33,3.9-12,6.4-2.86,1.52-5.56,2.94-7.92,4.11l-.22.11v-.24c0-3.05,0-5.63-.07-7.49v-2.11a4.09,4.09,0,0,1,0-.75,7.51,7.51,0,0,1,.06.75c0,.53,0,1.24.08,2.11,0,1.86.11,4.43.19,7.49l-.22-.14c2.35-1.2,5-2.62,7.9-4.14,4.69-2.51,8.95-4.76,12.07-6.32,1.56-.78,2.83-1.39,3.71-1.8l1-.46C641.89,139.55,642,139.5,642,139.52Z" style="fill:#263238"></path><path d="M613.69,143.7a30,30,0,0,1-.32-7.08s1.61-4.59,1.37-5.39-.64-1.69-2.25-.89-3.63,2.26-3.87,4.91a14.09,14.09,0,0,1-.64,3.62l-1.53-2.33.32-2.41s2.27-.58,2.35-1.79a25.71,25.71,0,0,0-2.3-1.64s-4.07.21-4.48,1.73-1.45,4.83-1.45,4.83-3.38.57-3.78,3.31c0,0-1.93,2.57-1.85,4.18a7.59,7.59,0,0,0-1,3.38c.08,1.53,4.51,8,4.51,8l1.35,10.1L612.59,162l-.83-9.19S614.34,147,613.69,143.7Z" style="fill:#ae7461"></path><path d="M613.69,143.64a2.66,2.66,0,0,1,.12.63,8.26,8.26,0,0,1,0,1.84,25.32,25.32,0,0,1-1.89,6.69v-.07c.25,2.57.55,5.68.88,9.18v.17l-.16,0-12.54,3.31-.26.07,0-.27c-.39-2.9-.8-6-1.24-9.16l0,.11c-1.13-1.67-2.28-3.42-3.34-5.28-.26-.47-.52-.94-.75-1.44a3.73,3.73,0,0,1-.47-1.66,8,8,0,0,1,1-3.24l0,.14a4.52,4.52,0,0,1,.42-1.81,13.61,13.61,0,0,1,1.48-2.54l0,.12a3.77,3.77,0,0,1,1.47-2.41,6.37,6.37,0,0,1,2.53-1.11l-.2.18q.75-2.5,1.49-4.92a2,2,0,0,1,1-1,5.5,5.5,0,0,1,1.21-.44,13.09,13.09,0,0,1,2.46-.38h.08l.07.05,1.26.85.62.44.31.24.09.07s0,0,.06.07a.39.39,0,0,1,.06.19l0,.23a2.19,2.19,0,0,1-1.09,1.2,6,6,0,0,1-1.4.56l.17-.19c-.11.82-.22,1.62-.33,2.41l0-.15,1.52,2.33-.38,0a15.26,15.26,0,0,0,.55-2.77,7.13,7.13,0,0,1,.64-2.73,7.5,7.5,0,0,1,3.88-3.3,1.6,1.6,0,0,1,1.27,0,1.64,1.64,0,0,1,.71,1,1.29,1.29,0,0,1,.09.59,4.58,4.58,0,0,1-.07.55c-.07.36-.15.69-.24,1-.35,1.32-.75,2.49-1.12,3.53v0a32.18,32.18,0,0,0,0,5.26q.07.9.15,1.35a2.3,2.3,0,0,1,0,.46,2.13,2.13,0,0,1-.11-.45c-.06-.3-.14-.75-.21-1.35a29.87,29.87,0,0,1-.12-5.29h0v0c.35-1.05.73-2.22,1.06-3.52.09-.33.16-.66.22-1a3.07,3.07,0,0,0,.06-.51.86.86,0,0,0-.07-.47,1.37,1.37,0,0,0-.56-.8,1.27,1.27,0,0,0-1,.05,7.18,7.18,0,0,0-3.64,3.14,6.61,6.61,0,0,0-.58,2.6,14.9,14.9,0,0,1-.57,2.89l-.14.41-.25-.38c-.5-.75-1-1.53-1.53-2.33l0-.07v-.08c.11-.79.21-1.59.32-2.42l0-.15.15,0a5.93,5.93,0,0,0,1.28-.52,1.75,1.75,0,0,0,.86-.91l0-.14h0l.23,0h0a.14.14,0,0,0-.09,0s-.14.09-.1.1h0l-.06,0-.28-.22-.61-.43-1.26-.84.15,0a12.73,12.73,0,0,0-2.36.37c-.74.2-1.62.51-1.87,1.12l-1.47,4.9,0,.14-.16,0a5.65,5.65,0,0,0-2.3,1,3.21,3.21,0,0,0-1.27,2.07v.07l0,0a13.09,13.09,0,0,0-1.42,2.43,4,4,0,0,0-.38,1.59v.07l0,.07a7.29,7.29,0,0,0-.93,3,3.37,3.37,0,0,0,.41,1.43c.23.48.48.95.74,1.41,1,1.84,2.18,3.58,3.31,5.25l0,0V156c.42,3.19.83,6.26,1.21,9.16L600,165l12.57-3.23-.15.21c-.29-3.51-.56-6.62-.77-9.2v0l0,0a26.42,26.42,0,0,0,2-6.59A10.17,10.17,0,0,0,613.69,143.64Z" style="fill:#6f4439"></path><path d="M610.65,143.34a8.68,8.68,0,0,1-1.73-2.43,9,9,0,0,1-1.27-2.69,8.62,8.62,0,0,1,1.72,2.43A9.05,9.05,0,0,1,610.65,143.34Z" style="fill:#6f4439"></path><g style="opacity:0.30000000000000004"><path d="M620.86,216.09a40.7,40.7,0,0,0,39.26-31.5Z"></path></g><path d="M613,161.51l11.45,31.12,24.27-36.31s11.62-13,17.09-5.35,2.68,22.25-.78,29.16c-3.22,6.43-33,44.49-38.5,45.1s-13.7-1.5-17.34-8.38-16-48.83-16-48.83Z" style="fill:#353935"></path><path d="M662.6,149.44a24.15,24.15,0,0,0-5.64,1,23.46,23.46,0,0,0-5,2.76,11.61,11.61,0,0,1,10.66-3.73Z" style="fill:#263238"></path><path d="M665.45,179.4c-3.12,6.43-31.93,44.49-37.22,45.1S615,223,611.47,216.12s-15.69-49.57-15.69-49.57l19.37-5.76,11.07,31.11,23.46-36.31" style="fill:#353935"></path><path d="M649.68,155.59s-.12.23-.39.67l-1.21,1.92-4.66,7.31c-4.06,6.34-9.9,15.43-17,26.53l-.23.34L626,192c-3.27-9.16-7-19.69-11.11-31.1l.3.15-19.37,5.77.18-.31c1.54,5.27,3.15,10.8,4.8,16.43,2.23,7.52,4.46,14.84,6.75,21.87,1.17,3.5,2.28,7,3.66,10.22a14.42,14.42,0,0,0,6.87,7.35,18.3,18.3,0,0,0,9.48,2l.6,0,.51-.15a7.1,7.1,0,0,0,1-.58,10.28,10.28,0,0,0,.93-.7,10.8,10.8,0,0,0,.89-.76c1.16-1,2.24-2.11,3.29-3.2,4.15-4.38,7.73-8.72,11-12.7,6.45-8,11.41-14.68,14.75-19.35,1.66-2.34,2.91-4.19,3.73-5.47.41-.63.7-1.13.89-1.46s.3-.51.3-.51-.08.18-.25.53-.46.85-.86,1.5c-.78,1.29-2,3.16-3.65,5.52-3.28,4.72-8.21,11.43-14.63,19.47-3.23,4-6.8,8.36-10.95,12.77-1.05,1.09-2.13,2.19-3.3,3.24-.29.27-.59.52-.91.77a8.58,8.58,0,0,1-1,.72,6.9,6.9,0,0,1-1.06.63l-.64.18-.61.05a18.85,18.85,0,0,1-9.74-2,14.91,14.91,0,0,1-7.1-7.57c-1.41-3.3-2.52-6.76-3.7-10.27-2.29-7-4.53-14.36-6.76-21.88-1.67-5.62-3.29-11.16-4.8-16.44l-.07-.25.25-.07,19.37-5.75.22-.06.08.21,11,31.14-.37-.05,17.18-26.42,4.75-7.26,1.26-1.88C649.52,155.8,649.68,155.59,649.68,155.59Z" style="fill:#263238"></path><g style="opacity:0.30000000000000004"><path d="M645.78,219a3,3,0,0,0-2-.72,258.72,258.72,0,0,0-38.07-.58l-12.89,9.85a1,1,0,0,0,.45,1.16,2.75,2.75,0,0,0,1.3.32l10,.88a78.42,78.42,0,0,0,9.31.44c1.94-.07,3.87-.28,5.81-.27a93.51,93.51,0,0,1,9.59,1,25.34,25.34,0,0,0,7.63-.11,12.12,12.12,0,0,0,6.66-3.51,10.74,10.74,0,0,0,2.66-6.38A2.67,2.67,0,0,0,645.78,219Z"></path></g><path d="M646,217.74c-.41-.2-5.7-2.36-5.7-2.36L633.46,214l6.54-.26,5.71,1.59s2.28.26,1.77-1.66-7.47-4-7.47-4l-8.88-.61s6.86-1,7.57-3.12a3.28,3.28,0,0,0-.51-3.33,54.78,54.78,0,0,1-7.17,2.32,45.34,45.34,0,0,0-8.88,2.82,61.31,61.31,0,0,0-5.92,2.73l-3.77,13.12s6.26,3.94,13.32,3.74,13.33,2.08,14.24,1.44,1-1.74,0-2.25a33.81,33.81,0,0,0-5.29-1.11L631,223.9s12.62,1.11,13.63.6,2-1.21,1.62-2.32a1.6,1.6,0,0,0-1.42-1.11s2.73.1,2.63-1A3.47,3.47,0,0,0,646,217.74Z" style="fill:#ae7461"></path><path d="M631.35,219.08a15.1,15.1,0,0,0,2.12.16c1.31.08,3.11.23,5.08.53s3.74.69,5,1a17.42,17.42,0,0,0,2.07.48,8.89,8.89,0,0,0-2-.74,37,37,0,0,0-5-1.11,37.57,37.57,0,0,0-5.13-.43A9.35,9.35,0,0,0,631.35,219.08Z" style="fill:#6f4439"></path><path d="M594,205.56l-1.63-34.72L588.73,155l-12.9,35.55-4.35,15.93c-3.22,15.08,9.22,20.8,14.51,20.61l27.63,1,2.6-17.63Z" style="fill:#353935"></path><path d="M593.59,205,592,169.87" style="fill:#353935"></path><path d="M592,169.87c.14,0,.61,7.85,1,17.56s.66,17.57.52,17.58-.61-7.85-1-17.56S591.88,169.87,592,169.87Z" style="fill:#263238"></path><path d="M584.57,227a3.42,3.42,0,0,1,.56,0l1.61,0,6,.16,20.86.69-.26.22c.53-3.87,1.1-8.07,1.69-12.42.27-1.92.53-3.81.77-5.6l.2.29c-5-1.14-9.63-2.17-13.86-3.06-2.12-.44-4.12-.85-6-1.2a25.61,25.61,0,0,0-5.22-.56,13.22,13.22,0,0,0-7.18,1.87,10,10,0,0,0-2,1.8,4.09,4.09,0,0,1,.42-.58,7.88,7.88,0,0,1,1.53-1.38,13.23,13.23,0,0,1,7.28-2.06,25.94,25.94,0,0,1,5.29.51c1.88.33,3.89.72,6,1.15,4.24.86,8.92,1.88,13.88,3l.24,0,0,.24c-.24,1.79-.5,3.68-.76,5.6-.6,4.35-1.18,8.55-1.71,12.41l0,.23h-.23l-20.85-.88-6-.31-1.6-.1A2.73,2.73,0,0,1,584.57,227Z" style="fill:#263238"></path><path d="M626.28,191.57a29.82,29.82,0,0,1,3.29,11.9" style="fill:#353935"></path><path d="M629.57,203.47c-.16,0-.36-2.77-1.28-6.05s-2.15-5.78-2-5.85a16.84,16.84,0,0,1,2.52,5.71A17.26,17.26,0,0,1,629.57,203.47Z" style="fill:#263238"></path><g style="opacity:0.30000000000000004"><path d="M593.31,205a30.47,30.47,0,0,0-6.51-1.45,10.83,10.83,0,0,0-6.43,1.31,3.71,3.71,0,0,0-1.51,1.53,1.77,1.77,0,0,0,.31,2,1.9,1.9,0,0,0,1.85.25,7.47,7.47,0,0,0,1.7-1,14.3,14.3,0,0,1,10-2.08"></path></g></g><g id="freepik--character-1--inject-354"><path d="M102.21,98.2c-1.37-3-5.39-4-8.57-3.11a10.69,10.69,0,0,0-6.59,5.63c-1.35,2.88-1.34,6.18-1.41,9.36-.24,10.6-1.75,21.14-2.33,31.73s-.19,21.42,3.22,31.46l19-1.42,7.08-3.22Z" style="fill:#263238"></path><path d="M140.68,102.63a13.12,13.12,0,0,0-4.61-4.34c-3-1.58-5.63-3.79-8.66-5.32a23.24,23.24,0,0,0-23.72,2.21,25.7,25.7,0,0,0-10,21.87,28.73,28.73,0,0,0,11.85,21.17l32.73-8c2-5.54,2.94-10.86,3.59-17.58C142.09,110.29,141.73,104.16,140.68,102.63Z" style="fill:#263238"></path><path d="M101.58,114.1a12.13,12.13,0,0,1,9.14-11.18l16.37-4.18c7.08-.77,11.81,7.94,12.27,15.05.52,7.89.83,16.22-.09,22.11-1.85,11.85-10.93,13.37-10.93,13.37v9.1l.16,15-23.31-16.76-3.65-42.41C101.53,114,101.56,114.37,101.58,114.1Z" style="fill:#ffbf9d"></path><path d="M136.72,123a1.52,1.52,0,0,1-1.47,1.53,1.44,1.44,0,0,1-1.56-1.36,1.52,1.52,0,0,1,1.46-1.54A1.46,1.46,0,0,1,136.72,123Z" style="fill:#263238"></path><path d="M137.34,118.66c-.19.2-1.34-.65-3-.64s-2.83.83-3,.63.11-.45.63-.83a4.18,4.18,0,0,1,2.41-.75,4,4,0,0,1,2.36.76C137.26,118.21,137.43,118.57,137.34,118.66Z" style="fill:#263238"></path><path d="M122.21,123.31a1.52,1.52,0,0,1-1.46,1.54,1.47,1.47,0,0,1-1.57-1.37,1.53,1.53,0,0,1,1.46-1.54A1.46,1.46,0,0,1,122.21,123.31Z" style="fill:#263238"></path><path d="M122.14,119c-.19.19-1.35-.65-3-.65s-2.83.83-3,.63.1-.44.63-.83a4.1,4.1,0,0,1,2.4-.74,3.92,3.92,0,0,1,2.37.76C122.05,118.52,122.23,118.88,122.14,119Z" style="fill:#263238"></path><path d="M127.17,131.26a10.9,10.9,0,0,1,2.65-.48c.42-.05.82-.13.89-.42a2.13,2.13,0,0,0-.29-1.23c-.39-1-.8-2.07-1.24-3.18-1.72-4.52-3-8.24-2.79-8.3s1.73,3.54,3.46,8.06L131,128.9a2.43,2.43,0,0,1,.23,1.64,1.06,1.06,0,0,1-.69.61,2.81,2.81,0,0,1-.71.1A10.42,10.42,0,0,1,127.17,131.26Z" style="fill:#263238"></path><path d="M112.63,145.06s3.86,8.13,15.71,7v-2.79A29.79,29.79,0,0,1,112.63,145.06Z" style="fill:#ff9a6c"></path><path d="M121.55,112.52c-.16.44-1.79.24-3.71.47s-3.47.76-3.72.37c-.12-.19.15-.61.78-1a6,6,0,0,1,2.75-1,6.38,6.38,0,0,1,2.91.34C121.26,112,121.62,112.31,121.55,112.52Z" style="fill:#263238"></path><path d="M135.62,112.75c-.29.37-1.42,0-2.77,0s-2.5.26-2.76-.13c-.12-.19.06-.56.56-.91a3.88,3.88,0,0,1,2.25-.62,3.84,3.84,0,0,1,2.21.75C135.59,112.19,135.74,112.57,135.62,112.75Z" style="fill:#263238"></path><path d="M103.2,122.68c-.12-.34-6.3-2.57-6.38,4-.08,6.38,6.35,5.12,6.37,4.94S103.2,122.68,103.2,122.68Z" style="fill:#ffbf9d"></path><path d="M101.24,129.19s-.11.07-.3.16a1.16,1.16,0,0,1-.83,0,2.76,2.76,0,0,1-1.25-2.48,3.71,3.71,0,0,1,.33-1.59,1.27,1.27,0,0,1,.84-.85.56.56,0,0,1,.65.31c.09.18,0,.31.08.32s.14-.1.09-.37a.74.74,0,0,0-.25-.4.84.84,0,0,0-.61-.17,1.55,1.55,0,0,0-1.17,1,3.65,3.65,0,0,0-.4,1.78,2.88,2.88,0,0,0,1.59,2.77,1.23,1.23,0,0,0,1-.16C101.23,129.34,101.26,129.2,101.24,129.19Z" style="fill:#ff9a6c"></path><path d="M100.52,130.31a1.29,1.29,0,1,0,.29.1" style="fill:#fff"></path><path d="M100.81,130.41a1.68,1.68,0,0,1,.58.86,1.1,1.1,0,0,1-.25,1,1.22,1.22,0,0,1-1.19.34,1.16,1.16,0,0,1-.77-1,1.1,1.1,0,0,1,.37-1,1.79,1.79,0,0,1,1-.37.55.55,0,0,0-.3-.07,1.35,1.35,0,0,0-.8.28,1.27,1.27,0,0,0-.51,1.15,1.37,1.37,0,0,0,2.43.78,1.31,1.31,0,0,0,.25-1.24,1.39,1.39,0,0,0-.49-.69C100.93,130.41,100.82,130.39,100.81,130.41Z" style="fill:#263238"></path><path d="M130.17,97.84a2.62,2.62,0,0,0-2.13-1,33.86,33.86,0,0,0-30,12.94l1.82,11c-.77,1.38,2.85,4.13,4.42,4a4.25,4.25,0,0,0,3.36-2.95c1.09-2.88.47-6.56,2.72-8.67,1.26-1.18,3.09-1.48,4.79-1.85a24.54,24.54,0,0,0,9.08-3.84,15.86,15.86,0,0,0,5.93-7.75A2.41,2.41,0,0,0,130.17,97.84Z" style="fill:#263238"></path><path d="M96.38,126.16a5,5,0,0,1-.62-1.15,21.47,21.47,0,0,1-1.21-3.37,24.72,24.72,0,0,1,4.82-22.31,22.36,22.36,0,0,1,2.49-2.57,6,6,0,0,1,1-.8c.07.08-1.4,1.24-3.24,3.6a25.61,25.61,0,0,0-4.75,22C95.61,124.45,96.47,126.12,96.38,126.16Z" style="fill:#455a64"></path><path d="M126.38,93.34c0-.06.45,0,1.06.38a5.42,5.42,0,0,1,1.9,2,5.36,5.36,0,0,1,.73,2.63c0,.7-.16,1.12-.22,1.11a9.54,9.54,0,0,0-1-3.48A10,10,0,0,0,126.38,93.34Z" style="fill:#455a64"></path><path d="M125.87,134.31l-.09-.21L122.52,133a1.82,1.82,0,0,0-.92-.13,1.32,1.32,0,0,0-.77.6,2.52,2.52,0,0,0,.35,3.08,2.91,2.91,0,0,0,3.23.5A2.66,2.66,0,0,0,125.87,134.31Z" style="fill:#ff9a6c"></path><polygon points="104.07 419.65 107.82 452.03 122.01 449.87 122.97 417.96 104.07 419.65" style="fill:#ffbf9d"></polygon><path d="M122.06,443.45s-9.52,8.08-14.83,2.14l-1,3.16L102,471a2.94,2.94,0,0,0,1.85,3.38,2.73,2.73,0,0,0,2.88-.8c3.85-4.35,17.92-20.39,17.63-22.4l-.44-5.35a2.7,2.7,0,0,0-1.87-2.37Z" style="fill:#455a64"></path><g style="opacity:0.6000000000000001"><path d="M104.37,474.47l19.87-25.16.08,1.17a3.32,3.32,0,0,1-.84,2.66c-1.57,2.54-6,8.29-16.66,20.42a2.7,2.7,0,0,1-2.45.91Z" style="fill:#fff"></path></g><g style="opacity:0.6000000000000001"><path d="M120.84,446.07a1.76,1.76,0,0,0-.31,2.27,1.59,1.59,0,0,0,2.2.32,1.84,1.84,0,0,0,.31-2.4,1.64,1.64,0,0,0-2.32-.08" style="fill:#fff"></path></g><path d="M109.72,462a8.38,8.38,0,0,0-2.5-2,8.33,8.33,0,0,0-3.15-.38c0-.07.3-.3.93-.44a4.17,4.17,0,0,1,2.44.26,4.29,4.29,0,0,1,1.93,1.56C109.72,461.53,109.79,461.93,109.72,462Z" style="fill:#263238"></path><path d="M108.05,465.8a21.55,21.55,0,0,0-2.47-1,19.45,19.45,0,0,0-2.65-.15c-.09-.14,1.17-.82,2.78-.44S108.19,465.71,108.05,465.8Z" style="fill:#263238"></path><path d="M113,457c-.11.14-1.53-1.15-3.7-1.82s-4-.48-4.06-.66a6,6,0,0,1,4.24.08C111.78,455.29,113.11,456.87,113,457Z" style="fill:#263238"></path><path d="M113,450.29c-.06.17-1.59-.36-3.53-.29s-3.45.67-3.52.5a5.28,5.28,0,0,1,3.5-1.1C111.53,449.33,113.07,450.15,113,450.29Z" style="fill:#263238"></path><path d="M108.35,450a2.2,2.2,0,0,1,.08-1,7.36,7.36,0,0,1,1.11-2.64,3.16,3.16,0,0,1,1.51-1.38,1.1,1.1,0,0,1,1.22.39,1.92,1.92,0,0,1,.28,1.29,4,4,0,0,1-3.81,3.31,4.53,4.53,0,0,1-4.17-2.92,1.66,1.66,0,0,1,.08-1.34,1.07,1.07,0,0,1,1.2-.46,3.86,3.86,0,0,1,1.66,1.14,8.17,8.17,0,0,1,1.6,2.34,2.68,2.68,0,0,1,.31,1,13,13,0,0,0-2.2-3,3.65,3.65,0,0,0-1.47-1,.59.59,0,0,0-.66.25,1.13,1.13,0,0,0,0,.89,4,4,0,0,0,3.64,2.48,3.44,3.44,0,0,0,3.28-2.76,1.4,1.4,0,0,0-.16-.91.6.6,0,0,0-.67-.22,2.81,2.81,0,0,0-1.3,1.14A10.61,10.61,0,0,0,108.35,450Z" style="fill:#263238"></path><path d="M160.29,445.16c-.33-.5-3.3-11.33-3.3-11.33l18.37-5,2.6,15.61Z" style="fill:#ffbf9d"></path><path d="M177.8,441.37l0,1.25s20.22,8.24,20.48,12.24l-40,.3.46-14C164.75,444,171,444.31,177.8,441.37Z" style="fill:#455a64"></path><g style="opacity:0.6000000000000001"><path d="M162.87,445.62a1.71,1.71,0,0,0-1.11,2,1.56,1.56,0,0,0,1.84,1.18,1.82,1.82,0,0,0,1.17-2.09,1.61,1.61,0,0,0-2.05-1" style="fill:#fff"></path></g><g style="opacity:0.6000000000000001"><path d="M158.34,455.16l.11-3.37,38.25,1s1.79.8,1.6,2.11Z" style="fill:#fff"></path></g><path d="M178,442.74c0,.2-1,.3-1.94,1s-1.46,1.53-1.64,1.45.11-1.27,1.28-2.05S178,442.55,178,442.74Z" style="fill:#263238"></path><path d="M182.16,444.53c.05.19-.79.55-1.45,1.42s-.84,1.79-1,1.78-.32-1.16.51-2.23S182.16,444.33,182.16,444.53Z" style="fill:#263238"></path><path d="M184.58,449.78c-.18,0-.46-1,0-2.1s1.4-1.58,1.48-1.41-.47.77-.87,1.7S184.77,449.76,184.58,449.78Z" style="fill:#263238"></path><path d="M147.84,249.36s10.14,45.45,18.71,97.86c7,43.11,10.17,89.78,10.17,89.78L156,438.21s-12.64-53.45-22.49-91.89c-9.09-35.44-16.47-54-16.47-54l-4.16-46.78Z" style="fill:#263238"></path><path d="M90.57,240.31s-18.2,24.61-16.67,50.3C74.81,306,104.07,437,104.07,437h21.51l-7.1-140.15,6.24-47.49Z" style="fill:#263238"></path><path d="M146.45,174.08a4.21,4.21,0,0,1,.1.76c0,.56.09,1.29.16,2.19.15,1.91.25,4.67.31,8.09.13,6.84-.19,16.28-.87,26.68s-1.27,19.81-1.4,26.63c-.08,3.41-.11,6.17-.08,8.08v2.2a4.23,4.23,0,0,1,0,.77,3.51,3.51,0,0,1-.08-.76c0-.57-.07-1.3-.11-2.2-.1-1.91-.14-4.68-.11-8.09,0-6.84.54-16.27,1.22-26.67s1.07-19.81,1-26.64c0-3.41,0-6.17-.12-8.08,0-.9,0-1.63,0-2.19A3.46,3.46,0,0,1,146.45,174.08Z" style="fill:#263238"></path><path d="M207.45,175.42l-11.1,4.07-12.13,16.42,3.31,5.74,3.28-3.08s12.48-2.32,13.38-4.1a3.44,3.44,0,0,0-.13-3.3,7.66,7.66,0,0,0,.1-3.46,2.25,2.25,0,0,0-1.57-1.73,1.72,1.72,0,0,0,.79-2.31,3,3,0,0,0-1.8-2.08s7.44-3.54,8.1-4.54a.81.81,0,0,0-.07-1A1.85,1.85,0,0,0,207.45,175.42Z" style="fill:#ffbf9d"></path><path d="M182.31,192.48l2.25-3.14,4.84-8.78,10.79-2.91s1.82.85-.69,4.07a6.52,6.52,0,0,1-6,2.56s.77,7-1.14,10.13-7.05,3.4-7.05,3.4Z" style="fill:#ffbf9d"></path><path d="M192.46,194.91a2.82,2.82,0,0,0,.47-.69,11.13,11.13,0,0,0,.89-2.14,12.1,12.1,0,0,0-.3-7.65l-.17.31.38-.06a13,13,0,0,0,4.08-1.19,5.47,5.47,0,0,0,2.46-2.55,4.07,4.07,0,0,0,.34-2.42,1.72,1.72,0,0,0-.33-.83s.1.31.16.86a4.1,4.1,0,0,1-.45,2.24,5.19,5.19,0,0,1-2.36,2.32,13.36,13.36,0,0,1-4,1.11l-.38.07-.28,0,.11.27a12.28,12.28,0,0,1,.41,7.39A23.61,23.61,0,0,1,192.46,194.91Z" style="fill:#ff9a6c"></path><path d="M202.3,186.33a9.25,9.25,0,0,0-1.11.4c-.7.26-1.74.6-3,1.09a10.42,10.42,0,0,0-2,1,2.24,2.24,0,0,0-.9,1,1.72,1.72,0,0,0,.21,1.48,2.69,2.69,0,0,0,1.14,1,2.45,2.45,0,0,0,1.51.09l.72-.13a4.55,4.55,0,0,0,.75-.17c.49-.14,1-.32,1.46-.51l1.28-.51-.14-.43a11.5,11.5,0,0,0-2.46,1.4l-1.08.74a11.65,11.65,0,0,0-1.07.71,1.61,1.61,0,0,0-.61,1.21,1.07,1.07,0,0,0,.23.67,1.29,1.29,0,0,0,.51.37,4.66,4.66,0,0,0,2,.28,9.34,9.34,0,0,0,2.79-.75,4,4,0,0,0,1-.46,5.72,5.72,0,0,0-1,.3,10.4,10.4,0,0,1-2.76.59,4.32,4.32,0,0,1-1.87-.3.75.75,0,0,1-.51-.7,1.24,1.24,0,0,1,.49-.89,11.55,11.55,0,0,1,1-.66l1.1-.74a11.26,11.26,0,0,1,2.37-1.33l-.14-.44-1.3.51c-.47.18-1,.36-1.42.5a4.56,4.56,0,0,1-.69.16l-.73.13a2,2,0,0,1-1.28,0,2.14,2.14,0,0,1-1-.8,1.21,1.21,0,0,1-.18-1.09,1.85,1.85,0,0,1,.73-.84,10.62,10.62,0,0,1,1.93-1c1.24-.52,2.26-.91,2.95-1.22A4,4,0,0,0,202.3,186.33Z" style="fill:#ff9a6c"></path><path d="M201.46,181.68a7.52,7.52,0,0,0-2.29.8,18.06,18.06,0,0,0-2.31,1.32c-.42.29-.84.6-1.27.95a2.32,2.32,0,0,0-1,1.51,1.25,1.25,0,0,0,.39,1,1.74,1.74,0,0,0,.84.41,5.67,5.67,0,0,0,1.6,0,20.34,20.34,0,0,0,2.58-.56,6.88,6.88,0,0,0,2.25-.91c0-.05-.88.27-2.33.59a24.48,24.48,0,0,1-2.55.45,5.17,5.17,0,0,1-1.47,0,1,1,0,0,1-.87-.9,2.07,2.07,0,0,1,.87-1.19c.41-.34.82-.66,1.22-.94a22.15,22.15,0,0,1,2.22-1.38C200.61,182.07,201.48,181.75,201.46,181.68Z" style="fill:#ff9a6c"></path><path d="M161.78,201.6l-11.14-35.71A10.24,10.24,0,0,0,144,159.1l-6.8-1.54,7.52,57.95,1.69,4.35c4,8.87,12.68,7.37,20.36,3.45.28-.14.55-.28.81-.43L190,204.78l-7.43-13.39Z" style="fill:#455a64"></path><path d="M159.3,211.79c.13,0,.18-2.38.94-5.17s1.88-4.86,1.76-4.93a12.68,12.68,0,0,0-2.19,4.81A13.14,13.14,0,0,0,159.3,211.79Z" style="fill:#263238"></path><path d="M91.91,176.07l7.53,70.22,41.68,3.07,3.32-2.84-1.16-53-15-37.76h0c-1.78,3.38-5.19,4.52-9.3,4.21a15.32,15.32,0,0,1-7.75-2.95l-6.89-5Z" style="fill:#fff"></path><path d="M104.46,148.42l-6.67,7.31-22.35,7.54,14,67.49L78.77,256.88A65.8,65.8,0,0,0,76,265.33L69.43,291s22.55,6.14,28.36,2.79,12.89-35.93,15-43.67,5.37-30.73,3.87-43-4.09-30.3-5.37-36.53S104.46,148.42,104.46,148.42Z" style="fill:#455a64"></path><path d="M75.44,163.27s-5.86,7.66-7.52,15c-2.81,12.44-13.66,46.39-13,54.34S97.57,255,97.57,255l1.72-22.13-19.55-10.3,5.37-20.86" style="fill:#455a64"></path><path d="M85.11,201.72a2.56,2.56,0,0,1-.07.36c-.06.26-.14.61-.25,1.07-.24.95-.57,2.33-1,4.1l-3.87,15.37-.08-.2L99.4,232.67l.13.07v.16c-.51,6.72-1.08,14.2-1.69,22.13l0,.34-.32-.11c-8.24-2.9-17.1-6.28-26-10.42-2.93-1.39-5.81-2.81-8.55-4.41s-5.44-3.26-7.39-5.77a5.59,5.59,0,0,1-.61-1,2.36,2.36,0,0,1-.17-.59,1.86,1.86,0,0,1-.09-.6,17.56,17.56,0,0,1,.09-2.3c.12-1.51.4-3,.64-4.43.57-2.89,1.19-5.71,1.87-8.43,2.71-10.91,5.58-20.61,7.84-28.8,1.14-4.09,2.1-7.8,2.91-11.08a36.55,36.55,0,0,1,3.39-8,50.48,50.48,0,0,1,2.91-4.64c.36-.51.64-.9.84-1.15a2.74,2.74,0,0,1,.31-.37l-.27.4-.79,1.18c-.68,1.05-1.69,2.59-2.81,4.68a36.68,36.68,0,0,0-3.28,7.95c-.78,3.27-1.72,7-2.84,11.11-2.21,8.2-5,17.91-7.72,28.81-.67,2.72-1.29,5.53-1.85,8.41-.23,1.44-.5,2.9-.62,4.38a16.33,16.33,0,0,0-.08,2.21,3.38,3.38,0,0,0,.77,1.95c1.82,2.35,4.56,4,7.23,5.61s5.58,3,8.51,4.38c8.9,4.13,17.76,7.52,26,10.42l-.35.23c.63-7.93,1.22-15.41,1.75-22.13l.12.22L79.66,222.73l-.12-.07,0-.13c1.71-6.52,3.07-11.73,4-15.32.47-1.77.84-3.13,1.1-4.09l.29-1.05A1.63,1.63,0,0,1,85.11,201.72Z" style="fill:#263238"></path><path d="M128.34,150.87l3.29,5.08,13.69,3.47s3.6,18,3.6,23-2,59.73-2,62.31,9.89,37.6,9,39.75-11.18,3.66-11.18,3.66-3.86-30.3-3.86-40.62-.43-35.67-2.58-48.14S128.4,156,128.4,156Z" style="fill:#455a64"></path><path d="M141.1,253.26a.76.76,0,0,1,0-.26v-.75c0-.71,0-1.67,0-2.89,0-2.56.14-6.19.24-10.64.21-9,.57-21.4.79-35.1,0-1.72,0-3.41,0-5.08s-.17-3.28-.3-4.9c-.26-3.22-.51-6.33-.81-9.28s-.64-5.75-1.09-8.35a35.29,35.29,0,0,0-2-7,90.83,90.83,0,0,0-4.5-9.61c-.58-1.07-1-1.92-1.38-2.54l-.37-.66a.89.89,0,0,1-.1-.24,2.09,2.09,0,0,1,.15.21l.41.63c.35.56.86,1.4,1.48,2.49a81.84,81.84,0,0,1,4.67,9.58,35.24,35.24,0,0,1,2.09,7.07c.47,2.62.82,5.42,1.14,8.38s.58,6.07.85,9.29c.13,1.61.31,3.25.31,4.94s0,3.37,0,5.08c-.22,13.72-.64,26.13-.95,35.11-.18,4.45-.32,8.07-.42,10.63-.06,1.22-.11,2.19-.14,2.89,0,.31,0,.55-.06.76A.87.87,0,0,1,141.1,253.26Z" style="fill:#263238"></path><path d="M115.63,232.63a3.67,3.67,0,0,1-.13-.8c0-.53-.12-1.32-.18-2.33-.13-2-.25-4.95-.19-8.57q0-2.73.24-5.93a26.89,26.89,0,0,0-.81-6.65,112,112,0,0,0-4.94-14.7c-2.07-5.11-4.21-9.91-6.2-14.26a59.15,59.15,0,0,1-2.64-6.28,53.81,53.81,0,0,1-1.4-5.77c-.69-3.56-1.07-6.47-1.31-8.48-.12-1-.2-1.79-.25-2.32a4.13,4.13,0,0,1,0-.81,5.18,5.18,0,0,1,.14.8c.09.58.21,1.34.35,2.3.31,2,.74,4.9,1.48,8.43a54.45,54.45,0,0,0,1.45,5.71,60.79,60.79,0,0,0,2.67,6.21c2,4.34,4.17,9.14,6.25,14.27a109.49,109.49,0,0,1,4.93,14.79,27.12,27.12,0,0,1,.76,6.8c-.15,2.11-.25,4.09-.3,5.89-.11,3.62,0,6.54,0,8.56,0,1,.06,1.74.09,2.33A7.08,7.08,0,0,1,115.63,232.63Z" style="fill:#263238"></path><path d="M177.27,230.94,165.53,246.8a2.13,2.13,0,0,1-2.11.83L112.67,238a2.14,2.14,0,0,1-1.64-2.77l5.47-16.85a2.14,2.14,0,0,1,2.43-1.44l57,10.58A2.15,2.15,0,0,1,177.27,230.94Z" style="fill:#263238"></path><path d="M67.92,224a4.82,4.82,0,0,1,1.7-1.38,10.47,10.47,0,0,1,10.25-.14,4.83,4.83,0,0,1,1.74,1.34c0,.07-.72-.44-1.92-1a11.3,11.3,0,0,0-9.89.14C68.62,223.51,68,224,67.92,224Z" style="fill:#263238"></path><g style="opacity:0.30000000000000004"><polygon points="79.92 254.04 99.97 261.41 102.06 253.09 111.56 255.01 112.84 250.2 97.94 248.12 97.79 255.01 82.21 249.13 79.92 254.04"></polygon></g><path d="M99.15,234.65s4-3.39,5.26-4.15,5.44-3.54,7.35-3.25l1.91.28L112,232.6s15.38-2.3,17.48.19-2.29,3-4.59,3.24-9.65,1.53-9.65,1.53,19.2-2.1,20.54,0-1.86,2.58-1.86,2.58l-12.72,5.06-1.46.58-1.46,1.91s-5.23,3.63-6.85,3.15-13.45-2.73-13.45-2.73Z" style="fill:#ffbf9d"></path><path d="M112.51,243.33a15.05,15.05,0,0,1,3-.91,72.8,72.8,0,0,1,7.38-1.41,71.53,71.53,0,0,1,7.48-.67,14.51,14.51,0,0,1,3.12.06,20.85,20.85,0,0,1-3.09.33c-1.91.16-4.54.42-7.44.82s-5.49.88-7.37,1.25A20.13,20.13,0,0,1,112.51,243.33Z" style="fill:#ff9a6c"></path><path d="M114.26,247a7.72,7.72,0,0,1,2.75-1,7.8,7.8,0,0,1,2.89-.47,7.82,7.82,0,0,1-2.75,1A8.08,8.08,0,0,1,114.26,247Z" style="fill:#ff9a6c"></path><path d="M148.57,174.87a3.31,3.31,0,0,1,.09.71c0,.52.09,1.19.15,2,.14,1.76.23,4.31.29,7.47.12,6.31-.18,15-.81,24.65S147.12,228,147,234.34c-.07,3.15-.1,5.7-.07,7.46v2a3.51,3.51,0,0,1,0,.71,2.76,2.76,0,0,1-.07-.7c0-.52-.06-1.2-.11-2-.08-1.77-.12-4.32-.1-7.48,0-6.32.51-15,1.13-24.64s1-18.3,1-24.61c0-3.15,0-5.7-.11-7.46,0-.84,0-1.51,0-2A3.91,3.91,0,0,1,148.57,174.87Z" style="fill:#263238"></path><path d="M86.64,199.52a6.58,6.58,0,0,1-.09-1.41c0-.91-.07-2.23-.18-3.84a67.65,67.65,0,0,0-2.07-12.48A68,68,0,0,0,79.87,170c-.71-1.46-1.32-2.63-1.76-3.42a7,7,0,0,1-.63-1.27,6.83,6.83,0,0,1,.81,1.16c.5.77,1.17,1.91,1.92,3.35a58.83,58.83,0,0,1,4.62,11.88,59.15,59.15,0,0,1,1.93,12.6c.06,1.63.06,2.95,0,3.86A6.68,6.68,0,0,1,86.64,199.52Z" style="fill:#263238"></path><path d="M125.09,136.9c.06,0-.57.61-1.79.56a3.13,3.13,0,0,1-2-.73,3.07,3.07,0,0,1-.92-2.42,4.37,4.37,0,0,1,.07-.7,2.39,2.39,0,0,1,.29-.65,1.77,1.77,0,0,1,.14-.17.6.6,0,0,1,.24-.12.71.71,0,0,1,.41,0c.24.06.4.12.58.18l1.9.68a7.37,7.37,0,0,1,1.7.74,6.39,6.39,0,0,1-1.82-.39l-1.93-.57-.53-.16a.53.53,0,0,0-.18,0h0s-.09-.14,0-.07l0,.06s0,0,0,0l-.06.07a2.05,2.05,0,0,0-.22.5,4.65,4.65,0,0,0,0,.58,2.69,2.69,0,0,0,.73,2.06,2.89,2.89,0,0,0,1.68.71A4.61,4.61,0,0,0,125.09,136.9Z" style="fill:#263238"></path></g></svg>
