<svg xmlns="http://www.w3.org/2000/svg" width="384pt" height="384pt" viewBox="0 0 384 384" version="1.1" class="iconadda">
<g>
<g id="Planet_free_icon_vG1UMUB-0"><path style="fill:none;stroke-width:30;stroke-linecap:butt;stroke-linejoin:miter;stroke:rgb(0%,0%,0%);stroke-opacity:1;stroke-miterlimit:10;" d="M 354.364583 131.369792 C 390.067708 154.161458 418.052083 189.411458 431.078125 233.192708 C 459.854167 329.885417 404.791667 431.598958 308.09375 460.375 C 211.401042 489.151042 109.682292 434.088542 80.911458 337.395833 C 52.135417 240.703125 107.197917 138.989583 203.895833 110.213542 C 223.598958 104.348958 243.505208 101.96875 262.963542 102.708333 " transform="matrix(0.75,0,0,0.75,0,0)" />
</g><g id="Planet_free_icon_vG1UMUB-1"><path style="fill:none;stroke-width:30;stroke-linecap:butt;stroke-linejoin:miter;stroke:rgb(0%,0%,0%);stroke-opacity:1;stroke-miterlimit:10;" d="M 401.71875 175.0625 C 452.869792 176.572917 488.463542 189.75 495.677083 213.973958 C 509.520833 260.5 413.442708 330.145833 281.072917 369.536458 C 148.703125 408.927083 30.177083 403.140625 16.333333 356.614583 C 9.125 332.385417 31.723958 301.890625 73.729167 272.661458 M 343.5625 244.729167 L 313.5625 244.729167 " transform="matrix(0.75,0,0,0.75,0,0)" />
</g><g id="Planet_free_icon_vG1UMUB-2"><path style="fill:none;stroke-width:30;stroke-linecap:butt;stroke-linejoin:miter;stroke:rgb(0%,0%,0%);stroke-opacity:1;stroke-miterlimit:10;" d="M 251.802813 264.854077 C 251.803914 292.765594 229.178122 315.391904 201.266605 315.393004 C 173.355088 315.394104 150.728778 292.768313 150.727678 264.856796 C 150.73139 236.947272 173.357181 214.320962 201.268698 214.319862 C 229.180215 214.318762 251.806525 236.944553 251.802813 264.854077 " transform="matrix(0.69291,-0.287013,0.287013,0.69291,-64.5243,72.883441)" />
</g><g id="Planet_free_icon_vG1UMUB-3"><path style="fill:none;stroke-width:30;stroke-linecap:butt;stroke-linejoin:bevel;stroke:rgb(0%,0%,0%);stroke-opacity:1;stroke-miterlimit:10;" d="M 261.890625 102.0625 C 291.166667 88.234375 314.734375 64.671875 328.5625 35.390625 C 342.385417 64.671875 365.953125 88.234375 395.229167 102.0625 C 365.953125 115.885417 342.385417 139.453125 328.5625 168.729167 C 314.734375 139.453125 291.166667 115.885417 261.890625 102.0625 Z M 261.890625 102.0625 " transform="matrix(0.75,0,0,0.75,0,0)" />
</g></g>
</svg>