<svg xmlns="http://www.w3.org/2000/svg" width="384pt" height="384pt" viewBox="0 0 384 384" version="1.1" class="iconadda">
<g>
<g id="Search_free_icon_hpNTJon-0"><path style="fill:none;stroke-width:30;stroke-linecap:round;stroke-linejoin:round;stroke:rgb(0%,0%,0%);stroke-opacity:1;stroke-miterlimit:10;" d="M -0.00250404 0.00188144 C 0.00791265 17.038391 -6.752524 33.387398 -18.799435 45.444726 C -30.861971 57.496845 -47.216187 64.26249 -64.268321 64.267698 L -192.799955 64.267698 L -192.799955 -257.066595 L -64.268321 -257.066595 C -28.757798 -257.066595 -0.00250404 -285.832306 -0.00250404 -321.316787 L -0.00250404 -321.332412 Z M -0.00250404 0.00188144 " transform="matrix(0.749998,0,0,-0.749998,155.849534,89.57563)" />
</g><g id="Search_free_icon_hpNTJon-1"><path style="fill:none;stroke-width:30;stroke-linecap:round;stroke-linejoin:round;stroke:rgb(0%,0%,0%);stroke-opacity:1;stroke-miterlimit:10;" d="M -0.00113813 0.00188144 L 64.264679 0.00188144 " transform="matrix(0.749998,0,0,-0.749998,59.450072,89.57563)" />
</g><g id="Search_free_icon_hpNTJon-2"><path style="fill:none;stroke-width:30;stroke-linecap:round;stroke-linejoin:round;stroke:rgb(0%,0%,0%);stroke-opacity:1;stroke-miterlimit:10;" d="M 0.00152135 0.00188144 L 64.267338 0.00188144 " transform="matrix(0.749998,0,0,-0.749998,204.04964,89.57563)" />
</g><g id="Search_free_icon_hpNTJon-3"><path style="fill:none;stroke-width:30;stroke-linecap:round;stroke-linejoin:round;stroke:rgb(0%,0%,0%);stroke-opacity:1;stroke-miterlimit:10;" d="M -0.00113813 -0.00214395 L 48.196923 -0.00214395 " transform="matrix(0.749998,0,0,-0.749998,59.450072,137.775736)" />
</g><g id="Search_free_icon_hpNTJon-4"><path style="fill:none;stroke-width:30;stroke-linecap:round;stroke-linejoin:round;stroke:rgb(0%,0%,0%);stroke-opacity:1;stroke-miterlimit:10;" d="M 0.00152135 -0.00214395 L 48.199582 -0.00214395 " transform="matrix(0.749998,0,0,-0.749998,204.04964,137.775736)" />
</g><g id="Search_free_icon_hpNTJon-5"><path style="fill:none;stroke-width:30;stroke-linecap:round;stroke-linejoin:round;stroke:rgb(0%,0%,0%);stroke-opacity:1;stroke-miterlimit:10;" d="M -0.00113813 -0.000960998 L 64.264679 -0.000960998 " transform="matrix(0.749998,0,0,-0.749998,59.450072,185.975842)" />
</g><g id="Search_free_icon_hpNTJon-6"><path style="fill:none;stroke-width:30;stroke-linecap:round;stroke-linejoin:round;stroke:rgb(0%,0%,0%);stroke-opacity:1;stroke-miterlimit:10;" d="M -0.00113813 -0.000778043 L 48.196923 -0.000778043 " transform="matrix(0.749998,0,0,-0.749998,59.450072,234.175198)" />
</g><g id="Search_free_icon_hpNTJon-7"><path style="fill:none;stroke-width:30;stroke-linecap:round;stroke-linejoin:round;stroke:rgb(0%,0%,0%);stroke-opacity:1;stroke-miterlimit:10;" d="M 0.00055551 -0.000197066 L 74.068485 -74.094168 " transform="matrix(0.749998,0,0,-0.749998,317.198802,287.05454)" />
</g><g id="Search_free_icon_hpNTJon-8"><path style="fill:none;stroke-width:30;stroke-linecap:round;stroke-linejoin:round;stroke:rgb(0%,0%,0%);stroke-opacity:1;stroke-miterlimit:10;" d="M -0.00250404 0.00158787 L -0.00250404 321.335881 L -0.00250404 321.330673 C -0.00771239 338.372391 6.752724 354.721398 18.799635 366.778726 C 30.862172 378.830845 47.216387 385.59649 64.268521 385.601698 L 192.800155 385.601698 L 192.800155 199.215725 C 180.748036 205.38241 167.091745 208.866795 152.633369 208.866795 C 103.872806 208.866795 64.268521 169.272927 64.268521 120.501948 C 64.268521 99.147717 71.898752 79.548701 84.513374 64.267405 L 64.268521 64.267405 C 28.757999 64.267405 -0.00250404 35.501694 -0.00250404 0.0172129 Z M -0.00250404 0.00158787 " transform="matrix(0.749998,0,0,-0.749998,155.849534,330.57541)" />
</g><g id="Search_free_icon_hpNTJon-9"><path style="fill:none;stroke-width:30;stroke-linecap:round;stroke-linejoin:round;stroke:rgb(0%,0%,0%);stroke-opacity:1;stroke-miterlimit:10;" d="M 0.000368742 -0.00020465 C 48.760931 -0.00020465 88.365216 -39.594073 88.365216 -88.365052 C 88.365216 -137.136031 48.760931 -176.729899 0.000368742 -176.729899 C -48.760194 -176.729899 -88.364479 -137.136031 -88.364479 -88.365052 C -88.364479 -39.594073 -48.760194 -0.00020465 0.000368742 -0.00020465 Z M 0.000368742 -0.00020465 " transform="matrix(0.749998,0,0,-0.749998,270.323942,173.925628)" />
</g></g>
</svg>