<svg xmlns="http://www.w3.org/2000/svg" viewBox="0 0 500 500"><g id="freepik--Gears--inject-19"><path id="freepik--Gear--inject-19" d="M233.53,65.23l0,0a14.26,14.26,0,0,1,1.34,1.8,14.48,14.48,0,0,1,1,2,.72.72,0,0,1-.28.89l-1.59,1a11.58,11.58,0,0,1,.51,3l1.82.42a.71.71,0,0,1,.56.74,13.62,13.62,0,0,1-1,4.36.74.74,0,0,1-.83.43l-1.83-.42a11.19,11.19,0,0,1-1.77,2.48l1,1.59a.72.72,0,0,1-.13.92,13.21,13.21,0,0,1-1.8,1.35,13.38,13.38,0,0,1-2,1,.7.7,0,0,1-.88-.28l-1-1.59a11.79,11.79,0,0,1-3,.51l-.42,1.83a.71.71,0,0,1-.74.55,13.32,13.32,0,0,1-4.36-1,.71.71,0,0,1-.42-.82l.41-1.83a10.87,10.87,0,0,1-2.48-1.77l-1.59,1a.7.7,0,0,1-.92-.13,12.75,12.75,0,0,1-1.34-1.8,12.59,12.59,0,0,1-1-2,.72.72,0,0,1,.29-.88l1.59-1a10.91,10.91,0,0,1-.51-3l-1.83-.42a.72.72,0,0,1-.56-.74,13.7,13.7,0,0,1,1-4.36.71.71,0,0,1,.82-.42l1.83.42a11.25,11.25,0,0,1,1.77-2.49l-1-1.59a.72.72,0,0,1,.12-.92,14.26,14.26,0,0,1,1.8-1.34,14,14,0,0,1,2-1A.71.71,0,0,1,219,62h0l1,1.59a10.91,10.91,0,0,1,3-.51l.42-1.83a.7.7,0,0,1,.74-.55,13.36,13.36,0,0,1,4.37,1,.72.72,0,0,1,.42.83l-.42,1.82A11.33,11.33,0,0,1,231,66.12l1.6-1A.71.71,0,0,1,233.53,65.23Zm.45,9.21a.33.33,0,0,1-.1-.23,10.24,10.24,0,0,0-.56-3.32.33.33,0,0,1,.14-.4l1.82-1.14a10,10,0,0,0-1-1.94A13.53,13.53,0,0,0,233,65.7l-1.87,1.14a.33.33,0,0,1-.42,0,10.34,10.34,0,0,0-2.74-2,.34.34,0,0,1-.18-.38l.47-2.09a12,12,0,0,0-4.16-1l-.51,2.11a.35.35,0,0,1-.33.27,10.37,10.37,0,0,0-3.32.55.33.33,0,0,1-.4-.14l-1.14-1.81,0,0a13.17,13.17,0,0,0-1.9,1,12.85,12.85,0,0,0-1.71,1.27l1.14,1.86a.35.35,0,0,1-.05.42,10.48,10.48,0,0,0-1.95,2.75.34.34,0,0,1-.38.18l-2.09-.48a12.17,12.17,0,0,0-1,4.16l2.12.52a.33.33,0,0,1,.26.33,10.32,10.32,0,0,0,.57,3.31.35.35,0,0,1-.14.4l-1.82,1.14a10.3,10.3,0,0,0,1,1.94,13.85,13.85,0,0,0,1.28,1.71l1.86-1.14a.35.35,0,0,1,.42.05,10.32,10.32,0,0,0,2.75,1.95.35.35,0,0,1,.18.38l-.48,2.09a11.89,11.89,0,0,0,4.16,1l.51-2.11a.34.34,0,0,1,.33-.27,10.72,10.72,0,0,0,3.33-.56.33.33,0,0,1,.39.14l1.14,1.82a10.34,10.34,0,0,0,1.94-1,11.72,11.72,0,0,0,1.71-1.28l-1.14-1.86a.35.35,0,0,1,0-.42,10.6,10.6,0,0,0,2-2.74.34.34,0,0,1,.38-.18l2.09.47a11.89,11.89,0,0,0,1-4.16l-2.11-.51A.32.32,0,0,1,234,74.44Zm-5.93-4.75a6.58,6.58,0,0,1-3.52,11.06,6.21,6.21,0,0,1-5-1.15,6.6,6.6,0,0,1,2.7-11.8,6.25,6.25,0,0,1,5,1.16h0A6.38,6.38,0,0,1,228.05,69.69Zm-8.87,8.71a6.59,6.59,0,0,0,.73.66,5.58,5.58,0,0,0,4.48,1,5.92,5.92,0,0,0,2.43-10.6h0a5.57,5.57,0,0,0-4.48-1,5.9,5.9,0,0,0-3.16,9.93Z" style="fill:#e0e0e0"></path><path id="freepik--gear--inject-19" d="M444.87,107.43l0,0a14.85,14.85,0,0,1,1.56,2.08,15.86,15.86,0,0,1,1.2,2.31.84.84,0,0,1-.33,1L445.47,114a13,13,0,0,1,.6,3.48l2.11.49a.83.83,0,0,1,.65.85,15.79,15.79,0,0,1-1.16,5.06.83.83,0,0,1-.95.49l-2.13-.49a12.64,12.64,0,0,1-2,2.88l1.15,1.84a.82.82,0,0,1-.14,1.06,15.48,15.48,0,0,1-4.4,2.76.82.82,0,0,1-1-.33L437,130.28a12.89,12.89,0,0,1-3.49.59L433,133a.85.85,0,0,1-.86.65,15.94,15.94,0,0,1-5.06-1.16.84.84,0,0,1-.49-1l.49-2.12a12.46,12.46,0,0,1-2.88-2.05l-1.84,1.16a.82.82,0,0,1-1.07-.15,17,17,0,0,1-1.55-2.08,15.86,15.86,0,0,1-1.2-2.31.82.82,0,0,1,.33-1l1.84-1.16a12.75,12.75,0,0,1-.59-3.48l-2.11-.49a.83.83,0,0,1-.65-.85,15.78,15.78,0,0,1,1.15-5.06.84.84,0,0,1,1-.49l2.12.49a13,13,0,0,1,2.05-2.88l-1.16-1.84a.84.84,0,0,1,.15-1.07,16.13,16.13,0,0,1,4.39-2.75.83.83,0,0,1,1,.33h0l1.15,1.84a12.88,12.88,0,0,1,3.48-.59l.49-2.11a.82.82,0,0,1,.86-.65,15.66,15.66,0,0,1,5.05,1.15.83.83,0,0,1,.49,1l-.48,2.11a12.89,12.89,0,0,1,2.87,2.06l1.85-1.16A.83.83,0,0,1,444.87,107.43Zm.52,10.67a.39.39,0,0,1-.11-.27,12.15,12.15,0,0,0-.65-3.85.4.4,0,0,1,.16-.46l2.11-1.32a12.33,12.33,0,0,0-1.12-2.24,14,14,0,0,0-1.48-2l-2.16,1.32a.38.38,0,0,1-.48-.06,12.13,12.13,0,0,0-3.18-2.26.38.38,0,0,1-.21-.44l.55-2.42A13.75,13.75,0,0,0,434,103l-.6,2.45a.39.39,0,0,1-.38.3,12.23,12.23,0,0,0-3.84.65.39.39,0,0,1-.46-.16l-1.32-2.1a0,0,0,0,0,0,0,14.3,14.3,0,0,0-2.2,1.14,14.73,14.73,0,0,0-2,1.47l1.32,2.16a.41.41,0,0,1-.06.49,12.41,12.41,0,0,0-2.26,3.18.4.4,0,0,1-.44.21l-2.42-.56a13.86,13.86,0,0,0-1.14,4.82l2.45.6a.39.39,0,0,1,.3.38,11.87,11.87,0,0,0,.66,3.84.41.41,0,0,1-.16.47l-2.11,1.32a11.72,11.72,0,0,0,1.12,2.24,15.4,15.4,0,0,0,1.47,2l2.16-1.32a.39.39,0,0,1,.49,0,11.75,11.75,0,0,0,3.18,2.27.4.4,0,0,1,.21.44l-.56,2.42a14,14,0,0,0,4.82,1.15l.6-2.46a.4.4,0,0,1,.38-.3,12.25,12.25,0,0,0,3.85-.65.4.4,0,0,1,.46.16l1.32,2.1a11.13,11.13,0,0,0,2.24-1.11,15.23,15.23,0,0,0,2-1.48L441.72,127a.39.39,0,0,1,0-.49,12.1,12.1,0,0,0,2.26-3.18.4.4,0,0,1,.44-.21l2.42.56a14.1,14.1,0,0,0,1.15-4.82l-2.45-.6A.43.43,0,0,1,445.39,118.1Zm-6.86-5.5a7.62,7.62,0,0,1-4.08,12.81,7.2,7.2,0,0,1-5.83-1.33,7.64,7.64,0,0,1,3.13-13.67,7.17,7.17,0,0,1,5.83,1.34h0A8.59,8.59,0,0,1,438.53,112.6Zm-10.28,10.08a7,7,0,0,0,.85.77,6.39,6.39,0,0,0,5.19,1.19,6.85,6.85,0,0,0,2.81-12.27h0a6.41,6.41,0,0,0-5.18-1.19,6.93,6.93,0,0,0-5.45,5.21A6.85,6.85,0,0,0,428.25,122.68Z" style="fill:#e0e0e0"></path><path id="freepik--gear--inject-19" d="M189,70.66a5.12,5.12,0,0,0,4.09.94,5.41,5.41,0,0,0,4.24-4.08,5.32,5.32,0,0,0-.92-4.36,5.83,5.83,0,0,0-.46-.55,6.37,6.37,0,0,0-.66-.6,5.06,5.06,0,0,0-4.09-.93,5.36,5.36,0,0,0-2.2,9.58Zm2.34-8.94a4.39,4.39,0,0,1,3.55.81A4.71,4.71,0,0,1,193,71a4.38,4.38,0,0,1-3.55-.81,5,5,0,0,1-.59-.53,6.26,6.26,0,0,1-.41-.49,4.68,4.68,0,0,1,2.93-7.4Zm-6.48-3.61a.63.63,0,0,0-.11.81l.77,1.24a9.29,9.29,0,0,0-1.38,2l-1.43-.33a.62.62,0,0,0-.72.37,10.8,10.8,0,0,0-.81,3.53.63.63,0,0,0,.49.65l1.43.33a8.9,8.9,0,0,0,.4,2.35l-1.25.78a.63.63,0,0,0-.25.77,10.74,10.74,0,0,0,.84,1.61,11.38,11.38,0,0,0,1.08,1.45.62.62,0,0,0,.81.12L186,73a8.87,8.87,0,0,0,1.94,1.38l-.33,1.43a.62.62,0,0,0,.38.72,10.63,10.63,0,0,0,3.52.81.63.63,0,0,0,.65-.49l.33-1.43a9.32,9.32,0,0,0,2.35-.39l.78,1.24a.62.62,0,0,0,.77.25,11.25,11.25,0,0,0,1.62-.83,10.25,10.25,0,0,0,1.45-1.1.61.61,0,0,0,.11-.8l-.78-1.24a8.84,8.84,0,0,0,1.38-2l1.43.33a.64.64,0,0,0,.73-.37,11,11,0,0,0,.81-3.53.64.64,0,0,0-.5-.65L201.21,66a9,9,0,0,0-.4-2.35l1.24-.78a.61.61,0,0,0,.25-.77,11.68,11.68,0,0,0-.83-1.61c-.15-.24-.31-.47-.47-.69a9.48,9.48,0,0,0-.62-.77h0a.64.64,0,0,0-.8-.1l-1.24.78a9,9,0,0,0-1.94-1.38l.33-1.43a.65.65,0,0,0-.38-.73,10.93,10.93,0,0,0-3.52-.8.64.64,0,0,0-.66.49l-.32,1.43a9.32,9.32,0,0,0-2.35.39l-.78-1.24a.64.64,0,0,0-.78-.25,11.7,11.7,0,0,0-1.61.84A11.38,11.38,0,0,0,184.87,58.11Zm1.8-.52a9.68,9.68,0,0,1,1.5-.78l.9,1.44a.34.34,0,0,0,.38.14,8.57,8.57,0,0,1,2.65-.45.32.32,0,0,0,.32-.25l.4-1.66a9.55,9.55,0,0,1,3.24.77l-.37,1.63a.34.34,0,0,0,.18.37,8.35,8.35,0,0,1,2.19,1.56.32.32,0,0,0,.4,0l1.46-.9a10.31,10.31,0,0,1,1,1.34,8.82,8.82,0,0,1,.76,1.5l-1.43.89a.35.35,0,0,0-.14.39,8.3,8.3,0,0,1,.46,2.65.31.31,0,0,0,.09.22.34.34,0,0,0,.16.1l1.66.4a9.66,9.66,0,0,1-.77,3.24l-1.64-.38a.34.34,0,0,0-.37.18,8.45,8.45,0,0,1-1.55,2.19.33.33,0,0,0,0,.41l.89,1.45a10.75,10.75,0,0,1-1.33,1,8.15,8.15,0,0,1-1.51.75l-.89-1.42,0,0a.32.32,0,0,0-.36-.12,8.58,8.58,0,0,1-2.66.45.34.34,0,0,0-.32.26l-.4,1.66a9.92,9.92,0,0,1-3.24-.78l.38-1.63a.34.34,0,0,0-.18-.37,8.48,8.48,0,0,1-2.19-1.56.32.32,0,0,0-.4,0l-1.46.89a9.57,9.57,0,0,1-1-1.33,8.15,8.15,0,0,1-.76-1.5l1.43-.89a.33.33,0,0,0,.13-.39,8.47,8.47,0,0,1-.45-2.65.33.33,0,0,0-.25-.32l-1.66-.4a9.66,9.66,0,0,1,.77-3.24l1.63.38a.34.34,0,0,0,.37-.18,8.73,8.73,0,0,1,1.56-2.19.33.33,0,0,0,0-.41l-.89-1.45A9.57,9.57,0,0,1,186.67,57.59Z" style="fill:#e0e0e0"></path><path id="freepik--gear--inject-19" d="M47.47,58.21l0,0a15.66,15.66,0,0,1,2.16-1.45A14.7,14.7,0,0,1,52,55.66.82.82,0,0,1,53,56l1.07,1.9a12.65,12.65,0,0,1,3.51-.43l.59-2.08a.82.82,0,0,1,.88-.61,15.81,15.81,0,0,1,5,1.4.84.84,0,0,1,.45,1l-.59,2.1a13,13,0,0,1,2.77,2.18l1.9-1.06a.83.83,0,0,1,1,.2,15.45,15.45,0,0,1,1.46,2.16,15.82,15.82,0,0,1,1.08,2.37.82.82,0,0,1-.38,1l-1.9,1.06a13,13,0,0,1,.42,3.52l2.09.58a.85.85,0,0,1,.61.89,15.94,15.94,0,0,1-1.41,5,.83.83,0,0,1-1,.44L68.54,77a12.85,12.85,0,0,1-2.19,2.78l1.06,1.9a.8.8,0,0,1-.2,1,14.81,14.81,0,0,1-2.16,1.45,15.68,15.68,0,0,1-2.36,1.09.84.84,0,0,1-1-.38L60.62,83a12.93,12.93,0,0,1-3.51.42l-.59,2.09a.84.84,0,0,1-.88.6,15.81,15.81,0,0,1-5-1.4.83.83,0,0,1-.45-1l.6-2.09A13.17,13.17,0,0,1,48,79.48l-1.9,1.06a.82.82,0,0,1-1-.2,15.66,15.66,0,0,1-1.45-2.16,16.31,16.31,0,0,1-1.09-2.36.84.84,0,0,1,.38-1h0l1.9-1.06a13,13,0,0,1-.42-3.51l-2.09-.59a.83.83,0,0,1-.6-.89,15.67,15.67,0,0,1,1.4-5,.83.83,0,0,1,1-.44l2.09.59a13,13,0,0,1,2.19-2.78l-1.06-1.9A.82.82,0,0,1,47.47,58.21Zm10.68,0a.37.37,0,0,1-.27.09,12.22,12.22,0,0,0-3.88.47.4.4,0,0,1-.45-.19l-1.22-2.17a12,12,0,0,0-2.29,1,15.56,15.56,0,0,0-2,1.37L49.2,61a.38.38,0,0,1-.08.48,12.11,12.11,0,0,0-2.42,3.06.39.39,0,0,1-.45.19l-2.38-.67a13.86,13.86,0,0,0-1.39,4.76l2.42.71a.4.4,0,0,1,.29.4,12,12,0,0,0,.46,3.87.39.39,0,0,1-.19.45L43.3,75.5a0,0,0,0,0,0,0,14.79,14.79,0,0,0,1,2.25,15.56,15.56,0,0,0,1.37,2l2.22-1.21a.38.38,0,0,1,.48.08,12.39,12.39,0,0,0,3.07,2.41.4.4,0,0,1,.19.45L51,84a14,14,0,0,0,4.76,1.39l.72-2.42a.39.39,0,0,1,.39-.29,12.08,12.08,0,0,0,3.88-.46.38.38,0,0,1,.45.18l1.22,2.17a12.61,12.61,0,0,0,2.29-1,15.62,15.62,0,0,0,2-1.38l-1.21-2.23a.38.38,0,0,1,.08-.48A12.2,12.2,0,0,0,68,76.39a.39.39,0,0,1,.45-.19l2.38.67a13.81,13.81,0,0,0,1.39-4.75l-2.42-.72a.39.39,0,0,1-.29-.39,12.08,12.08,0,0,0-.46-3.88.39.39,0,0,1,.19-.45l2.16-1.22a11,11,0,0,0-1-2.29A15,15,0,0,0,69,61.12l-2.22,1.2a.39.39,0,0,1-.48-.07,11.94,11.94,0,0,0-3.07-2.41.4.4,0,0,1-.19-.46L63.75,57A13.76,13.76,0,0,0,59,55.61L58.27,58A.37.37,0,0,1,58.15,58.22ZM52.32,64.8a7.62,7.62,0,0,1,7.09-1.62,7.71,7.71,0,0,1,5.5,6.33,7.19,7.19,0,0,1-1.62,5.75,7.64,7.64,0,0,1-13.49-3.8,7.17,7.17,0,0,1,1.62-5.75h0A8.6,8.6,0,0,1,52.32,64.8Zm9.56,10.77a7,7,0,0,0,.81-.82,6.39,6.39,0,0,0,1.45-5.12A6.86,6.86,0,0,0,52,66.22h0a6.4,6.4,0,0,0-1.44,5.11,6.83,6.83,0,0,0,11.3,4.24Z" style="fill:#e0e0e0"></path><path id="freepik--gear--inject-19" d="M47,106.54a5.86,5.86,0,0,0,1.32-4.68,6.18,6.18,0,0,0-9.57-4.32,6.36,6.36,0,0,0-.66.5,7.19,7.19,0,0,0-.73.73A5.87,5.87,0,0,0,36,103.45a6.21,6.21,0,0,0,11,3.09Zm-10.2-3.21a5.06,5.06,0,0,1,1.14-4.06A5.44,5.44,0,0,1,47.56,102,5.1,5.1,0,0,1,46.42,106a6.65,6.65,0,0,1-.65.65,5.9,5.9,0,0,1-.58.44,5.42,5.42,0,0,1-8.4-3.8Zm-4.55,7.29a.73.73,0,0,0,.93.17l1.48-.83a10.3,10.3,0,0,0,2.17,1.71l-.46,1.64a.73.73,0,0,0,.39.86,12.7,12.7,0,0,0,4,1.13.75.75,0,0,0,.79-.53l.45-1.63a10.62,10.62,0,0,0,2.75-.33l.83,1.49a.73.73,0,0,0,.88.33,12.15,12.15,0,0,0,1.91-.88,11.76,11.76,0,0,0,1.74-1.17.72.72,0,0,0,.18-.93l-.83-1.48A10.3,10.3,0,0,0,51.19,108l1.63.46a.73.73,0,0,0,.87-.39,12.48,12.48,0,0,0,1.13-4,.73.73,0,0,0-.53-.78l-1.63-.46a10.49,10.49,0,0,0-.33-2.74l1.48-.83a.73.73,0,0,0,.34-.89,13.16,13.16,0,0,0-.87-1.91,12.67,12.67,0,0,0-1.18-1.74.73.73,0,0,0-.93-.18l-1.48.83a10.3,10.3,0,0,0-2.17-1.71L48,92a.74.74,0,0,0-.39-.87,12.55,12.55,0,0,0-4-1.13.72.72,0,0,0-.78.53l-.46,1.63a10.59,10.59,0,0,0-2.74.33L38.74,91a.72.72,0,0,0-.88-.34,13.13,13.13,0,0,0-1.91.88c-.28.16-.55.32-.82.5s-.63.44-.93.68h0a.73.73,0,0,0-.16.91l.83,1.48a10.48,10.48,0,0,0-1.71,2.17l-1.63-.46a.73.73,0,0,0-.86.39,12.83,12.83,0,0,0-1.14,4,.75.75,0,0,0,.54.79l1.63.46a10.17,10.17,0,0,0,.32,2.74l-1.48.82a.74.74,0,0,0-.33.89,12.26,12.26,0,0,0,.87,1.91A14.41,14.41,0,0,0,32.24,110.62Zm-.5-2.12a12.37,12.37,0,0,1-.82-1.77l1.72-1a.36.36,0,0,0,.18-.43,9.52,9.52,0,0,1-.36-3.09.4.4,0,0,0-.28-.39l-1.89-.56a11.06,11.06,0,0,1,1.07-3.7l1.87.52a.38.38,0,0,0,.44-.18,9.45,9.45,0,0,1,1.93-2.44.38.38,0,0,0,.07-.47l-.94-1.74a12.62,12.62,0,0,1,1.59-1.07,9.45,9.45,0,0,1,1.79-.78l1,1.69a.36.36,0,0,0,.43.18,9.91,9.91,0,0,1,3.1-.37.39.39,0,0,0,.38-.27l.56-1.9a11.26,11.26,0,0,1,3.71,1.08l-.53,1.87a.38.38,0,0,0,.18.44,9.73,9.73,0,0,1,2.45,1.92.37.37,0,0,0,.46.08l1.74-1a12.05,12.05,0,0,1,1.07,1.6,9.6,9.6,0,0,1,.79,1.79l-1.7,1h0a.38.38,0,0,0-.16.42,9.84,9.84,0,0,1,.37,3.1.37.37,0,0,0,.28.38l1.89.56a11.07,11.07,0,0,1-1.08,3.7l-1.87-.52a.37.37,0,0,0-.43.18,9.54,9.54,0,0,1-1.93,2.44.38.38,0,0,0-.08.47l.95,1.74a12.74,12.74,0,0,1-1.6,1.07,9.73,9.73,0,0,1-1.78.79l-1-1.7a.38.38,0,0,0-.44-.18,9.46,9.46,0,0,1-3.09.37.39.39,0,0,0-.39.28l-.56,1.89a11.21,11.21,0,0,1-3.7-1.08l.53-1.86a.38.38,0,0,0-.18-.44A9.59,9.59,0,0,1,35,109.23a.4.4,0,0,0-.47-.08l-1.74.95A13,13,0,0,1,31.74,108.5Z" style="fill:#e0e0e0"></path><path id="freepik--gear--inject-19" d="M473.2,69.74a5.83,5.83,0,0,0,1.31-4.68,6.28,6.28,0,0,0-4.46-5.14,6.21,6.21,0,0,0-5.11.82c-.22.15-.44.32-.66.5a7.1,7.1,0,0,0-.72.73,5.85,5.85,0,0,0-1.32,4.68,6.21,6.21,0,0,0,11,3.09ZM463,66.53a5.09,5.09,0,0,1,1.14-4.06,5.45,5.45,0,0,1,9.63,2.71,5.06,5.06,0,0,1-1.14,4.06,5,5,0,0,1-.65.65c-.19.16-.38.31-.58.45a5.42,5.42,0,0,1-8.4-3.81Zm-4.54,7.29a.74.74,0,0,0,.93.18l1.48-.83A11,11,0,0,0,463,74.88l-.47,1.63a.74.74,0,0,0,.39.86,13,13,0,0,0,4,1.14.74.74,0,0,0,.78-.54l.46-1.63A9.71,9.71,0,0,0,471,76l.83,1.49a.74.74,0,0,0,.89.33,13.45,13.45,0,0,0,1.9-.87,13.67,13.67,0,0,0,1.75-1.17.74.74,0,0,0,.18-.93l-.84-1.49a10.54,10.54,0,0,0,1.72-2.16l1.63.45a.73.73,0,0,0,.86-.38,12.91,12.91,0,0,0,1.14-4,.75.75,0,0,0-.53-.79L478.86,66a11,11,0,0,0-.32-2.74l1.48-.83a.73.73,0,0,0,.33-.88,12.36,12.36,0,0,0-2.05-3.66.74.74,0,0,0-.93-.18l-1.48.83a10.25,10.25,0,0,0-2.17-1.7l.47-1.64a.75.75,0,0,0-.4-.86,12.57,12.57,0,0,0-4-1.14.74.74,0,0,0-.78.53l-.46,1.64a9.79,9.79,0,0,0-2.74.33L465,54.21a.74.74,0,0,0-.89-.33,12.52,12.52,0,0,0-1.91.87c-.28.16-.55.33-.82.5s-.63.44-.93.68h0a.73.73,0,0,0-.16.91l.84,1.49a10.22,10.22,0,0,0-1.72,2.16L457.72,60a.74.74,0,0,0-.86.39,12.61,12.61,0,0,0-1.13,4,.73.73,0,0,0,.53.78l1.63.46a10.58,10.58,0,0,0,.32,2.74l-1.48.83a.73.73,0,0,0-.33.88,13.9,13.9,0,0,0,.87,1.92A13.28,13.28,0,0,0,458.45,73.82Zm-.51-2.12a11.84,11.84,0,0,1-.81-1.77l1.71-1a.38.38,0,0,0,.18-.44,9.8,9.8,0,0,1-.36-3.09.37.37,0,0,0-.28-.38l-1.89-.56a11.12,11.12,0,0,1,1.08-3.71l1.86.53a.4.4,0,0,0,.44-.19,9.62,9.62,0,0,1,1.93-2.44.39.39,0,0,0,.08-.47l-.95-1.74a11.09,11.09,0,0,1,1.6-1.06,8.84,8.84,0,0,1,1.78-.79l.95,1.7a.39.39,0,0,0,.44.18,9.53,9.53,0,0,1,3.09-.37.45.45,0,0,0,.27-.1.37.37,0,0,0,.11-.18l.56-1.89A11.18,11.18,0,0,1,473.44,55l-.53,1.88a.37.37,0,0,0,.18.43,9.77,9.77,0,0,1,2.45,1.93.38.38,0,0,0,.47.07l1.73-.94a12.46,12.46,0,0,1,1.08,1.6,9.84,9.84,0,0,1,.78,1.78l-1.69,1,0,0a.37.37,0,0,0-.15.42,9.73,9.73,0,0,1,.36,3.09.39.39,0,0,0,.28.39l1.9.56a11.46,11.46,0,0,1-1.09,3.7l-1.86-.53a.39.39,0,0,0-.44.18A9.42,9.42,0,0,1,475,73a.38.38,0,0,0-.08.46l.95,1.75a12,12,0,0,1-1.6,1.06,8.84,8.84,0,0,1-1.78.79l-.95-1.7a.39.39,0,0,0-.44-.18,9.46,9.46,0,0,1-3.09.37.37.37,0,0,0-.38.28L467,77.74a11.44,11.44,0,0,1-3.7-1.07l.53-1.87a.39.39,0,0,0-.18-.44,9.59,9.59,0,0,1-2.45-1.93.38.38,0,0,0-.47-.07L459,73.3A12,12,0,0,1,457.94,71.7Z" style="fill:#e0e0e0"></path></g><g id="freepik--Molecules--inject-19"><path id="freepik--molecules--inject-19" d="M458.53,236.49a2,2,0,0,0,0-1.05l3.82-2.06a1.91,1.91,0,1,0,2-3.09,1.84,1.84,0,0,0-.84,0l-1.75-4.36a2.9,2.9,0,0,0,1.34-1.71,2.93,2.93,0,0,0-.11-1.9l5.16-3.07a2.88,2.88,0,0,0,1.45,1,2.94,2.94,0,0,0,1.86-.09l1.66,2.91a1.84,1.84,0,0,0-.56.89,1.91,1.91,0,1,0,2.37-1.32,2,2,0,0,0-1.1,0l-1.66-2.91a2.88,2.88,0,0,0,1-1.48,3.34,3.34,0,0,0,.1-.62l3.48-.28a1.91,1.91,0,1,0,2.36-2.4,1.82,1.82,0,0,0-.65-.06l-.47-1.66a1.94,1.94,0,0,0,.93-1.16,1.91,1.91,0,1,0-3.68-1.05,1.9,1.9,0,0,0,1.31,2.36,1.78,1.78,0,0,0,.64.07l.48,1.66a1.89,1.89,0,0,0-.93,1.15,1.28,1.28,0,0,0-.05.27l-3.48.28a2.91,2.91,0,0,0-2-2.14,3.49,3.49,0,0,0-.77-.11l-1-7a2.9,2.9,0,0,0,2-2,3,3,0,0,0,.11-.77l7.15-1a1.92,1.92,0,1,0,2.32-2.5l-.18,0-.17-4.61a2.9,2.9,0,1,0-1.3-.07,2,2,0,0,0,.48.09l.17,4.62a1.9,1.9,0,0,0-1.37,1.32,2.38,2.38,0,0,0-.06.37l-7.15,1a2.89,2.89,0,0,0-4.37-1.61l-2.8-3.17a2,2,0,0,0,.29-.6,1.91,1.91,0,1,0-2.37,1.32,1.93,1.93,0,0,0,1.46-.17l2.81,3.16a2.69,2.69,0,0,0-.57,1.07,2.92,2.92,0,0,0-.1,1.13l-3.34.87a1.91,1.91,0,0,0-3.54.35,1.91,1.91,0,1,0,3.68,1.05,2.05,2.05,0,0,0,.07-.6l3.34-.88a2.87,2.87,0,0,0,1.87,1.65,2.61,2.61,0,0,0,.77.11l1,7a2.88,2.88,0,0,0-1.87,3.88l-5.16,3.06a3,3,0,0,0-1.46-1,2.79,2.79,0,0,0-1.81.08l-2.23-4a1.82,1.82,0,0,0,.58-.91,1.91,1.91,0,1,0-2.37,1.32,1.94,1.94,0,0,0,1.07,0l2.23,4a3,3,0,0,0-1,1.51,2.83,2.83,0,0,0-.08.4h-3.59a1.9,1.9,0,0,0-1.33-1.42,1.92,1.92,0,1,0,1.31,2.37.53.53,0,0,0,0-.12l3.58,0a2.9,2.9,0,0,0,2.06,2.36,2.86,2.86,0,0,0,1.48,0l1.75,4.36a1.92,1.92,0,0,0-.77,1,1.87,1.87,0,0,0,0,1.05l-3.82,2.06a2,2,0,0,0-.92-.59,1.91,1.91,0,1,0,1.31,2.37Z" style="fill:#e0e0e0"></path><path id="freepik--molecules--inject-19" d="M158.85,180.65A2.3,2.3,0,0,0,157,178a2.42,2.42,0,0,0-.85,0l-1.55-3.7a2.23,2.23,0,0,0,.94-1.44,2.18,2.18,0,0,0-.06-1.08l4-2.19a2.24,2.24,0,0,0,1.29.76,2.29,2.29,0,1,0-1.82-2.68,2.14,2.14,0,0,0,.07,1.07l-4,2.19a2.32,2.32,0,0,0-1.29-.75,2.28,2.28,0,0,0-2,.6l-7.57-5.07a3.85,3.85,0,0,0,.28-.85,3.47,3.47,0,0,0-.39-2.36l5.15-4a2.26,2.26,0,0,0,1,.51,2.3,2.3,0,1,0-1.82-2.69,2.22,2.22,0,0,0,.19,1.42l-5.15,4a3.45,3.45,0,0,0-1.74-.91l.67-11.63a2.29,2.29,0,1,0-2.61-2.69l-6.39.15a2.28,2.28,0,1,0,0,1l6.39-.14a2.26,2.26,0,0,0,1.61,1.66l-.66,11.64a3.45,3.45,0,0,0-.37,6.83,3,3,0,0,0,.51.06l.63,6.51a2.27,2.27,0,1,0,1.13-.08h-.16l-.64-6.51a3.52,3.52,0,0,0,1.76-1.06l7.57,5.07a2.77,2.77,0,0,0-.12.41,2.3,2.3,0,0,0,1.82,2.69,2.43,2.43,0,0,0,.85,0l1.54,3.69a2.29,2.29,0,1,0,3.56,2.31Z" style="fill:#e0e0e0"></path></g><g id="freepik--Atom--inject-19"><g id="freepik--atom--inject-19"><path d="M392.84,63a3.33,3.33,0,1,0,4.41-1.67A3.33,3.33,0,0,0,392.84,63Z" style="fill:#353935"></path><path d="M392.84,63a3.33,3.33,0,1,0,4.41-1.67A3.33,3.33,0,0,0,392.84,63Z" style="fill:#fff;opacity:0.30000000000000004"></path><path d="M396.11,66.54A3.24,3.24,0,0,0,399,63.17a3.3,3.3,0,0,1-.08,2.54,3.33,3.33,0,0,1-6.37-1.4C392.62,65.24,394.25,66.69,396.11,66.54Z" style="opacity:0.2"></path><path d="M393.71,55.92a5,5,0,1,0,6.67-2.52A5,5,0,0,0,393.71,55.92Z" style="fill:#353935"></path><path d="M398.65,61.32a4.92,4.92,0,0,0,4.37-5.1A5,5,0,1,1,393.26,58C393.38,59.35,395.84,61.55,398.65,61.32Z" style="opacity:0.2"></path><path d="M397.56,64.28a5,5,0,1,0,6.67-2.52A5,5,0,0,0,397.56,64.28Z" style="fill:#353935"></path><path d="M402.5,69.68a4.93,4.93,0,0,0,4.38-5.1,5,5,0,1,1-9.76,1.73C397.23,67.71,399.7,69.91,402.5,69.68Z" style="opacity:0.2"></path><path d="M402.29,59.55a3.33,3.33,0,1,0,4.41-1.67A3.33,3.33,0,0,0,402.29,59.55Z" style="fill:#353935"></path><path d="M402.29,59.55a3.33,3.33,0,1,0,4.41-1.67A3.33,3.33,0,0,0,402.29,59.55Z" style="fill:#fff;opacity:0.30000000000000004"></path><path d="M405.56,63.12a3.25,3.25,0,0,0,2.89-3.37A3.34,3.34,0,1,1,402,60.89C402.07,61.82,403.7,63.27,405.56,63.12Z" style="opacity:0.2"></path><path d="M381.74,75c-1.58,3.51-2.25,6.43-1.72,8.27a2.73,2.73,0,0,0,1.52,1.86,2.65,2.65,0,0,0,.52.18c3.89,1,12.4-4.42,21.17-13.45.25-.25.5-.52.75-.79a4.51,4.51,0,0,1-1,.28s0,0,0,0l-.15.15c-8.5,8.76-17,14.23-20.68,13.31a2.24,2.24,0,0,1-1.66-1.68c-1.41-5,6.42-18.36,17.47-29.73a72.85,72.85,0,0,1,12.14-10.29c3.64-2.35,6.69-3.49,8.53-3a2.72,2.72,0,0,1,.43.15,2.23,2.23,0,0,1,1.23,1.53c1.23,4.33-4.44,14.86-13.12,25a4.6,4.6,0,0,1-.19,1c9.1-10.46,15.1-21.58,13.81-26.14a2.71,2.71,0,0,0-2-2c-3.89-1-12.41,4.42-21.16,13.44C390.42,60.41,384.59,68.66,381.74,75Z" style="fill:#e0e0e0"></path><path d="M382.27,39.39C380.44,43,383.78,52.47,390.61,63c7.21,11.18,16.32,20.48,22.27,23.16a7.29,7.29,0,0,0,3.23.79,2.77,2.77,0,0,0,2.45-1.52c1.83-3.58-1.52-13.09-8.34-23.66-8.69-13.47-20.13-24.2-25.5-23.94A2.73,2.73,0,0,0,382.27,39.39Zm.4.38.06-.14a2.19,2.19,0,0,1,2-1.24,6.76,6.76,0,0,1,3.07.74c5.81,2.62,14.81,11.86,22,23,6.62,10.26,10,19.77,8.32,23.14a2.21,2.21,0,0,1-2,1.24c-4.63.23-14-8.16-22.11-19.4a3.39,3.39,0,0,1-1.32-1.88c-.55-.8-1.08-1.61-1.61-2.43C384.51,52.64,381.1,43.25,382.67,39.77Z" style="fill:#e0e0e0"></path><path d="M371.11,63.6a2.72,2.72,0,0,0,.44,2.85,7.3,7.3,0,0,0,2.89,2c5,2.27,14.88,3.23,25.61,2.45a4.54,4.54,0,0,1-.8-.47c-13.06.87-24.58-.84-27.29-4.34a2.18,2.18,0,0,1-.36-2.33c1.43-3.5,10.89-7.09,23-8.72,12.95-1.74,25.68-.94,31.54,1.7a7.17,7.17,0,0,1,2.75,1.94,2.19,2.19,0,0,1,.36,2.33c-1.44,3.5-10.88,7.09-23,8.72l-.44.06a4.09,4.09,0,0,1-.71.61l1.21-.16c12.48-1.68,21.87-5.31,23.4-9a2.73,2.73,0,0,0-.43-2.86c-3.28-4.24-18.88-6-34.77-3.83C382.05,56.25,372.64,59.88,371.11,63.6Z" style="fill:#e0e0e0"></path><path d="M424.27,55.57a2.12,2.12,0,1,0,2.8-1.06A2.1,2.1,0,0,0,424.27,55.57Z" style="fill:#353935"></path><path d="M424.27,55.57a2.12,2.12,0,1,0,2.8-1.06A2.1,2.1,0,0,0,424.27,55.57Z" style="fill:#fff;opacity:0.5"></path><path d="M426.34,57.84a2.07,2.07,0,0,0,1.84-2.14,2.12,2.12,0,1,1-4.1.72A2.19,2.19,0,0,0,426.34,57.84Z" style="opacity:0.2"></path><path d="M388.12,39.1a2.12,2.12,0,1,0,2.8-1.06A2.12,2.12,0,0,0,388.12,39.1Z" style="fill:#353935"></path><path d="M388.12,39.1a2.12,2.12,0,1,0,2.8-1.06A2.12,2.12,0,0,0,388.12,39.1Z" style="fill:#fff;opacity:0.5"></path><path d="M390.2,41.37A2.06,2.06,0,0,0,392,39.23a2.12,2.12,0,1,1-4.1.73A2.19,2.19,0,0,0,390.2,41.37Z" style="opacity:0.2"></path><path d="M389.57,81.28a2.12,2.12,0,1,0,2.81-1.06A2.13,2.13,0,0,0,389.57,81.28Z" style="fill:#353935"></path><path d="M389.57,81.28a2.12,2.12,0,1,0,2.81-1.06A2.13,2.13,0,0,0,389.57,81.28Z" style="fill:#fff;opacity:0.5"></path><path d="M391.65,83.55a2.07,2.07,0,0,0,1.84-2.14,2.12,2.12,0,1,1-4.1.73A2.19,2.19,0,0,0,391.65,83.55Z" style="opacity:0.2"></path></g></g><g id="freepik--Formula--inject-19"><g id="freepik--Graphics--inject-19"><path d="M55.23,144.26A71,71,0,0,0,55,153c0,2.94,0,5.87-.08,8.8l-.06,8.77c0,1.49,0,3,0,4.46,0,.75,0,1.49,0,2.24s-.16,1.36.16,1.83c0,.05.27.06.32-.07a5.35,5.35,0,0,0,.19-2.07c0-.74,0-1.49,0-2.23,0-1.49,0-3,0-4.46q0-4.32.07-8.62t0-8.59a65,65,0,0,0-.08-8.84c0-.1-.32-.08-.34.07Z" style="fill:#353935"></path><path d="M37.44,150.48c-.14,2.26.1,4.41.17,6.6s.11,4.35.13,6.54,0,4.26,0,6.4a65.15,65.15,0,0,0-.11,6.68c0,.16.52,0,.55-.17a49,49,0,0,0,.19-6.6q0-3.36,0-6.69t-.14-6.54a46.7,46.7,0,0,0-.38-6.33c0-.13-.4-.07-.41.11Z" style="fill:#353935"></path><path d="M35.29,152.39c4.47.16,9.16,0,13.74,0l13.82,0c.32,0,.78-.47.41-.47L49.45,152c-4.62,0-9.2-.08-13.94.13-.25,0-.46.3-.22.31Z" style="fill:#353935"></path><path d="M29.79,173.63c7.45.4,6.37.24,14.11.22s15.29-.09,22.94-.14q6.75,0,13.46-.05c.31,0,.78-.45.43-.45-15.36,0-23.7.27-39,.21-4.48,0-7.1-.17-11.64-.1-.26,0-.56.3-.28.31Z" style="fill:#353935"></path><path d="M30.6,139.59c1.07,3.35,3.15,6.23,5.18,9A39.72,39.72,0,0,0,43,156a63.71,63.71,0,0,0,20.21,10.7c4.41,1.46,9.13,3,14.74,3.08.23,0,.4-.21.2-.24-2.18-.38-4.48-.6-6.58-1.06-2.32-.51-4.53-1.14-6.69-1.82a74.49,74.49,0,0,1-11-4.44,53.73,53.73,0,0,1-17-13.2,49.92,49.92,0,0,1-5.91-9.5c-.05-.09-.41,0-.36.12Z" style="fill:#353935"></path><path d="M51.78,148.14A6.94,6.94,0,0,0,53,146.68a6.14,6.14,0,0,0,.44-.78c.07-.14.13-.28.19-.42s.15-.3.08-.38a.32.32,0,0,0-.4.09,1.14,1.14,0,0,0-.18.39c0,.13-.11.25-.17.38a5.65,5.65,0,0,1-.42.75,7.61,7.61,0,0,1-1.12,1.36c-.19.18.16.23.33.07Z" style="fill:#353935"></path><path d="M50.67,145.35a.84.84,0,0,0,.21.42,2.63,2.63,0,0,0,.28.4,4,4,0,0,0,.67.63c.11.09.23.25.47.21a.39.39,0,0,0,.3-.19c.06-.11,0-.15-.1-.2a4.6,4.6,0,0,1-.71-.6c-.12-.13-.24-.25-.35-.39a2.07,2.07,0,0,0-.38-.46c-.08-.06-.4,0-.39.18Z" style="fill:#353935"></path><path d="M38.17,147.55c-.26.23-.11.44,0,.6s.22.42.34.63a10.29,10.29,0,0,0,.81,1.18c.09.12.39,0,.55-.14a3.85,3.85,0,0,0,.68-1.22,3.16,3.16,0,0,0,.42-1.23c0-.22-.62,0-.61.2a3,3,0,0,1-.39,1.14,3.73,3.73,0,0,1-.61,1.11l.55-.15c-.27-.35-.52-.72-.76-1.1s-.4-.7-.63-1v.09l0-.06c.06-.13-.22-.14-.35,0Z" style="fill:#353935"></path><path d="M51,165.3a2.17,2.17,0,0,0,.52.53l.55.47.55.47.27.23c.09.08.23.15.27.25l.09-.19,0,0,.33-.14h-.07c-.11,0-.31.1-.32.2.48,0,.68-.11.62-.25l-.06-.06-.15-.12-.31-.26-.59-.48-.6-.47a2.8,2.8,0,0,0-.63-.43c-.1,0-.49.07-.42.21Z" style="fill:#353935"></path><path d="M53,165.07c-.64.65-1.23,1.3-1.83,2-.15.15-.46.43-.22.48a.63.63,0,0,0,.49-.22c.07-.06.13-.14.2-.21.29-.33.6-.66.9-1s.57-.64.83-1-.19-.24-.37-.06Z" style="fill:#353935"></path><path d="M60.38,157.4a9,9,0,0,0,1.71,2.28c.13.15.7-.2.54-.36-.66-.68-1.22-1.42-1.88-2.09-.08-.09-.43,0-.37.17Z" style="fill:#353935"></path><path d="M63.51,157.26a5.73,5.73,0,0,0-.56,1c-.17.31-.35.62-.55.94s-.38.58-.6.87a5.71,5.71,0,0,1-.8.94c-.19.16,0,.27.21.17q-.21,0-.09,0l.06,0a.81.81,0,0,0,.21-.1,1.27,1.27,0,0,0,.28-.23,5.74,5.74,0,0,0,.4-.49c.27-.34.52-.69.75-1s.44-.71.63-1.06c.11-.2.2-.41.3-.61a.84.84,0,0,0,.13-.45c0-.09-.25-.12-.37,0Z" style="fill:#353935"></path><path d="M65.39,159.26h.88l.79,0a.51.51,0,0,0,.36-.17c.08-.11,0-.16-.1-.17h-.77a4.35,4.35,0,0,0-.5,0l-.55.06c-.09,0-.21,0-.24.13s0,.12.13.11Z" style="fill:#353935"></path><path d="M65.52,160.27a3.92,3.92,0,0,0,.49,0h.47l.91,0a.62.62,0,0,0,.42-.19c.09-.1,0-.21-.08-.2l-1,0c-.33,0-.68,0-1,.08a.38.38,0,0,0-.25.15c0,.07,0,.12.08.13Z" style="fill:#353935"></path><path d="M71.51,157.92a1.16,1.16,0,0,0-1.39-.3,2,2,0,0,0-1.27,1.18,1.15,1.15,0,0,0,.22,1.39,1.8,1.8,0,0,0,1.61.48,2.68,2.68,0,0,0,1.19-.52c.28-.23.42-.54.2-.65-.06,0-.29,0-.36.1a1.65,1.65,0,0,1-.21.42,1,1,0,0,1-.41.19,1.15,1.15,0,0,1-.75,0,2.81,2.81,0,0,1-.64-.36.78.78,0,0,1-.35-.57,1.42,1.42,0,0,1,.12-.68,1.25,1.25,0,0,1,.4-.56.91.91,0,0,1,.55-.14,1.48,1.48,0,0,1,.7.2c.12.07.46-.07.39-.21Z" style="fill:#353935"></path><path d="M72.93,158.89c.35-.07.93-.16,1.1,0s-.38.62-.66.76-.11.25,0,.24c.76-.05,1.32.35,1.26.92a.55.55,0,0,1-.56.5c-.4,0-.47-.33-.76-.46-.06,0-.25,0-.3.09-.19.43.34.68.77.71a1.43,1.43,0,0,0,1.26-.67.81.81,0,0,0-.19-1,1.58,1.58,0,0,0-1.33-.37,2,2,0,0,1,0,.24c.47-.24,1.09-.83.92-1.1s-1.05-.23-1.64,0c-.21.07-.06.21.06.19Z" style="fill:#353935"></path><path d="M58.49,175.87h0a.26.26,0,0,0,.26,0c.08-.07,0-.14,0-.15a.94.94,0,0,0-.51,0,1.74,1.74,0,0,0-.47.16,1.2,1.2,0,0,0-.53.55.86.86,0,0,0,.25,1,1.27,1.27,0,0,0,1.35.14,1,1,0,0,0,.68-1,1,1,0,0,0-.36-.52,1.15,1.15,0,0,0-.86-.24c-.16,0-.33.19-.21.25s.34.1.48.18a1,1,0,0,1,.33.3.64.64,0,0,1,.11.41.5.5,0,0,1-.17.36.47.47,0,0,1-.33.1.86.86,0,0,1-.41-.11.7.7,0,0,1-.41-.69.58.58,0,0,1,.16-.4,1,1,0,0,1,.8-.2,1.36,1.36,0,0,0,0-.2l-.14,0c-.12,0-.06.13,0,.14Z" style="fill:#353935"></path><path d="M40.28,177.73c-.15-.3-.79-.26-1.3.1a1.2,1.2,0,0,0-.56,1,1,1,0,0,0,.44.79,1.54,1.54,0,0,0,1.1.29,2,2,0,0,0,1.49-.89c.11-.21-.36-.12-.5.06a1.1,1.1,0,0,1-1.76,0,.73.73,0,0,1-.08-.8.65.65,0,0,1,.29-.28.49.49,0,0,1,.16-.05.53.53,0,0,1,.36,0,.28.28,0,0,0,.24,0c.09-.05.14-.12.12-.17Z" style="fill:#353935"></path><path d="M77.75,175.63c-.06.17.09.23.21.31a5,5,0,0,0,.47.33l1,.64,1,.59.48.29a.85.85,0,0,0,.64.19c.25,0,.36-.3.12-.28h-.08c.08,0,.24.06.23,0a.16.16,0,0,0-.09-.07l-.24-.14-.49-.29c-.34-.19-.68-.38-1-.58L79,176l-.49-.27a1.21,1.21,0,0,0-.58-.2s-.14,0-.16.09Z" style="fill:#353935"></path><path d="M81.12,174.92c-.54.57-1,1.15-1.59,1.72l-.77.73c-.29.25-.61.5-.89.76-.1.1-.06.18,0,.2a.54.54,0,0,0,.38-.12,14.33,14.33,0,0,0,1.78-1.58A11.44,11.44,0,0,0,81.48,175c.09-.15-.22-.2-.36,0Z" style="fill:#353935"></path></g></g><g id="freepik--graduation-cap--inject-19"><g id="freepik--graduation-cap--inject-19"><path d="M233.48,267.13v41.72c0,6,5.27,12,15.75,16.6,21,9.19,55,9.19,76,0,10.5-4.6,15.74-10.62,15.74-16.65V267.13h0c.12-6.1-5.11-12.21-15.73-16.86-21-9.19-55-9.19-76,0-10.63,4.65-15.87,10.76-15.74,16.86Z" style="fill:#37474f"></path><path d="M233.49,267.13c-.13-6.1,5.11-12.21,15.74-16.86,21-9.19,55-9.19,76,0,10.62,4.65,15.85,10.76,15.73,16.86h0v26.62c0-11.52-3.81-10.58-16.23-3.55-18.87,10.69-32.51,22.31-53.27,28.43-17.16,5.06-32-6.89-38-13.2v-38.3Z" style="fill:#263238"></path><path d="M233.48,289.21v4.73c0,6,5.27,12,15.75,16.6,21,9.19,55,9.19,76,0,10.58-4.63,15.82-10.72,15.74-16.79v-4.59c0,6-5.24,12-15.74,16.65-21,9.19-55,9.19-76,0C238.75,301.23,233.51,295.22,233.48,289.21Z" style="fill:#353935"></path><polygon points="371.73 252.84 287.24 204.09 202.75 252.84 202.75 259.49 287.24 308.27 371.73 259.49 371.73 252.84" style="fill:#37474f"></polygon><polygon points="287.24 308.27 287.24 301.62 371.73 252.84 371.73 259.49 287.24 308.27" style="fill:#fff;opacity:0.2"></polygon><polygon points="287.24 301.62 370.52 254.81 371.73 259.49 371.73 252.84 287.24 301.62" style="fill:#fff;opacity:0.2"></polygon><polygon points="287.24 204.09 202.75 252.84 287.24 301.62 371.73 252.84 287.24 204.09" style="fill:#455a64"></polygon><path d="M242,290.83c0-.55-.27-13.53,1-17.21S249,266.18,259,261.1a106.17,106.17,0,0,1,22.5-8.31l.42,1.85a103.63,103.63,0,0,0-22.06,8.14c-9.42,4.78-14.09,8.31-15.17,11.45-1,2.8-1,12.9-.89,16.56Z" style="fill:#353935"></path><path d="M242,290.83c0-.55-.27-13.53,1-17.21S249,266.18,259,261.1a106.17,106.17,0,0,1,22.5-8.31l.42,1.85a103.63,103.63,0,0,0-22.06,8.14c-9.42,4.78-14.09,8.31-15.17,11.45-1,2.8-1,12.9-.89,16.56Z" style="fill:#fff;opacity:0.8"></path><path d="M252.92,330.49c0-9.71-1.61-27.1-6.7-32.15H239.5c-5.08,5.05-6.7,22.44-6.7,32.15h0c0,1.49,1,3,2.95,4.11a15.74,15.74,0,0,0,14.23,0c2-1.13,2.94-2.62,2.94-4.11Z" style="fill:#353935"></path><path d="M252.92,330.49c0-9.71-1.61-27.1-6.7-32.15H239.5c-5.08,5.05-6.7,22.44-6.7,32.15h0c0,1.49,1,3,2.95,4.11a15.74,15.74,0,0,0,14.23,0c2-1.13,2.94-2.62,2.94-4.11Z" style="fill:#fff;opacity:0.5"></path><path d="M239.5,298.34a8.87,8.87,0,0,0-1.08,1.35c1.28,1.36,3.24,1.7,5.21,1.86,1.81.15,4,1.74,4.86,9.71s2.57,18.14-.59,21.22-10.2,3-13.9.76h0a7.18,7.18,0,0,0,1.75,1.36,15.74,15.74,0,0,0,14.23,0c2-1.13,2.94-2.62,2.94-4.11h0c0-9.71-1.61-27.1-6.7-32.15Z" style="fill:#353935;opacity:0.6000000000000001"></path><path d="M247.9,294.8a5,5,0,1,1-5-5A5,5,0,0,1,247.9,294.8Z" style="fill:#353935"></path><path d="M247.9,294.8a5,5,0,1,1-5-5A5,5,0,0,1,247.9,294.8Z" style="fill:#fff;opacity:0.5"></path><path d="M245.79,290.72a4.57,4.57,0,0,1-1.22,6.55,4.93,4.93,0,0,1-6.49-1,5,5,0,1,0,7.71-5.59Z" style="fill:#353935;opacity:0.4"></path><path d="M280.45,250.39a3.38,3.38,0,0,1,2-2.77,10.61,10.61,0,0,1,9.6,0,3.36,3.36,0,0,1,2,2.77v2.22a3.37,3.37,0,0,1-2,2.77,10.61,10.61,0,0,1-9.6,0,3.4,3.4,0,0,1-2-2.77Z" style="fill:#263238"></path><path d="M292,253.16c2.65-1.53,2.65-4,0-5.54a10.61,10.61,0,0,0-9.6,0c-2.65,1.53-2.65,4,0,5.54A10.61,10.61,0,0,0,292,253.16Z" style="fill:#37474f"></path></g></g><g id="freepik--Pencil--inject-19"><g id="freepik--pencil--inject-19"><path d="M280.33,358.35,307.41,353a.84.84,0,0,1,.79,1.38l-18.37,20.8Z" style="fill:#ffa8a7"></path><path d="M308.2,354.42a.84.84,0,0,0-.79-1.38l-5.29,1h0a4.66,4.66,0,0,1,2.19,4.32l0,.47Z" style="fill:#263238"></path><path d="M188.86,433.13l2.21-1.27,2.68-1.52,96.08-55.11a12.34,12.34,0,0,0-.75-9c-1.92-4.3-5.65-7.69-8.74-7.89l-96,55.08-5.11,2.93C182.62,414.65,192.26,431.36,188.86,433.13Z" style="fill:#353935"></path><path d="M197.31,428.32l4.94-2.85c1.46-.77.63-4.36-1.08-8.07-2.26-4.93-6.71-9.7-8.64-8.67l-3.65,2.09-1.29.77c1.94-1,6.39,3.74,8.64,8.67,1.63,3.56,2.46,7,1.22,8h0A.3.3,0,0,1,197.31,428.32Z" style="fill:#ebebeb"></path><path d="M198.54,427.6c3.39-1.8-6.33-18.53-9.72-16.74l-5,2.84c3.4-1.8,13.11,14.93,9.72,16.73Z" style="fill:#353935"></path><path d="M188.86,433.13l4.89-2.79c3.35-1.75-5.89-18-9.43-16.9a.6.6,0,0,0-.2.07l-4.91,2.86C182.62,414.65,192.26,431.36,188.86,433.13Z" style="fill:#ebebeb"></path><path d="M308.32,353.51l-.91-.47-19.65,10.75L186.17,422.08c-.19-.3-.35-.32-.48-.11,2.89,4.5,5.07,10.17,3.17,11.16l2.21-1.27,2.68-1.52,96.08-55.11h0l18.37-20.8A.8.8,0,0,0,308.32,353.51Z" style="opacity:0.15"></path><path d="M168.1,445l20.76-11.88c1.45-.75.65-4.31-1-8-2.24-4.94-6.67-9.76-8.62-8.77h0L158.36,428.3c-4.13,2.38-.33,11.36,4.28,15.38C164.36,445.19,166.28,445.86,168.1,445Z" style="fill:#f28f8f"></path><path d="M169.34,438.57c-1.19-4.68-5-9.27-8.46-10.25a3.39,3.39,0,0,0-3.11.42c-3.12,2.9.51,11.14,4.87,14.94,1.69,1.48,3.56,2.15,5.36,1.37C169.55,444.14,170.15,441.74,169.34,438.57Z" style="opacity:0.1"></path></g></g><g id="freepik--character-2--inject-19"><g id="freepik--character--inject-19"><g id="freepik--bottom--inject-19"><path d="M169.41,325.56c.75-10.4-.41-18.36.45-34.6h0c.08-4.16.23-8.62.51-12.58.94-13.32,3-17.87,3.18-20.44,0,0,.35-20.73,1.22-49.89.41-13.71,4.39-17.86,7.56-25.14h37.75c4.21,18,5.41,57.13,5.29,75.64-.07,9.44-3.15,59.15-3.23,60.32-.27,4.12.09,5.74,1.71,7.48,3.38,3.62,8.28,7.08,12.52,10.24-.61,1.62-6.44,2.34-9,1.1a64.42,64.42,0,0,1-9.41-6c-3.48-2.57-7.93-4.64-8-8.56a4.29,4.29,0,0,0-.12-.7c-.07-2.29-5.41-36.07-5.85-43.9-.38-6.74.44-18.18.44-18.18l-4.35-28.54s-2.68,16.87-5.39,28.39c-2.21,9.38-5.85,25.38-8.33,36.92h0c-2.39,13.29-5.89,22.76-6.5,29.41-.18,1.59-2,17.19-2.73,20.76s-8.52,3.66-9-2.48C167.83,340.72,169.27,327.52,169.41,325.56Z" style="fill:#ffbda7"></path><path d="M200.14,231.81l3.18-20.59s12.29-1.46,16.76-5.76c0,0-5.64,8-14,9.25l-3.5,17.07,1.85,28.33Z" style="fill:#9a4a4d"></path><path d="M242.85,341.51a3.34,3.34,0,0,1-.59,3.39c-1.34,1.18-5.28,3.14-10.53,2.51s-8.1-2.21-10.22-3.94-5.08-4.18-7.46-4.67a14.64,14.64,0,0,1-5.32-2.11c-.71-.67-.64-3.7-.64-3.7Z" style="fill:#263238"></path><path d="M209.79,321.32s-.4,0-.52.72-.31,3.26-.64,4.63a24.33,24.33,0,0,0-.43,7.36c.3,1.55,3.9,2.59,6.21,3.43a29.23,29.23,0,0,1,7.48,4.62,21.68,21.68,0,0,0,11.1,4c5.21,0,8.58-1.43,9.6-3.32,1.26-2.33,1-4.44-5.06-7.15-1.14-.51-5.15-2.83-6.51-3.67a29.33,29.33,0,0,1-4.11-3,22.33,22.33,0,0,1-1.85-1.79,8.13,8.13,0,0,1-1.54-1.92c-.07-.16-.12-.34-.18-.5a8.93,8.93,0,0,1-.41-1.4c-.1-.5-.17-1.23-.64-1.52a4,4,0,0,0-2.15-.23,25.73,25.73,0,0,0-3.23.67,3,3,0,0,0-2.21,1.58,4.32,4.32,0,0,0-.47,2.18c0,.35,0,.7,0,1.05,0,.15.06.42-.15.36s-.43-.58-.5-.76c-.17-.39-.28-.8-.47-1.19a6.5,6.5,0,0,0-.76-1.26,5.75,5.75,0,0,0-1-1,10,10,0,0,1-1-.66A2.34,2.34,0,0,1,209.79,321.32Z" style="fill:#37474f"></path><path d="M238.5,336.06c-7.54.6-10.59,6.06-10.88,8.95a18,18,0,0,0,5.37,1.07c5.21,0,8.79-1.43,9.81-3.32C244,340.56,243.88,338,238.5,336.06Z" style="fill:#fafafa"></path><path d="M226.46,337a.34.34,0,0,1-.23-.08.37.37,0,0,1-.06-.52c1-1.3,4.78-3.81,7.52-3.54a.37.37,0,0,1-.07.74c-2.56-.25-6.05,2.23-6.87,3.26A.37.37,0,0,1,226.46,337Z" style="fill:#f0f0f0"></path><path d="M223.19,335.17a.34.34,0,0,1-.23-.08.37.37,0,0,1-.06-.52c1-1.3,4.78-3.81,7.52-3.54a.37.37,0,0,1,.33.41.36.36,0,0,1-.4.33c-2.56-.25-6,2.23-6.87,3.26A.38.38,0,0,1,223.19,335.17Z" style="fill:#f0f0f0"></path><path d="M220.16,333a.41.41,0,0,1-.24-.08.38.38,0,0,1-.06-.52c1-1.3,4.79-3.81,7.53-3.54a.37.37,0,0,1-.08.74c-2.56-.25-6.05,2.23-6.87,3.26A.37.37,0,0,1,220.16,333Z" style="fill:#f0f0f0"></path><path d="M217.18,330.91a.4.4,0,0,1-.23-.08.37.37,0,0,1-.06-.52c1.42-1.84,5.4-3.85,8.15-3.58a.37.37,0,0,1,.33.4.38.38,0,0,1-.4.34c-2.48-.25-6.23,1.66-7.5,3.3A.37.37,0,0,1,217.18,330.91Z" style="fill:#f0f0f0"></path><path d="M179.64,350.07c-.21,3.56-.76,5.92-2,8a5.25,5.25,0,0,1-6.06,2.13c-2.42-.61-5.51-2.24-6.2-5.31a19.46,19.46,0,0,1-.55-8.48Z" style="fill:#263238"></path><path d="M169.49,324.29c-1,.08-1.28,4.86-1.86,9.64-.61,5.14-2.14,7.26-2.69,11.46-.63,4.81.16,7,1.85,9.86s7.64,5.76,10.58,1.6c2.4-3.4,2.5-7.16,2.28-12a104.22,104.22,0,0,1,.32-12.16c.19-3.6,1-7.22.12-7.63-.06.53-.13,1.2-.2,1.72a8.29,8.29,0,0,1-.32,1.92c-.1.27-.32.55-.41.11a3,3,0,0,1,0-.89c.14-1.33-.52-1.43-.88-1.54a44.6,44.6,0,0,0-4.62-.65c-.76,0-3.38-.17-3.72.27a3,3,0,0,0-.33,1.39c-.09.72-.26,1.25-.28,1-.05-.52.06-1.86.07-2.19s.06-.73.07-1.05S169.47,324.6,169.49,324.29Z" style="fill:#37474f"></path><path d="M164.66,348.18a12,12,0,0,0,1.86,7.3c1.68,2.91,8.13,5.77,11.06,1.61a13.6,13.6,0,0,0,2.06-7C177.88,346.86,167.44,345.45,164.66,348.18Z" style="fill:#fafafa"></path><path d="M177.47,344.84l-.12,0a17,17,0,0,0-9.12-.89.37.37,0,0,1-.45-.27.38.38,0,0,1,.28-.45,17.42,17.42,0,0,1,9.61.94.38.38,0,0,1,.17.5A.36.36,0,0,1,177.47,344.84Z" style="fill:#f0f0f0"></path><path d="M168.45,340.34a.37.37,0,0,1-.08-.71c4.45-1.51,9.4.75,9.59.85a.37.37,0,0,1-.34.65s-4.87-2.22-9-.81A.26.26,0,0,1,168.45,340.34Z" style="fill:#f0f0f0"></path><path d="M168.61,337a.35.35,0,0,1-.31-.24.37.37,0,0,1,.22-.47,13,13,0,0,1,9.77.83.36.36,0,0,1,.13.5.38.38,0,0,1-.51.13s-4.58-2.4-9.14-.77A.31.31,0,0,1,168.61,337Z" style="fill:#f0f0f0"></path><path d="M168.85,333.64a.35.35,0,0,1-.31-.24.37.37,0,0,1,.22-.47c4.59-1.72,9.65.82,9.84.93a.37.37,0,0,1,.13.5.35.35,0,0,1-.5.13s-4.95-2.47-9.21-.87A.52.52,0,0,1,168.85,333.64Z" style="fill:#ebebeb"></path><path d="M179.7,182.91c-4.47,8.15-6.88,14.82-7.33,39.06s.33,31.16.24,34.08-1.8,8.15-3.29,22.55.27,31.56.27,31.56,1,2.32,6.54,2.81c5.08.46,7.59-1.45,7.59-1.45s7-28,8.89-36.72,7.53-37.19,7.53-37.19l3.32,23.13s-1.55,7.95,0,20.58,4.28,25.56,4.28,25.56a23,23,0,0,0,7.8,1.28,17.35,17.35,0,0,0,7.62-2s3.55-37.42,3.55-51.73-1.07-50.81-4.31-72Z" style="fill:#37474f"></path><path d="M204.67,210.08l-4.53,27.53,3.32,23.13-1.41-23.44,4-22.59c3.45-.82,11.31-5,13.47-10.88C214.25,209.4,204.67,210.08,204.67,210.08ZM188.54,194c.61-2.31,1.25-4.61,2-6.93a34.12,34.12,0,0,0-3.11,6.58,62.47,62.47,0,0,0-2.07,7,72.25,72.25,0,0,0-1.31,7.14,47.27,47.27,0,0,0-.48,7.24c.58-2.36,1.12-4.69,1.65-7s1.06-4.68,1.62-7S188,196.31,188.54,194Zm-3.46-1.73c.77-1.42,1.56-2.83,2.27-4.32a25.85,25.85,0,0,0-3.27,3.67,35.12,35.12,0,0,0-2.66,4.14,31.14,31.14,0,0,0-2,4.49,19.43,19.43,0,0,0-1.11,4.81l2.2-4.33c.75-1.42,1.49-2.84,2.27-4.24S184.31,193.67,185.08,192.26Zm-2.88,91.91q-2,11.18-3.73,22.41,2.59-11.07,4.9-22.18c1.56-7.42,3-14.82,4.48-22.28s2.28-15,3-22.56,1.29-15.09,1.74-22.66c-1,7.51-2,15-2.92,22.53s-2,15-3.34,22.42S183.52,276.72,182.2,284.17Zm39.15-37.66c.15,3.29.34,6.59.29,9.84s-.27,6.56-.44,9.85l-.49,9.87q-.51,9.89-.79,19.78,1.17-9.84,2-19.7c.54-6.58,1.05-13.14,1.27-19.78,0-6.67-.58-13.23-1.17-19.81s-1.41-13.13-2.42-19.66l1.23,19.75C221,239.94,221.2,243.23,221.35,246.51Z" style="fill:#263238"></path></g><g id="freepik--Top--inject-19"><path d="M212.67,138.07c7.69,1.66,10,4.38,14.55,10.79,2.67,3.73,10.79,16.31,10.79,16.31,1.33-.72,12.23-6.72,15-9.3,3-2.72,2.4-4.37,2.81-6.56s1.5-3.73,1.7-7.22c.09-1.67,1.78-1,2.31.09,1.06,2.19.25,5.64,1.21,5.65a8.39,8.39,0,0,0,3-2.25c2.23-2.34,3-4.71,5-7.26.74-1,1.7-2,3.07-1.74a3.17,3.17,0,0,1,.4.14.52.52,0,0,1,.3.49,5.2,5.2,0,0,1-.22,1.11c-.08.26-.35,1-.35,1s1.2.43,1.29,1a4.12,4.12,0,0,1-.52,2.5c.45.46,1.08,1.54-.11,3.34.43.28,1.18,1.8-.13,4.29a34.49,34.49,0,0,1-4.45,6.39c-2.63,2.86-4.79,3.69-8.16,6.57s-9.81,9.36-15.33,13.7c-6.4,5-8.82,6.21-13.42,2.43-2.38-1.95-17-19.42-17-19.42Z" style="fill:#ffbda7"></path><path d="M262.25,149.37c1,2,.27,5.56-2.9,7.73C262.72,156.32,264.76,151.82,262.25,149.37Z" style="fill:#f0997a"></path><path id="freepik--chest--inject-19" d="M175,194.2c1.66-7.55,3.12-13.34,3.1-15-.08-7.24-2-16.76-2.61-21-1.37-9.16-.79-16.29,1.34-18.09l12.43-4.31s12.31,0,14.33.2c1,.1,9.11,2,9.12,2a30.13,30.13,0,0,1,6.33,8.11c2.32,4.15,2.73,7.66,3.14,16.56.53,11.31,1.75,24,1.75,31.92C214.51,200.43,187.07,201.26,175,194.2Z" style="fill:#455a64"></path><g id="freepik--Book--inject-19"><path d="M245,161.58a3.09,3.09,0,0,1,1-2.88c1.34-1,2.74-1.39,3.29-3.87l2.5,1.48-3.08,5.28Z" style="fill:#353935"></path><path d="M245,161.58a3.09,3.09,0,0,1,1-2.88c1.34-1,2.74-1.39,3.29-3.87l2.5,1.48-3.08,5.28Z" style="fill:#fff;opacity:0.75"></path><path d="M245,161.58a7.4,7.4,0,0,0-6.89-1.75c-4.44.95-6.2,2.08-14.74,1.95l.78,3.05,22.16-1.45Z" style="fill:#353935"></path><path d="M245,161.58a7.4,7.4,0,0,0-6.89-1.75c-4.44.95-6.2,2.08-14.74,1.95l.78,3.05,22.16-1.45Z" style="fill:#fff;opacity:0.75"></path><polygon points="223.36 161.78 200.2 174.79 200.21 177.99 224.14 164.83 223.36 161.78" style="fill:#353935"></polygon><polygon points="223.36 161.78 200.2 174.79 200.21 177.99 224.14 164.83 223.36 161.78" style="fill:#fff;opacity:0.8"></polygon><polygon points="223.36 161.78 200.2 174.79 200.21 177.99 224.14 164.83 223.36 161.78" style="opacity:0.1"></polygon><g style="opacity:0.1"><path d="M249.92,156.62a4.39,4.39,0,0,1-.91,1.45,11.46,11.46,0,0,1-1.26,1.15,8.49,8.49,0,0,0-1.24,1.15,3.31,3.31,0,0,0-.43.69,1.65,1.65,0,0,0-.16.76l-.27,0a2.06,2.06,0,0,1,.21-.9,3,3,0,0,1,.5-.72,8.17,8.17,0,0,1,1.31-1.12A12.46,12.46,0,0,0,249,158,4.37,4.37,0,0,0,249.92,156.62Z"></path><path d="M249.57,158.07a4.3,4.3,0,0,1-.67.87c-.26.28-.52.54-.76.81a5,5,0,0,0-.66.87,2.23,2.23,0,0,0-.35,1l-.27,0a2.63,2.63,0,0,1,.44-1.06,5.5,5.5,0,0,1,.74-.85c.26-.26.54-.51.81-.76A4.71,4.71,0,0,0,249.57,158.07Z"></path><path d="M230.46,163.69a33.85,33.85,0,0,0,3.61-.56c1.19-.25,2.37-.55,3.56-.84a17.07,17.07,0,0,1,3.63-.5,12.71,12.71,0,0,1,1.85.06,5.82,5.82,0,0,1,.91.17,2.19,2.19,0,0,1,.88.43l-.19.19a2.07,2.07,0,0,0-.76-.37,6.39,6.39,0,0,0-.87-.18,12.2,12.2,0,0,0-1.81-.09,16.27,16.27,0,0,0-3.61.43c-1.19.26-2.38.54-3.58.77A31.78,31.78,0,0,1,230.46,163.69Z"></path><path d="M236.32,163.54c.69-.1,1.36-.25,2-.38s1.37-.27,2.06-.36a13.07,13.07,0,0,1,2.08-.16,5.71,5.71,0,0,1,2.08.37l-.1.25a5.56,5.56,0,0,0-2-.41,13,13,0,0,0-2.07.08c-.69.07-1.37.18-2.05.29S237,163.46,236.32,163.54Z"></path></g><polyline points="248.16 161.29 251.77 155.04 252.88 155.66 249.27 161.93" style="fill:#353935"></polyline><path d="M247.17,162.53s-23.71,13-24.32,13.36l0,0a8.75,8.75,0,0,1-2.49.81l1.12.64a6.32,6.32,0,0,0,1.91-.54h0l.22-.12.13-.07L248,163.3Z" style="fill:#353935"></path><path d="M247.17,162.53,222.8,175.91a8.75,8.75,0,0,1-2.49.81l1.12.64a6.32,6.32,0,0,0,1.91-.54h0l.22-.12.13-.07L248,163.3Z" style="opacity:0.35000000000000003"></path><polygon points="244.53 163.43 222.68 164.99 199.56 177.76 199.57 178.91 221.42 177.35 245.64 164.06 244.53 163.43" style="fill:#353935"></polygon><path d="M223.79,165.62l-24.22,13.29,21.85-1.56,24.22-13.29Z" style="opacity:0.2"></path><polygon points="222.68 164.99 223.79 165.62 199.57 178.91 199.56 177.76 222.68 164.99" style="opacity:0.35000000000000003"></polygon><path d="M248,161.22a3.5,3.5,0,0,0-3,.36c-1,.59-1.26,1.38-.58,1.77l1.23.71,3.63-2.13-1.11-.63Z" style="fill:#455a64"></path><path d="M248.16,161.3c-.21,1-1.54,1.71-3.63,2.13l1.11.63a4.45,4.45,0,0,0,3.63-2.13Z" style="fill:#353935"></path></g><path d="M207.92,178.32c1.9-.12,5.37-.08,7-1.87,2.58-2.18,3.34-2.1,5.82-2.88,2.87-.92,2.91-1.41,4.58-2.31s2.8-1.26,3.47-.81,1.06.92.12,1.78l-2.15,1.93,4.67-2.15c2-.92,5.18-2.46,6.14-3s3.12-1.72,3.12-1.72.54.81-.48,1.77-3.71,3.27-4.5,4-1.69,1.53-2.43,2.13-1.3,1.31-2.52,2.38a20,20,0,0,1-3.2,2.43c-.75.47-3.18,1.82-6.11,3.23a66.64,66.64,0,0,1-8.56,3.68,127.26,127.26,0,0,1-20.2,4.63c-9.64,1.29-11.19.71-12.75.33-1-.25-2-1.26-3.53-5.32s-3.71-13.66-5-19.34c-1.5-6.48-3.3-12.72-2.93-16.91s2.23-8.58,8.31-10.13c4.54,1.93,5.81,5.94,7.68,16.17,1.76,9.55,4.05,22.61,4.05,22.61s6.69.32,11,0C203,178.67,206,178.44,207.92,178.32Z" style="fill:#ffbda7"></path><path d="M240.72,167.28a1.22,1.22,0,0,1,.06,1.07,2.34,2.34,0,0,1-.66.87l-1.6,1.49-3.23,2.94-1.63,1.46c-.56.46-1,1-1.57,1.49a27.76,27.76,0,0,1-3.34,2.87,36,36,0,0,1-3.79,2.21c-1.3.67-2.61,1.33-3.93,1.93s-2.64,1.24-4,1.79-2.73,1-4.12,1.47a73.67,73.67,0,0,0,8-3.58,69.37,69.37,0,0,0,7.62-4.2,27.36,27.36,0,0,0,3.3-2.79,20.85,20.85,0,0,1,1.61-1.5l1.65-1.42,3.32-2.84,1.68-1.4a2.34,2.34,0,0,0,.68-.82A1.19,1.19,0,0,0,240.72,167.28Z" style="fill:#f0997a"></path><path d="M226.79,174.16a19.32,19.32,0,0,0-2.65,3.11l4.93-4.16Z" style="fill:#f0997a"></path><path d="M183.27,102.39c0,.22-1.27.93-1.5,1.15a7.23,7.23,0,0,0-1.13,1.39,9.54,9.54,0,0,0-1.21,3.65,64.59,64.59,0,0,0-.32,6.53,43.26,43.26,0,0,1-1,6.27,21.13,21.13,0,0,0-.65,5.53,7.23,7.23,0,0,0,2.18,5,12.09,12.09,0,0,1-.11-5.58,11.59,11.59,0,0,0,.77,3.4,8,8,0,0,0,3.88,3.74,20.66,20.66,0,0,0,5.25,1.57,37.1,37.1,0,0,0,8.92.68q2.76-.14,5.51-.54a16.17,16.17,0,0,0,6.73-2.24,6.73,6.73,0,0,0,3.13-6,7,7,0,0,1,1,3.78,7.58,7.58,0,0,0,1.7-5.34,13.05,13.05,0,0,0-1.66-5.45,26.74,26.74,0,0,1-1.66-3.24,4.65,4.65,0,0,1-.2-3.24c.3-.69.82-1.32,1.15-2a12.24,12.24,0,0,0,1.26-6.14c-.4-4.35-3.08-10-11.07-11.61C197.61,92.29,184.89,93.74,183.27,102.39Z" style="fill:#263238"></path><g id="freepik--head--inject-19"><g id="freepik--head--inject-19"><g id="freepik--head--inject-19"><path d="M187.3,124.74a5,5,0,0,1-4.48-1.68c-2.36-2.54-2.58-5.13-1.48-6.86.9-1.42,3.13-2.33,4.69-1.37s1.72,1.86,2.35,3,2.25.25,1.71-4.41c3.24-1.5,2.72-6.83,4.47-9,2.73-3.4,7.25-2.52,8.72-1.72a6,6,0,0,1,6.15-.39c2.18,1.14,3.63,3.55,4.4,11.83.79,8.45-.69,14.07-2.67,15.86a9.78,9.78,0,0,1-6.93,1.9l0,4.62s8.73,7.51-2.41,6.7a17.57,17.57,0,0,1-12.62-7l-.08-12.8S189,124.43,187.3,124.74Z" style="fill:#ffbda7"></path><path d="M205.59,123.23a2.47,2.47,0,0,1-2.92,1.92,2.43,2.43,0,0,1-1.95-2.87Z" style="fill:#b16668"></path><path d="M200.7,123.08a2.45,2.45,0,0,0,2,2.07,2.37,2.37,0,0,0,.88,0A2.52,2.52,0,0,0,200.7,123.08Z" style="fill:#f28f8f"></path><path d="M211.43,108.86l-3.21-1a1.64,1.64,0,0,1,2.09-1.09A1.72,1.72,0,0,1,211.43,108.86Z" style="fill:#263238"></path><path d="M199.57,107.94l-3.2,1.7a1.7,1.7,0,0,1,.67-2.4A1.93,1.93,0,0,1,199.57,107.94Z" style="fill:#263238"></path><path d="M215.49,109.73l-.63,0a19.57,19.57,0,0,0-6.31.47c-2,.68-2.65,1.36-3.76,1.42s-2-.58-4.19-1.07a22.13,22.13,0,0,0-6.77.11l-.68.1a1,1,0,0,0-.68,1.1,2.57,2.57,0,0,0,.74,1.22,1.3,1.3,0,0,1,.25.49,21.58,21.58,0,0,0,1.06,3.39,4.77,4.77,0,0,0,.95,1.2,4,4,0,0,0,.47.34l.26.15a4.23,4.23,0,0,0,.78.31l.13,0,.21.05.21,0a4.7,4.7,0,0,0,.68.08h.65c2.78-.11,3.85-1.42,4.45-2.75s.3-3.16,1.58-3.22h.23c1,.17,1,1.86,1.64,3a5.09,5.09,0,0,0,1,1.29l.23.2.12.09.13.09.11.07.13.07a.31.31,0,0,0,.1,0l.07,0a4.06,4.06,0,0,0,1.13.38h.1a5.92,5.92,0,0,0,1.36.07A3.77,3.77,0,0,0,215,116a20.85,20.85,0,0,0,.56-3.47.93.93,0,0,1,.21-.46,2.31,2.31,0,0,0,.5-1.29A1.09,1.09,0,0,0,215.49,109.73Zm-13,5.44a3.74,3.74,0,0,1-.84,1.86h0a4,4,0,0,1-3,1.17,3.58,3.58,0,0,1-3-1.2l-.1-.12-.09-.13-.08-.12-.07-.1-.05-.09a.59.59,0,0,1,0-.08l-.07-.12h0l-.17-.38h0a2,2,0,0,1-.09-.22c0-.13-.09-.26-.12-.37l0-.07,0-.06c-.28-.9-.66-2.68-.21-3.1s1.69-.9,3.77-.79h.22a7.46,7.46,0,0,1,1,.11l.37.07c.33.07.65.15.94.24l.29.1.32.13.06,0,.11,0a2,2,0,0,1,.66.45A4,4,0,0,1,202.51,115.17Zm12-.91a3.75,3.75,0,0,1-1.75,3,3.6,3.6,0,0,1-1.52.39,3.53,3.53,0,0,1-3.18-1.22v0l-.06-.08-.07-.09,0,0-.09-.14-.1-.17a.59.59,0,0,1,0-.08s0,0,0,0l0-.07,0-.05a3.92,3.92,0,0,1-.24-.67,4.13,4.13,0,0,1-.12-2.75,5.69,5.69,0,0,1,3.28-1.49,8.67,8.67,0,0,1,.95-.11h.84l.26,0a3.5,3.5,0,0,1,.48.06l.11,0h0l.08,0,.12,0,.14,0,.23.08,0,0a1.73,1.73,0,0,1,.53.28C214.8,111.54,214.67,113.34,214.53,114.26Z" style="fill:#37474f"></path><path d="M209.41,119l-4.72,2-1-5.95c.17-.89.34-1.81,1.11-1.88Z" style="fill:#f0997a"></path><path d="M193.3,111.41,186,114.83a7.92,7.92,0,0,1,1.12.88l6.34-2.82Z" style="fill:#37474f"></path></g><path d="M211.44,113.59c.26.73-.25,1-1,1.23s-1.35.42-1.61-.32a1.38,1.38,0,0,1,.8-1.79A1.41,1.41,0,0,1,211.44,113.59Z" style="fill:#263238"></path><path d="M209,113a3.4,3.4,0,0,1,1-.38,2.71,2.71,0,0,1,1.06-.07,3.67,3.67,0,0,1,1.08.3s.05.09,0,.09a7.54,7.54,0,0,0-1-.08A4.71,4.71,0,0,0,210,113a4.92,4.92,0,0,0-1.34.52l-.43.24s-.08-.08-.06-.11A2.38,2.38,0,0,1,209,113Z" style="fill:#263238"></path><path d="M197.67,114.08c-.16.77.38.94,1.12,1.1s1.39.23,1.55-.54a1.38,1.38,0,0,0-1-1.67A1.41,1.41,0,0,0,197.67,114.08Z" style="fill:#263238"></path><path d="M200,113.16a3.26,3.26,0,0,0-1.07-.24,2.66,2.66,0,0,0-1.05.08,3.27,3.27,0,0,0-1,.44s0,.1,0,.09a8.27,8.27,0,0,1,.95-.21,4.74,4.74,0,0,1,1.19,0,5,5,0,0,1,1.4.33l.46.18s.06-.08,0-.11A2.42,2.42,0,0,0,200,113.16Z" style="fill:#263238"></path></g><path d="M204.23,131.91c-4.36-.16-10.2-1.68-11.77-4.44.87,3,3.94,4.52,6.39,5.19a26.1,26.1,0,0,0,5.34.91Z" style="fill:#f0997a"></path></g></g></g></g><g id="freepik--character-1--inject-19"><g id="freepik--Books--inject-19"><g id="freepik--book--inject-19"><polygon points="38.91 388.65 105.23 426.1 207.08 367.66 140.76 330.2 38.91 388.65" style="fill:#353935"></polygon><polygon points="38.91 388.65 105.23 426.1 207.08 367.66 140.76 330.2 38.91 388.65" style="opacity:0.6000000000000001"></polygon><path d="M106,423.37,41.86,387c1.59-4.52,1.47-5.89-.33-11.91l63.7,36S106.39,411,106,423.37Z" style="fill:#f5f5f5"></path><path d="M102.12,406.16A12.84,12.84,0,0,1,108,416.24v7.87c0,3.72-2.63,5.22-5.86,3.36l-63.21-35.9v-2.92l62.4,35.23c1.94,1.11,3.51.21,3.51-2l0-7a7.75,7.75,0,0,0-3.52-6.05L38.91,373.56v-3.31Z" style="fill:#353935"></path><path d="M102.12,406.16A12.84,12.84,0,0,1,108,416.24v7.87c0,3.72-2.63,5.22-5.86,3.36l-63.21-35.9v-2.92l62.4,35.23c1.94,1.11,3.51.21,3.51-2l0-7a7.75,7.75,0,0,0-3.52-6.05L38.91,373.56v-3.31Z" style="opacity:0.5"></path><path d="M38.91,370.26l101.85-58.45,63.2,35.9a12.85,12.85,0,0,1,5.86,10.08v7.88c0,1.85-.65,3.16-1.72,3.77L106.25,427.88c1.07-.61,1.72-1.91,1.72-3.76v-7.89a12.86,12.86,0,0,0-5.85-10.08Z" style="fill:#353935"></path><path d="M38.91,370.26l101.85-58.45,63.2,35.9a12.85,12.85,0,0,1,5.86,10.08v7.88c0,1.85-.65,3.16-1.72,3.77L106.25,427.88c1.07-.61,1.72-1.91,1.72-3.76v-7.89a12.86,12.86,0,0,0-5.85-10.08Z" style="opacity:0.35000000000000003"></path><path d="M106.27,410.5a11.92,11.92,0,0,1,1.71,5.73v7.89c0,1.85-.65,3.15-1.72,3.76L208.1,369.44c1.07-.61,1.72-1.92,1.72-3.77v-7.88a11.83,11.83,0,0,0-1.72-5.73Z" style="fill:#353935"></path><path d="M106.27,410.5a11.92,11.92,0,0,1,1.71,5.73v7.89c0,1.85-.65,3.15-1.72,3.76L208.1,369.44c1.07-.61,1.72-1.92,1.72-3.77v-7.88a11.83,11.83,0,0,0-1.72-5.73Z" style="opacity:0.45"></path><path d="M194.35,359.87c1.89,8.24,1.87,11.46,0,17.51l-4.85,2.8c1.87-6.05,1.9-9.27,0-17.51Z" style="fill:#353935"></path><path d="M127.54,398.26c1.9,8.24,1.88,11.35,0,17.4l-4.85,2.8c1.87-6,1.89-9.16,0-17.4Z" style="fill:#353935"></path></g><g id="freepik--book--inject-19"><polygon points="31.73 369.37 98.1 406.73 199.87 348.16 133.51 310.79 31.73 369.37" style="fill:#353935"></polygon><polygon points="31.73 369.37 98.1 406.73 199.87 348.16 133.51 310.79 31.73 369.37" style="opacity:0.4"></polygon><path d="M98.81,404,34.68,367.67c1.59-4.52,1.46-6.54-.35-12.55l63.75,35.95S99.24,391.64,98.81,404Z" style="fill:#f5f5f5"></path><path d="M95,386.14a12.82,12.82,0,0,1,5.87,10.07v8.53c0,3.71-2.61,5.22-5.85,3.37L31.74,372.29v-2.92l62.45,35.15c1.94,1.11,3.51.2,3.5-2l-.06-7.66a7.7,7.7,0,0,0-3.53-6L31.71,353.62v-3.3Z" style="fill:#353935"></path><path d="M95,386.14a12.82,12.82,0,0,1,5.87,10.07v8.53c0,3.71-2.61,5.22-5.85,3.37L31.74,372.29v-2.92l62.45,35.15c1.94,1.11,3.51.2,3.5-2l-.06-7.66a7.7,7.7,0,0,0-3.53-6L31.71,353.62v-3.3Z" style="opacity:0.25"></path><path d="M31.71,350.32l101.77-58.57,63.25,35.82a12.88,12.88,0,0,1,5.87,10.07v8.53c0,1.85-.65,3.15-1.71,3.76L99.13,408.51c1.06-.61,1.71-1.92,1.71-3.77v-8.53A12.88,12.88,0,0,0,95,386.14Z" style="fill:#353935"></path><path d="M99.11,390.48a11.92,11.92,0,0,1,1.73,5.73v8.53c0,1.85-.65,3.16-1.71,3.77L200.9,349.93c1.06-.61,1.71-1.91,1.71-3.76v-8.53a11.8,11.8,0,0,0-1.72-5.73Z" style="fill:#353935"></path><path d="M99.11,390.48a11.92,11.92,0,0,1,1.73,5.73v8.53c0,1.85-.65,3.16-1.71,3.77L200.9,349.93c1.06-.61,1.71-1.91,1.71-3.76v-8.53a11.8,11.8,0,0,0-1.72-5.73Z" style="opacity:0.15"></path><path d="M187.13,339.73c1.91,8.25,1.89,12.12,0,18.16l-4.84,2.81c1.86-6.05,1.88-9.92,0-18.16Z" style="fill:#353935"></path><path d="M120.38,378.25c1.9,8.24,1.88,12,0,18l-4.84,2.8c1.86-6.05,1.88-9.8,0-18Z" style="fill:#353935"></path><g style="opacity:0.4"><path d="M187.13,339.73c1.91,8.25,1.89,12.12,0,18.16l-4.84,2.81c1.86-6.05,1.88-9.92,0-18.16Z" style="fill:#fff"></path><path d="M120.38,378.25c1.9,8.24,1.88,12,0,18l-4.84,2.8c1.86-6.05,1.88-9.8,0-18Z" style="fill:#fff"></path></g></g><g id="freepik--book--inject-19"><path d="M34.12,346.21l2.66-1.42-2.42-.58A1.82,1.82,0,0,0,34.12,346.21Z" style="fill:#353935"></path><path d="M34.12,346.21l2.66-1.42-2.42-.58A1.82,1.82,0,0,0,34.12,346.21Z" style="opacity:0.5"></path><path d="M104.55,381.68a6,6,0,0,1-5.41,0l-60.69-35L129.31,295l2.12-1.22L192.12,328c1.49.86,1.49,2.27,0,3.12Z" style="fill:#353935"></path><path d="M81.76,316.33,60.59,328.51l-13.7-7.91L31,329.81v10.64c0,1.39,1.56,3.38,2.13,3.05a15.25,15.25,0,0,1,3.05,1.08,23.15,23.15,0,0,1,4.4,3.25l48.63-27.22Z" style="fill:#353935"></path><path d="M81.76,316.33,60.59,328.51l-13.7-7.91L31,329.81v10.64c0,1.39,1.56,3.38,2.13,3.05a15.25,15.25,0,0,1,3.05,1.08,23.15,23.15,0,0,1,4.4,3.25l48.63-27.22Z" style="opacity:0.15"></path><path d="M39.7,331.09v11.55l-.19-.12a5.5,5.5,0,0,0-2.59-.81,2.69,2.69,0,0,0-1.71.4V328.5Z" style="fill:#37474f"></path><path d="M42.67,346.6a3.5,3.5,0,0,0-.76-2,6.08,6.08,0,0,0-.75-.86c-.08-.08-.17-.16-.25-.25l-.34-.27-.27-.21c-.2-.15-.41-.28-.6-.41V331.15l3,1.71V346.6Z" style="fill:#e0e0e0"></path><path d="M31,340.45c0,1.39,1.56,3.38,2.13,3.05h0l2.13-1.38v-8.78l-2.13-3.67-1.17-.41-1,.55Z" style="opacity:0.4"></path><path d="M101.85,367v13.17a3.58,3.58,0,0,1-1.8-.43l-6.66-3.84L42.67,346.6V332.8Z" style="fill:#ebebeb"></path><path d="M190.6,317.49v9.94a4,4,0,0,1-1.79,3.13L110.3,375.88l-6.65,3.84a3.63,3.63,0,0,1-1.8.43V368.46Z" style="fill:#f5f5f5"></path><path d="M129.31,277.9,38.45,330.37v1.22c0,.67-1,.92-2.12.25s-2.12-1.52-2.12-2.69L34.1,328l92.57-53.45.38-.22a1.31,1.31,0,0,1,.15.57v.56C127.2,276.14,128.14,277.22,129.31,277.9Z" style="fill:#353935"></path><path d="M129.31,277.9,38.45,330.37v1.22c0,.67-1,.92-2.12.25s-2.12-1.52-2.12-2.69L34.1,328l92.57-53.45.38-.22a1.31,1.31,0,0,1,.15.57v.56C127.2,276.14,128.14,277.22,129.31,277.9Z" style="opacity:0.1"></path><path d="M99.14,365.41,39.79,331.15c-.75-.4-1.44-.72-1.73-.56l.39-.22,90.86-52.47,1.06-.61a3.39,3.39,0,0,1,2.86.43l58.89,34c1.49.87,1.49,2.27,0,3.12l-87.57,50.57A5.93,5.93,0,0,1,99.14,365.41Z" style="fill:#353935"></path><path d="M127.05,274.33l-.38.22L34.1,328a.76.76,0,0,0-.2-.25l-.31-.18-.67-.39-.82-.47a.84.84,0,0,0-1.05.09.31.31,0,0,0-.11.09,2.44,2.44,0,0,0-.28.39,2.49,2.49,0,0,0-.24.52c-.07.19-.13.39-.19.6s-.09.46-.13.71a2.82,2.82,0,0,0-.05.43c0,.11,0,.21,0,.34s0,.53,0,.81v-2.6a5.52,5.52,0,0,1,2.7-4.16l87.58-50.57a5.44,5.44,0,0,1,4.82-.35l1.1.65,0,0,.46.27h0A1,1,0,0,1,127.05,274.33Z" style="fill:#353935"></path><path d="M99.14,381.68l-3.66-2.12L40.53,347.83a3.59,3.59,0,0,0-.75-2,8,8,0,0,0-2.41-2.11,5.47,5.47,0,0,0-2.59-.81,2.75,2.75,0,0,0-1.7.56,9.38,9.38,0,0,1-1-4.55H30c0,2.88.94,5.76,2.11,6.42l1,.62c.59.34,1.06.36,1.06,0v-.56c0-.63.95-.6,2.12.08s2.12,1.73,2.12,2.35v.57c0,.32.81,1,1.8,1.61l53.14,30.68,5.75,3.32h0a5.64,5.64,0,0,0,2.7.64v-2.41A5.46,5.46,0,0,1,99.14,381.68Z" style="fill:#353935"></path><path d="M99.14,381.68l-3.66-2.12L40.53,347.83a3.59,3.59,0,0,0-.75-2,8,8,0,0,0-2.41-2.11,5.47,5.47,0,0,0-2.59-.81,2.75,2.75,0,0,0-1.7.56,9.38,9.38,0,0,1-1-4.55H30c0,2.88.94,5.76,2.11,6.42l1,.62c.59.34,1.06.36,1.06,0v-.56c0-.63.95-.6,2.12.08s2.12,1.73,2.12,2.35v.57c0,.32.81,1,1.8,1.61l53.14,30.68,5.75,3.32h0a5.64,5.64,0,0,0,2.7.64v-2.41A5.46,5.46,0,0,1,99.14,381.68Z" style="opacity:0.30000000000000004"></path><path d="M99.16,365.42h0l-3.66-2.12L53.26,338.93l-13.47-7.78c-1-.56-1.74-.76-1.79-.47a0,0,0,0,0,0,0v.62c0,.67-1,.67-2.12,0a2.83,2.83,0,0,1-1.66-2.13v-.66a1,1,0,0,0-.31-.79l-.31-.18c-.19-.1-.42-.24-.67-.39l-.82-.47a.84.84,0,0,0-1.05.09.31.31,0,0,0-.11.09,1.44,1.44,0,0,0-.18.25.45.45,0,0,0-.1.14,2.49,2.49,0,0,0-.24.52c-.07.19-.13.39-.19.6s-.09.46-.13.71a2.82,2.82,0,0,0-.05.43c0,.11,0,.21,0,.34s0,.53,0,.81V339h2.08v-8.26c0-.22,0-.44,0-.64l0-.52a.11.11,0,0,1,0-.06c.19,1.66,1.77,3.14,3.14,3.92a5.3,5.3,0,0,0,2.54.79,2.75,2.75,0,0,0,1.86-.69l.19.1.37.22L93.39,364.5l5.75,3.32h0l0,0a5.61,5.61,0,0,0,2.66.61v-2.4A5.57,5.57,0,0,1,99.16,365.42Z" style="fill:#353935"></path><path d="M99.16,365.42h0l-3.66-2.12L53.26,338.93l-13.47-7.78c-1-.56-1.74-.76-1.79-.47a0,0,0,0,0,0,0v.62c0,.67-1,.67-2.12,0a2.83,2.83,0,0,1-1.66-2.13v-.66a1,1,0,0,0-.31-.79l-.31-.18c-.19-.1-.42-.24-.67-.39l-.82-.47a.84.84,0,0,0-1.05.09.31.31,0,0,0-.11.09,1.44,1.44,0,0,0-.18.25.45.45,0,0,0-.1.14,2.49,2.49,0,0,0-.24.52c-.07.19-.13.39-.19.6s-.09.46-.13.71a2.82,2.82,0,0,0-.05.43c0,.11,0,.21,0,.34s0,.53,0,.81V339h2.08v-8.26c0-.22,0-.44,0-.64l0-.52a.11.11,0,0,1,0-.06c.19,1.66,1.77,3.14,3.14,3.92a5.3,5.3,0,0,0,2.54.79,2.75,2.75,0,0,0,1.86-.69l.19.1.37.22L93.39,364.5l5.75,3.32h0l0,0a5.61,5.61,0,0,0,2.66.61v-2.4A5.57,5.57,0,0,1,99.16,365.42Z" style="opacity:0.30000000000000004"></path><path d="M193.24,313.25v2.45a1.88,1.88,0,0,1-1.07,1.54l0,0L110.3,364.5l-5.75,3.32h0a5.62,5.62,0,0,1-2.69.63v-2.4a5.55,5.55,0,0,0,2.7-.64l3.65-2.12h0l83.91-48.45A1.88,1.88,0,0,0,193.24,313.25Z" style="fill:#353935"></path><path d="M193.24,313.25v2.45a1.88,1.88,0,0,1-1.07,1.54l0,0L110.3,364.5l-5.75,3.32h0a5.62,5.62,0,0,1-2.69.63v-2.4a5.55,5.55,0,0,0,2.7-.64l3.65-2.12h0l83.91-48.45A1.88,1.88,0,0,0,193.24,313.25Z" style="opacity:0.2"></path><path d="M193.24,329.52V332a1.88,1.88,0,0,1-1.07,1.54l0,0L110.3,380.76l-5.75,3.32h0a5.63,5.63,0,0,1-2.69.64v-2.41a5.44,5.44,0,0,0,2.7-.64l3.65-2.11h0l83.91-48.46A1.86,1.86,0,0,0,193.24,329.52Z" style="fill:#353935"></path><path d="M193.24,329.52V332a1.88,1.88,0,0,1-1.07,1.54l0,0L110.3,380.76l-5.75,3.32h0a5.63,5.63,0,0,1-2.69.64v-2.41a5.44,5.44,0,0,0,2.7-.64l3.65-2.11h0l83.91-48.46A1.86,1.86,0,0,0,193.24,329.52Z" style="opacity:0.2"></path></g><g id="freepik--book--inject-19"><polygon points="40.43 321.06 109.25 360.26 200.77 307.74 131.96 268.53 40.43 321.06" style="fill:#353935"></polygon><polygon points="40.43 321.06 109.25 360.26 200.77 307.74 131.96 268.53 40.43 321.06" style="fill:#fff;opacity:0.2"></polygon><path d="M109.88,357.86,43,319.57c1.4-4,1.29-8.58-.29-13.86l66.52,38S110.26,347,109.88,357.86Z" style="fill:#f5f5f5"></path><path d="M106.52,339.35a11.24,11.24,0,0,1,5.14,8.84v10.32c0,3.26-2.3,4.58-5.14,2.95L40.44,323.62v-2.56l65.38,37.25c1.7,1,3.08.18,3.08-1.77l0-9.57a6.75,6.75,0,0,0-3.08-5.3L40.44,304.4v-2.9Z" style="fill:#353935"></path><path d="M106.52,339.35a11.24,11.24,0,0,1,5.14,8.84v10.32c0,3.26-2.3,4.58-5.14,2.95L40.44,323.62v-2.56l65.38,37.25c1.7,1,3.08.18,3.08-1.77l0-9.57a6.75,6.75,0,0,0-3.08-5.3L40.44,304.4v-2.9Z" style="fill:#fff;opacity:0.4"></path><path d="M40.43,301.51,132,249,198,286.82a11.33,11.33,0,0,1,5.14,8.84V306a3.59,3.59,0,0,1-1.51,3.3l-91.52,52.53a3.58,3.58,0,0,0,1.5-3.3V348.18a11.29,11.29,0,0,0-5.13-8.84Z" style="fill:#353935"></path><path d="M40.43,301.51,132,249,198,286.82a11.33,11.33,0,0,1,5.14,8.84V306a3.59,3.59,0,0,1-1.51,3.3l-91.52,52.53a3.58,3.58,0,0,0,1.5-3.3V348.18a11.29,11.29,0,0,0-5.13-8.84Z" style="fill:#fff;opacity:0.85"></path><path d="M110.16,343.15a10.39,10.39,0,0,1,1.5,5v10.34a3.58,3.58,0,0,1-1.5,3.3l91.52-52.53a3.59,3.59,0,0,0,1.51-3.3V295.66a10.55,10.55,0,0,0-1.51-5Z" style="fill:#353935"></path><path d="M110.16,343.15a10.39,10.39,0,0,1,1.5,5v10.34a3.58,3.58,0,0,1-1.5,3.3l91.52-52.53a3.59,3.59,0,0,0,1.51-3.3V295.66a10.55,10.55,0,0,0-1.51-5Z" style="fill:#fff;opacity:0.6000000000000001"></path><path d="M189.61,297.48c1.66,7.23,1.64,13.48,0,18.78l-4.25,2.45c1.64-5.3,1.66-11.54,0-18.77Z" style="fill:#fff"></path><path d="M128.82,332.58c1.66,7.23,1.64,13.48,0,18.78l-4.25,2.45c1.64-5.3,1.66-11.54,0-18.77Z" style="fill:#fff"></path></g></g><g id="freepik--character--inject-19"><g id="freepik--bottom--inject-19"><path d="M148.05,345.4s-6.92,10.59-8.22,15.05c-1.35,4.64-2.88,5.94-3.26,11.23-.08,1.15,0,3.52-.07,4.45a1.37,1.37,0,0,1-1.62,1.39c-2.18,0-4.75-4.64-5.42-9.18a124,124,0,0,1-.69-15.62,6.49,6.49,0,0,1,1.43-3.14,10.19,10.19,0,0,1,1.35-1.49c1.17-1.89,2.41-5.7,3.62-8.26Z" style="fill:#c8856a"></path><path d="M123.69,356.09a4.88,4.88,0,0,0-.92,1.42c-.27.92,1.17,4.49,1.76,5.81a7.51,7.51,0,0,1,.31,5.69,13.11,13.11,0,0,0,1.26,9.08,21.26,21.26,0,0,0,8.91,9.05c4.7,2.66,7.06.58,7.06.58s2.13-2,1.42-3.23S123.69,356.09,123.69,356.09Z" style="fill:#263238"></path><path d="M131.55,348.09c-.15,0-.41-.14-.92.24-.19.14-1.63,2.16-2.67,3.16s-3.57,2.76-4.27,4.6c.31,3.93,3.23,7.27,3,10.86s-1.16,7.61,3.29,13.07,9.95,7.15,12.22,6.48,2.58-2.83.72-7.47c-2-4.92-1.83-14.6-1.83-14.61a30.37,30.37,0,0,1,.4-4,25,25,0,0,1,1.28-3.8,3,3,0,0,0,.16-1.82,3.09,3.09,0,0,0-1.26-1.35,13.8,13.8,0,0,0-2.58-1.55,4.59,4.59,0,0,0-3-.3c-.71.19-1.34.6-2.07.72a2.67,2.67,0,0,1-2.56-1.07,2.19,2.19,0,0,1-.16-2.56A5.85,5.85,0,0,1,131.55,348.09Z" style="fill:#37474f"></path><path d="M127.54,375.91a9,9,0,0,1,8.87-2.41c5.77,1.32,7.1,4.64,7.58,6.53.58,2.25.82,6.14-1.81,6.66-2.85.55-5.75-.46-9.9-3.82S127.54,375.91,127.54,375.91Z" style="fill:#fafafa"></path><path d="M132.58,359.12a.62.62,0,0,0,.53.11c1-.24,5.94-.15,8.11,3,.42-.2.47-.73.18-1.55-2.75-2.72-7.43-2.83-8.63-2.53a.54.54,0,0,0-.4.7A.62.62,0,0,0,132.58,359.12Z" style="fill:#fafafa"></path><path d="M141,365.62a1.74,1.74,0,0,0,0-1.63,11.26,11.26,0,0,0-8.28-2.2.55.55,0,0,0-.4.7.62.62,0,0,0,.21.31.62.62,0,0,0,.53.11C134.1,362.68,138.79,362.77,141,365.62Z" style="fill:#fafafa"></path><path d="M141.62,373.78a3.25,3.25,0,0,0-.27-2.21c-2.76-2.61-7.33-2.71-8.52-2.42a.56.56,0,0,0-.4.7.69.69,0,0,0,.21.31.66.66,0,0,0,.53.12C134.22,370,139.68,370.13,141.62,373.78Z" style="fill:#fafafa"></path><path d="M132.62,366.48a.62.62,0,0,0,.53.11c1-.24,5.83-.15,8,2.86a2,2,0,0,0-.09-1.78,11.29,11.29,0,0,0-8.29-2.2.55.55,0,0,0-.4.7A.62.62,0,0,0,132.62,366.48Z" style="fill:#fafafa"></path><path d="M150.64,362.46s-.19,11-.27,19.42c-.06,6.15,4.38,9.23,7.94,13.53.77.94,2.55,2.69,3.19,3.44a1.42,1.42,0,0,1-.24,2.2c-1.7,1.51-8.71,1.69-12.52-1.3s-7.17-9.2-9.42-11.58c-.85-.9-1.64-1.81-2.39-2.77s-.49-1.79-.52-2.82c0-.49.11-1.83.11-1.83-.45-2.43-1.79-9.84-2.47-12.21Z" style="fill:#c8856a"></path><path d="M134.75,391.52a5.29,5.29,0,0,0,.11,1.75c.36.94,3.83,3.07,5.15,3.81a8,8,0,0,1,3.86,4.6c1.17,3,3.76,5.27,6.78,6.86a22.92,22.92,0,0,0,13.23,2.17c5.65-.64,6.33-3.83,6.33-3.83s.52-3-.84-3.58S134.75,391.52,134.75,391.52Z" style="fill:#263238"></path><path d="M136.34,380c-.15.06-.44.13-.63.76-.07.24,0,2.82-.26,4.29s-1.27,4.5-.7,6.48c2.74,3.11,7.31,4.14,9.34,7.32s3.82,7.12,11,9,12.9-.06,14.4-2,.4-3.95-4.1-6.72c-4.78-2.93-10.75-11.16-10.76-11.17a32.73,32.73,0,0,1-2.22-3.64,27.68,27.68,0,0,1-1.31-4,3.06,3.06,0,0,0-1-1.62,3.26,3.26,0,0,0-1.91-.36,13.92,13.92,0,0,0-3.16.27,4.8,4.8,0,0,0-2.69,1.55c-.48.59-.76,1.33-1.29,1.87a2.85,2.85,0,0,1-2.84.67,2.31,2.31,0,0,1-1.75-2.06A5,5,0,0,1,136.34,380Z" style="fill:#37474f"></path><path d="M150.5,405.83s.26-5,6-7.44,8.92-.44,10.52.85c1.9,1.54,4.56,4.67,2.66,6.71-2.05,2.2-5.14,3.12-10.76,2.84S150.5,405.83,150.5,405.83Z" style="fill:#fafafa"></path><path d="M144.16,388.63a.64.64,0,0,0,.52-.22c.69-.82,4.92-3.76,8.72-2.47.23-.43-.07-.9-.83-1.41-4-.61-8.06,2.16-8.88,3.14a.58.58,0,0,0,.1.84A.63.63,0,0,0,144.16,388.63Z" style="fill:#fafafa"></path><path d="M155.41,388.93a1.86,1.86,0,0,0-1-1.39,11.87,11.87,0,0,0-8.39,3.21.58.58,0,0,0,.11.84.72.72,0,0,0,.37.13.68.68,0,0,0,.52-.23C147.69,390.7,151.71,387.91,155.41,388.93Z" style="fill:#fafafa"></path><path d="M161,395.45a3.46,3.46,0,0,0-1.61-1.7c-4-.51-7.91,2.2-8.73,3.17a.56.56,0,0,0,.11.83.72.72,0,0,0,.37.13.66.66,0,0,0,.52-.23C152.42,396.79,157.1,393.56,161,395.45Z" style="fill:#fafafa"></path><path d="M148.84,394.8a.66.66,0,0,0,.52-.23c.68-.8,4.83-3.69,8.59-2.5a2.16,2.16,0,0,0-1.2-1.45,11.83,11.83,0,0,0-8.39,3.22.57.57,0,0,0,.11.83A.72.72,0,0,0,148.84,394.8Z" style="fill:#fafafa"></path><path d="M127.31,277.52s24.88,14,34.78,25.69c3.54,4.19,5.68,7.8,1,17.73-3.58,7.64-9.46,15.95-15,25.79l-43.27-58.46Z" style="fill:#37474f"></path><path d="M148.84,345.4C142,338.31,121.54,299,121.54,299l1-.1c5.83-2.1,8.66-9.63,8.66-9.63a13.17,13.17,0,0,1-3.11,9.62c3,2.55,9.92,8.35,20.47,17.4,1.84,1.58,5.56,4.58,5,10-.79,7-1.48,14-1.48,14Z" style="fill:#263238"></path><path d="M127.34,277.52h0l-48,4.16c.53,5.68.42,14.24,4.2,20.78,5.23,9.07,9.12,9.42,21.69,16.11,11,5.86,20.55,11.58,23,13.11,1.83,1.14,1.2,5.38,1.44,10.43.25,5.3.62,8.26,2.76,19.68,1,5.55,2.17,10.36,2.17,10.36s9.12,1.62,16.19-1.58c0,0,.73-27.69.83-34.48.08-5.81.82-11.17-3.32-15.79-3.54-3.95-25.69-21.44-25.69-21.44S130.61,288.14,127.34,277.52Z" style="fill:#37474f"></path><path d="M89.39,281.53l.65-.06c-.25,7.64.41,13.49,5.53,19.47,3.65-2.13,3.08-4.37,2-8.37-.31-1.2-.67-2.57-.95-4.1a40.25,40.25,0,0,1-.71-7.49l.66-.05a38.75,38.75,0,0,0,.69,7.43c.27,1.5.62,2.86.93,4.05,1,4,1.73,6.66-2.22,9a37.15,37.15,0,0,0,4.21,4c7.8,6.38,18.91,14,25.54,18.55,2.32,1.59,4.15,2.85,5.09,3.54,3.84,2.81,3.85,4.32,3.26,11-.51,5.87,2.21,25.79,3.74,34l-.66,0c-1.54-8.34-4.24-28.11-3.72-34,.59-6.79.45-7.94-3-10.46-.93-.69-2.76-1.94-5.07-3.53-6.65-4.56-17.77-12.18-25.59-18.58C90.22,298.06,89.08,291.2,89.39,281.53Z" style="fill:#263238"></path></g><g id="freepik--top--inject-19"><g id="freepik--Arm--inject-19"><path d="M114.81,239.4c2.2,7.57,7.86,19.13,10.72,26.11,1.51,3.65,2.94,4.94,8,3.78s19-8.32,21.8-9.72,3.87-2.1,5.62-2.4a6.08,6.08,0,0,0,4.2-2,23.63,23.63,0,0,0,2.94-4.81c1.2-1.1,2.37-2.51,2.34-3.22a2,2,0,0,0-.5-1.21,4.45,4.45,0,0,0,1.17-1.93,2,2,0,0,0-.6-1.5c1.56-1.62,1.85-2.06,1.53-2.87s-.93-2.66-.93-2.66a32,32,0,0,0,5.48.15,3,3,0,0,0,2.56-2.49c.15-.54-7.12-1.59-9.05-1.55-1.6,0-2.29-.4-3.66.9s-5.27,3.54-5.85,4.2-.8,2.6-2.15,6c-1,2.42-2.31,3.86-5.34,5-5.23,2-16.17,4.31-16.17,4.31s-4-13.82-4.84-16.77c-2.34-8.41-5.82-17.9-16.25-17.13Z" style="fill:#c8856a"></path><path d="M115,219c4.53-.35,9.88-.58,13.48,7s7.38,22.32,7.38,22.32-1.74,2.79-7.26,5.41-7.91,1.69-7.91,1.69l-6.28-15.87Z" style="fill:#37474f"></path><path d="M137,253.51a15.11,15.11,0,0,0-7.25,4.2,12.47,12.47,0,0,1,6.77-5.86Z" style="fill:#af6152"></path><path d="M162.27,239.61a6.83,6.83,0,0,0,3.75-2.35c.91-1.2,1.83-2.57,2.28-2.41.75.27,1.59,2.26.29,4.33s-3.24,4.06-3.55,4.65a10.5,10.5,0,0,0-.37,3.56,6.33,6.33,0,0,1-4.52,5.66,5.87,5.87,0,0,0,3.92-1.9c2-2,1.49-4.9,1.65-6.15s.2-1.51,1.68-3.17,3.07-3.47,2.32-6-1.81-1.87-2.33-1.34S164.8,238.93,162.27,239.61Z" style="fill:#af6152"></path><path d="M171.14,237l-1.65.14.3.53a1.92,1.92,0,0,1,1.87.88Z" style="fill:#af6152"></path><path d="M170.54,242.5c-.49.55-2.12,2.15-2.45,2.48s-1-.1-1.17-1a3.05,3.05,0,0,1,.36-2.21,3.31,3.31,0,0,0-.75,2.24c.14,1.19.8,1.6,1.29,1.65S169.48,243.66,170.54,242.5Z" style="fill:#af6152"></path><path d="M170,245.93c-.36.41-1,.9-2,2-.59.65-.95,1.09-1.4.84a2.18,2.18,0,0,1-.39-2.48,7.67,7.67,0,0,1,1-1.44l-.31-.31a5.83,5.83,0,0,0-1.4,2.38c-.25,1.2.48,2.51,1.09,2.42s.93-.48,1.75-1.45S170,245.93,170,245.93Z" style="fill:#af6152"></path><path d="M166.9,249.05c-.21.3-.33,1.1.2,1.34a1.24,1.24,0,0,0,1,0,1.06,1.06,0,0,1-1.21.29c-.64-.29-.68-1.08-.56-1.69Z" style="fill:#af6152"></path></g><path d="M127.83,238.88c-.48-13.49-6-19-12.88-19.87,0,0-8.36.68-13.82,1.41A77.83,77.83,0,0,0,86,224.47c-2.66,1.2-6.51,7.84-7.09,17.35-.42,6.75-1.54,15.34-.74,27.33.52,7.81.61,13.77,1.91,24,9.28,3.68,40.08.15,48.18-15.43-.82-2.37-1-10.38-.89-14.91S128,243.13,127.83,238.88Z" style="fill:#455a64"></path><g id="freepik--head--inject-19"><path d="M99.41,214c-.18-3.81-3.43-8.16-4.71-11.63s-1.9-5.89-1.36-8.82c.32-1.73,1.71-4,3.07-4.31a8.19,8.19,0,0,1,7.19-9.42,27.22,27.22,0,0,0,3.71-.56c1.48-.42,1.93-1.51,3.19-2.34,2.15-1.43,5.45-1.06,6.4,1.6,1.51-1.52,3.27-1.27,5.24-.5a3.51,3.51,0,0,1,2.2,4.26,3.67,3.67,0,0,1,5.23,2.66c0,1.21-.33,2.18.32,3.33.73,1.3,2.38,1.48,3,.57.08,1.72-.73,2.92-2.54,2.61a3.83,3.83,0,0,1,.09,3.26,3.53,3.53,0,0,1-3.44,2,5.42,5.42,0,0,1-3.5,4.14c-2.92,1-6,1-9.07,1.29l-3.62.31c-.21,0-1.28,0-1.43.12Z" style="fill:#263238"></path><path d="M95.47,208.57a3.63,3.63,0,0,0,4.42.4l-1.68,12.31c1.41,5.52,10.31,7.49,13.77,6.4s3.28-3.09,1.51-6.3l.47-2a37.08,37.08,0,0,0,4.47.34c3,0,5.47-2.16,6.69-5.23A33.11,33.11,0,0,0,127,202a11.13,11.13,0,0,1,.22-3.1,14.68,14.68,0,0,0-.11-6.71c-2.91-3-10.26-4.77-17.73-1.39.3,4.24-1.7,7.32-4.9,8.54,0,1.13-.2,4-2,3.69-1.32-.19-1.21-1.86-2.39-3.49s-4.3-2.4-5.79-.4A7.21,7.21,0,0,0,95.47,208.57Z" style="fill:#c8856a"></path><path d="M108.65,197.61,99.55,199a3.6,3.6,0,0,1,1.1,1.58l7.9-.85Z" style="fill:#263238"></path><path d="M129.42,197.65a17.79,17.79,0,0,0-6.45.1c-1.9.58-2.58,1.22-3.62,1.23s-1.79-.66-3.77-1.24a20.56,20.56,0,0,0-6.91-.14,1.12,1.12,0,0,0-.78,1.06c0,.88.59,1,.7,1.74.23,2.71.46,5.79,4,5.94,6.43.24,4.53-6.17,6.91-5.76.88.21.7,1.91,1.22,3.15a5.1,5.1,0,0,0,.81,1.36,4,4,0,0,0,3.2,1.27,3.78,3.78,0,0,0,3.76-2.45,22,22,0,0,0,.78-3.47c.21-.63.71-.83.79-1.71C130.09,198.19,129.74,197.69,129.42,197.65Zm-12.58,4.83a4.25,4.25,0,0,1-1,1.85h0c-1.53,1.67-5.39,1.41-6-1.11h0c0-.14-.08-.26-.11-.39h0c-.23-1-.5-3.23.08-3.85,1-1,5.73-.89,7.08.74A4.26,4.26,0,0,1,116.84,202.48Zm11.34-.37a4,4,0,0,1-1.89,3c-1.38.79-3.9.08-4.35-1.09a5.3,5.3,0,0,1-.38-4.26,5.44,5.44,0,0,1,3.19-1.33,4.79,4.79,0,0,1,3.49.61C128.64,199.4,128.39,201.19,128.18,202.11Z" style="fill:#37474f"></path><path d="M123.4,207.16l-4.68,1.77-.68-6.87c.31-.93.62-1.61,1.43-1.48.06.07.13.13.18.2s.33.38.5.61c.27.39.55.83.84,1.31.41.69.84,1.45,1.25,2.24l.56,1.07c0,.09.09.17.14.26Z" style="fill:#af6152"></path><path d="M114,219.39c-4.58-1.11-8-2-10.06-5.71a28.86,28.86,0,0,1-2.14-5.84,22.84,22.84,0,0,0,1.16,7.14c.91,2.29,3.45,4.53,10.66,6Z" style="fill:#af6152"></path><path d="M114.46,201.92a1.33,1.33,0,0,1-1.41,1.27,1.37,1.37,0,1,1,1.41-1.27Z" style="fill:#263238"></path><path d="M114.43,195.82l-3.15.7a1.69,1.69,0,0,1,1.26-2A1.58,1.58,0,0,1,114.43,195.82Z" style="fill:#263238"></path><path d="M113,209.49l4.2,1.81a2.4,2.4,0,0,1-3.09,1.21A2.23,2.23,0,0,1,113,209.49Z" style="fill:#af6152"></path><path d="M115.32,212.66a2.7,2.7,0,0,0-2.54-2.55,2.2,2.2,0,0,0,1.29,2.4A2.16,2.16,0,0,0,115.32,212.66Z" style="fill:#ffa8a7"></path><path d="M126.26,197.17l-3.16-.75a1.55,1.55,0,0,1,1.9-1.23A1.71,1.71,0,0,1,126.26,197.17Z" style="fill:#263238"></path><path d="M124.7,202.16a1.32,1.32,0,1,1-1.08-1.57A1.35,1.35,0,0,1,124.7,202.16Z" style="fill:#263238"></path></g><g id="freepik--Laptop--inject-19"><path d="M169.1,294.52v.6a2.5,2.5,0,0,1-1.27,2.16l-44,24.94a2.43,2.43,0,0,1-1.25.32,2.49,2.49,0,0,1-1.26-.34L97.53,308.27a2.52,2.52,0,0,1-1.23-2.18v-.85h0a.32.32,0,0,0,.16.28l26.1,15.35Z" style="fill:#e0e0e0"></path><path d="M122.57,320.88v1.67a2.54,2.54,0,0,0,1.25-.33l44-24.94a2.51,2.51,0,0,0,1.28-2.16v-.61Z" style="opacity:0.1"></path><path d="M96.52,305.44a.23.23,0,0,1,0-.4l45.27-25.66a1.38,1.38,0,0,1,.74-.18,1.53,1.53,0,0,1,.66.19l25.7,15.12-46.33,26.26Z" style="fill:#f0f0f0"></path><path d="M142.54,279.3a1.27,1.27,0,0,1,.6.18l25.57,15-46.14,26.14-26-15.29a.13.13,0,0,1-.06-.12.11.11,0,0,1,.06-.11l45.28-25.66a1.29,1.29,0,0,1,.69-.17m0-.2a1.51,1.51,0,0,0-.8.2L96.48,305a.33.33,0,0,0,0,.58l26.1,15.35,46.53-26.37-25.86-15.2a1.43,1.43,0,0,0-.69-.21Z" style="fill:#e0e0e0"></path><polygon points="122.35 318.67 108.4 310.48 149.56 287.16 163.58 295.31 122.35 318.67" style="fill:#ebebeb"></polygon><polygon points="163.58 295.31 163.04 295.61 149.56 287.77 108.94 310.79 108.41 310.48 149.56 287.16 163.58 295.31" style="fill:#e0e0e0"></polygon><polygon points="115.64 296.14 115.9 296.29 122.74 300.31 135 293.36 135.26 293.21 128.17 289.04 115.64 296.14" style="fill:#e0e0e0"></polygon><polygon points="115.9 296.29 122.74 300.31 135 293.36 128.17 289.34 115.9 296.29" style="fill:#ebebeb"></polygon><g id="freepik--arm--inject-19"><path d="M63.49,268c3.3-10.83,6.49-21.19,9.6-29.34,1.71-4.5,2.76-10.7,12.69-13.47,5.82,5,2.9,17.68,1.74,20.85l-7.67,24.82s1.63,2.23,7.13,8.2c4.69,5.09,7,7,12.57,8.14s6.13.82,9,2.36c1.5.82,4.94,2.72,6.11,3.45s3.16,3.12,5.06,4.79-.69,2.32-2.13,1.76a19.63,19.63,0,0,1-4.25-2.55,25.48,25.48,0,0,0-3.68-1.79,22.9,22.9,0,0,1,.41,4.52c-.06.81,0,1.81-.73,2.35a6.43,6.43,0,0,1-1.76.55,1.25,1.25,0,0,1-.41.75,2.06,2.06,0,0,1-1.48.25,5.91,5.91,0,0,1-.81-.2,1.5,1.5,0,0,1-1,1.09,6.52,6.52,0,0,1-3.48-.18c-.16-.08-1.39-.89-1.75-1.12-.53-.34-1-.54-1.21-.92s.63-1.35,1.31-1.4a6.5,6.5,0,0,1,2.19.34,7.92,7.92,0,0,1-.48-2c-.51-1-4.94-.42-8.73-1.42-2.87-.76-4.81-3.59-6-4.42A170,170,0,0,1,69.05,280.8C61.92,274.76,61.71,273.83,63.49,268Z" style="fill:#c8856a"></path><path d="M108.62,292.67a10.31,10.31,0,0,1,1,2.56l.72.32C110,294.42,109.43,293.05,108.62,292.67Zm-2.6.76a3.66,3.66,0,0,1,.57,1,6.59,6.59,0,0,1,.35,1.12,16.14,16.14,0,0,1,.33,2.33c.08.79.14,1.58.21,2.37a21,21,0,0,1,.07,2.38,9.19,9.19,0,0,0,.28-2.39,21.48,21.48,0,0,0-.1-2.41,10.41,10.41,0,0,0-.45-2.38A4.33,4.33,0,0,0,106,293.43Zm-1.56,3a4.52,4.52,0,0,0-1-2.12,3,3,0,0,1,.43,1.06c.1.38.18.76.25,1.14.13.76.24,1.53.33,2.3.18,1.55.35,3.09.4,4.66a10.92,10.92,0,0,0,.2-2.35,20.62,20.62,0,0,0-.14-2.36A15.46,15.46,0,0,0,104.46,296.41Zm-5.76,4.51a4,4,0,0,1,1,.22,7.38,7.38,0,0,1,.75.37,1.27,1.27,0,0,0,0,.28,1.23,1.23,0,0,0,.19.38,1.37,1.37,0,0,0,.63.49,3.14,3.14,0,0,1-.35-.64,2.06,2.06,0,0,1-.07-.32,1.15,1.15,0,0,1,0-.27l0-.17-.17-.1a3.2,3.2,0,0,0-.9-.27A2,2,0,0,0,98.7,300.92Z" style="fill:#af6152"></path><path d="M86,224.47c-5.15,1.7-9.29,2.89-12,9.92C70.79,242.92,66.68,256,66.68,256s1.26,3.47,7.47,5.38,9.13.44,9.13.44S87,251,88.43,246.45,92.63,228.77,86,224.47Z" style="fill:#37474f"></path></g><path d="M123.27,321.26a3,3,0,0,0,2.56-.18l43.82-24.83a3,3,0,0,0,1.46-2.06l5-28.44a4,4,0,0,0,0-.49,3,3,0,0,0-.86-2.12L129.76,289a2.24,2.24,0,0,0-1.08,1.53Z" style="fill:#263238"></path><path d="M122.57,320.88l.3.17a3,3,0,0,0,.4.21l5.41-30.78a2.24,2.24,0,0,1,1.08-1.53l45.54-25.81a3.08,3.08,0,0,0-.6-.46l-45.63,25.86a2.17,2.17,0,0,0-1.08,1.52Z" style="fill:#455a64"></path><path d="M129.11,289.53l-.7-.41a2.12,2.12,0,0,0-.42.94l-5.42,30.82.3.17a3,3,0,0,0,.4.21l5.41-30.78A2.35,2.35,0,0,1,129.11,289.53Z" style="fill:#37474f"></path><path d="M148.05,295.17c.34-1.91,2.32-4.42,4.44-5.62s3.57-.63,3.23,1.27-2.32,4.42-4.44,5.62S147.72,297.07,148.05,295.17Z" style="fill:#353935"></path></g></g></g></g><g id="freepik--speech-bubbles--inject-19"><g id="freepik--speech-bubble--inject-19"><g id="freepik--speech-bubble--inject-19"><path d="M56.64,205.42a20,20,0,0,1,6.09,13.4v2.29a20,20,0,0,1-39.91.73l-.09-2.29a20,20,0,0,1,33.92-14.13Z" style="fill:#fff"></path><path d="M27.09,204.76a21.73,21.73,0,0,0,28.56,32.56l6.23,2.62a1.26,1.26,0,0,0,1.63-1.7l-2.84-6.13a21.73,21.73,0,0,0-33.58-27.35Zm29.55.66a20,20,0,0,1,6.09,13.4l0,2.29a20,20,0,0,1-39.9.73l-.09-2.29a20,20,0,0,1,33.92-14.13Z" style="fill:#e0e0e0"></path><path d="M56.64,205.42a20,20,0,0,1,6.09,13.4l0,2.29a20,20,0,0,1-39.9.73l-.09-2.29a20,20,0,0,1,33.92-14.13Z" style="fill:#fff;opacity:0.7000000000000001"></path></g><path d="M34.64,208.61a16.54,16.54,0,0,1,1.57-1.19,10.67,10.67,0,0,1,1.83-1,11.69,11.69,0,0,1,4.63-.9A10.3,10.3,0,0,1,46,206a7.42,7.42,0,0,1,2.56,1.43,6.32,6.32,0,0,1,1.66,2.26,7.19,7.19,0,0,1,.59,3,7.45,7.45,0,0,1-.47,2.76,7.6,7.6,0,0,1-1.15,2A8.91,8.91,0,0,1,47.67,219l-1.56,1.18a13.42,13.42,0,0,0-1.27,1.09,2.21,2.21,0,0,0-.64,1.21l-.48,3.06H40.18l-.36-3.42a2.84,2.84,0,0,1,.28-1.73A5.58,5.58,0,0,1,41.19,219a15.71,15.71,0,0,1,1.52-1.19,15,15,0,0,0,1.58-1.26A6.84,6.84,0,0,0,45.51,215a4,4,0,0,0,.5-2,3.11,3.11,0,0,0-.29-1.35,3,3,0,0,0-.78-1,3.45,3.45,0,0,0-1.21-.66,4.66,4.66,0,0,0-1.52-.24,6.54,6.54,0,0,0-2,.27,7.9,7.9,0,0,0-1.41.58c-.38.22-.71.42-1,.59a1.3,1.3,0,0,1-.71.26,1.13,1.13,0,0,1-1.09-.63Zm4,22.41a3.22,3.22,0,0,1,.24-1.24,3.05,3.05,0,0,1,.66-1,3.19,3.19,0,0,1,1-.67,3.12,3.12,0,0,1,1.26-.25,3.07,3.07,0,0,1,1.25.25,3.31,3.31,0,0,1,1,.67,3.12,3.12,0,0,1,.69,1A3.23,3.23,0,0,1,45,231a3.19,3.19,0,0,1-.25,1.24A3.17,3.17,0,0,1,43,233.92a3.24,3.24,0,0,1-1.25.24,3.29,3.29,0,0,1-1.26-.24,3,3,0,0,1-1.66-1.66A3.19,3.19,0,0,1,38.61,231Z" style="fill:#353935"></path></g><g id="freepik--speech-bubble--inject-19"><g id="freepik--speech-bubble--inject-19"><path d="M160.14,90.6a20,20,0,0,1,6.09,13.4l0,2.29a20,20,0,0,1-39.9.73l-.1-2.29A20,20,0,0,1,160.14,90.6Z" style="fill:#fff"></path><path d="M130.58,89.94a21.73,21.73,0,0,0,28.56,32.56l6.23,2.62a1.26,1.26,0,0,0,1.63-1.7l-2.84-6.12a21.73,21.73,0,0,0-33.58-27.36Zm29.56.66a20,20,0,0,1,6.09,13.4l0,2.29a20,20,0,0,1-39.9.73l-.1-2.29A20,20,0,0,1,160.14,90.6Z" style="fill:#e0e0e0"></path><path d="M160.14,90.6a20,20,0,0,1,6.09,13.4l0,2.29a20,20,0,0,1-39.9.73l-.1-2.29A20,20,0,0,1,160.14,90.6Z" style="fill:#fff;opacity:0.7000000000000001"></path></g><g id="freepik--Bulb--inject-19"><path d="M142.91,114.36h6.63a.49.49,0,0,0,.49-.5.5.5,0,0,0-.49-.5h-6.63a.5.5,0,0,0-.5.5A.5.5,0,0,0,142.91,114.36Z" style="fill:#455a64"></path><path d="M142.41,115.72a.5.5,0,0,1,.5-.5h6.63a.49.49,0,0,1,.49.5,3.81,3.81,0,0,1-7.62,0Z" style="fill:#455a64"></path><path d="M136,100.79a10.31,10.31,0,0,0,5,8.82,2.74,2.74,0,0,1,1.36,2.34.45.45,0,0,0,.45.45h6.81a.44.44,0,0,0,.31-.13.48.48,0,0,0,.13-.32,2.71,2.71,0,0,1,1.37-2.34,10.27,10.27,0,0,0,5-9,10.39,10.39,0,0,0-9.76-10.08A10.26,10.26,0,0,0,136,100.79Z" style="fill:#353935"></path><g style="opacity:0.35000000000000003"><path d="M136,100.79a10.31,10.31,0,0,0,5,8.82,2.74,2.74,0,0,1,1.36,2.34.45.45,0,0,0,.45.45h6.81a.44.44,0,0,0,.31-.13.48.48,0,0,0,.13-.32,2.71,2.71,0,0,1,1.37-2.34,10.27,10.27,0,0,0,5-9,10.39,10.39,0,0,0-9.76-10.08A10.26,10.26,0,0,0,136,100.79Z" style="fill:#fff"></path></g><path d="M140.9,103.84a2.48,2.48,0,0,0,1.37.35,4.41,4.41,0,0,0,.79-.08l.13,0,.06.12a7.18,7.18,0,0,1,.57,1.33,17.73,17.73,0,0,1,.58,5.84c0,.36,0,.69,0,1h.53v-1a18.4,18.4,0,0,0-.6-6,8.55,8.55,0,0,0-.51-1.25l-.09-.18.19-.07a6,6,0,0,0,2.18-1.44l.13-.13.13.13a6.06,6.06,0,0,0,.7.62,6.13,6.13,0,0,0,1.48.82l.2.07-.1.18a7.57,7.57,0,0,0-.5,1.25,18.39,18.39,0,0,0-.61,6c0,.35,0,.68,0,1h.52c0-.33,0-.66,0-1a18.16,18.16,0,0,1,.58-5.87,7.93,7.93,0,0,1,.57-1.33l.06-.12.13,0a4.52,4.52,0,0,0,.8.08,2.44,2.44,0,0,0,1.36-.35.8.8,0,0,0,.36-.94,1,1,0,0,0-1-.71,2.46,2.46,0,0,0-1.82,1.19l-.08.11-.13,0a5.16,5.16,0,0,1-1.51-.81,5.47,5.47,0,0,1-.71-.64l-.1-.1.09-.12a3.08,3.08,0,0,0,.65-2.55,1.14,1.14,0,0,0-2.16,0,3.09,3.09,0,0,0,.66,2.55l.08.12-.1.1a5.47,5.47,0,0,1-.71.64,5,5,0,0,1-1.51.81l-.13,0-.07-.11a2.49,2.49,0,0,0-1.83-1.19,1,1,0,0,0-1,.71A.81.81,0,0,0,140.9,103.84Zm8.63-.21.27-.28a1.67,1.67,0,0,1,1.11-.63.48.48,0,0,1,.5.34.33.33,0,0,1-.17.35,2,2,0,0,1-1.09.25h-.23Zm-3.46-2.41a2.4,2.4,0,0,1-.43-1.83.56.56,0,0,1,.58-.4.57.57,0,0,1,.59.4,2.49,2.49,0,0,1-.43,1.83l-.16.26Zm-5,1.84a.48.48,0,0,1,.49-.34,1.71,1.71,0,0,1,1.12.63l.26.28-.39,0h-.22a2,2,0,0,1-1.1-.25S141,103.25,141,103.06Z" style="fill:#fafafa"></path></g></g></g></svg>